Alkalami-Light.ufo
<glyph name="quotesingle" format="2">
  <advance width="241"/>
  <unicode hex="0027"/>
  <outline>
    <contour>
      <point x="90" y="477" type="curve"/>
      <point x="116" y="474" type="line"/>
      <point x="151" y="588"/>
      <point x="164" y="668"/>
      <point x="173" y="741" type="curve"/>
      <point x="157" y="748"/>
      <point x="137" y="751"/>
      <point x="118" y="751" type="curve" smooth="yes"/>
      <point x="102" y="751"/>
      <point x="87" y="749"/>
      <point x="73" y="744" type="curve"/>
      <point x="76" y="662"/>
      <point x="82" y="576"/>
    </contour>
  </outline>
</glyph>
<glyph name="parenleft" format="2">
  <advance width="323"/>
  <unicode hex="0028"/>
  <outline>
    <contour>
      <point x="253" y="798" type="line"/>
      <point x="97" y="718"/>
      <point x="17" y="540"/>
      <point x="17" y="364" type="curve" smooth="yes"/>
      <point x="17" y="188"/>
      <point x="95" y="12"/>
      <point x="253" y="-68" type="curve"/>
      <point x="272" y="-41" type="line"/>
      <point x="161" y="47"/>
      <point x="104" y="206"/>
      <point x="104" y="365" type="curve" smooth="yes"/>
      <point x="104" y="525"/>
      <point x="161" y="684"/>
      <point x="272" y="772" type="curve"/>
    </contour>
  </outline>
</glyph>
<glyph name="zero" format="2">
  <advance width="523"/>
  <unicode hex="0030"/>
  <outline>
    <contour>
      <point x="498" y="522"/>
      <point x="389" y="625"/>
      <point x="261" y="625" type="curve" smooth="yes"/>
      <point x="134" y="625"/>
      <point x="25" y="522"/>
      <point x="25" y="303" type="curve" smooth="yes"/>
      <point x="25" y="95"/>
      <point x="134" y="-6"/>
      <point x="261" y="-6" type="curve" smooth="yes"/>
      <point x="389" y="-6"/>
      <point x="498" y="95"/>
      <point x="498" y="303" type="curve" smooth="yes"/>
    </contour>
    <contour>
      <point x="122" y="488"/>
      <point x="178" y="580"/>
      <point x="260" y="580" type="curve" smooth="yes"/>
      <point x="345" y="580"/>
      <point x="402" y="487"/>
      <point x="402" y="303" type="curve" smooth="yes"/>
      <point x="402" y="127"/>
      <point x="346" y="40"/>
      <point x="261" y="40" type="curve" smooth="yes"/>
      <point x="179" y="40"/>
      <point x="122" y="128"/>
      <point x="122" y="303" type="curve" smooth="yes"/>
    </contour>
  </outline>
</glyph>
<glyph name="one" format="2">
  <advance width="530"/>
  <unicode hex="0031"/>
  <outline>
    <contour>
      <point x="319" y="630" type="curve"/>
      <point x="275" y="630" type="line"/>
      <point x="225" y="592"/>
      <point x="150" y="568"/>
      <point x="84" y="557" type="curve"/>
      <point x="98" y="517" type="line"/>
      <point x="226" y="520" type="line"/>
      <point x="229" y="440"/>
      <point x="230" y="383"/>
      <point x="230" y="305" type="curve" smooth="yes"/>
      <point x="230" y="219"/>
      <point x="229" y="132"/>
      <point x="226" y="58" type="curve"/>
      <point x="92" y="35" type="line"/>
      <point x="105" y="0" type="line"/>
      <point x="149" y="1"/>
      <point x="227" y="3"/>
      <point x="274" y="3" type="curve" smooth="yes"/>
      <point x="325" y="3"/>
      <point x="397" y="2"/>
      <point x="435" y="0" type="curve"/>
      <point x="447" y="35" type="line"/>
      <point x="319" y="58" type="line"/>
      <point x="316" y="136"/>
      <point x="315" y="228"/>
      <point x="315" y="319" type="curve" smooth="yes"/>
      <point x="315" y="402"/>
      <point x="317" y="451"/>
    </contour>
  </outline>
</glyph>
<glyph name="two" format="2">
  <advance width="530"/>
  <unicode hex="0032"/>
  <outline>
    <contour>
      <point x="49" y="455" type="curve"/>
      <point x="64" y="434" type="line"/>
      <point x="135" y="519"/>
      <point x="201" y="547"/>
      <point x="257" y="547" type="curve" smooth="yes"/>
      <point x="317" y="547"/>
      <point x="367" y="510"/>
      <point x="367" y="439" type="curve" smooth="yes"/>
      <point x="367" y="346"/>
      <point x="305" y="291"/>
      <point x="63" y="21" type="curve"/>
      <point x="71" y="0" type="line"/>
      <point x="135" y="3"/>
      <point x="208" y="4"/>
      <point x="276" y="4" type="curve" smooth="yes"/>
      <point x="360" y="4"/>
      <point x="402" y="3"/>
      <point x="474" y="0" type="curve"/>
      <point x="458" y="88" type="line"/>
      <point x="356" y="72"/>
      <point x="254" y="73"/>
      <point x="152" y="74" type="curve"/>
      <point x="150" y="47" type="line"/>
      <point x="300" y="241"/>
      <point x="467" y="322"/>
      <point x="467" y="467" type="curve" smooth="yes"/>
      <point x="467" y="564"/>
      <point x="390" y="628"/>
      <point x="296" y="628" type="curve" smooth="yes"/>
      <point x="196" y="628"/>
      <point x="113" y="568"/>
    </contour>
    <contour>
      <point x="405" y="81" type="curve"/>
      <point x="474" y="0" type="line"/>
      <point x="472" y="71"/>
      <point x="475" y="120"/>
      <point x="481" y="190" type="curve"/>
      <point x="442" y="190" type="line"/>
      <point x="428" y="154"/>
      <point x="421" y="121"/>
    </contour>
  </outline>
</glyph>
<glyph name="three" format="2">
  <advance width="530"/>
  <unicode hex="0033"/>
  <outline>
    <contour>
      <point x="288" y="395" type="curve"/>
      <point x="326" y="438"/>
      <point x="373" y="489"/>
      <point x="430" y="547" type="curve"/>
      <point x="419" y="620" type="line"/>
      <point x="351" y="618"/>
      <point x="299" y="617"/>
      <point x="236" y="617" type="curve" smooth="yes"/>
      <point x="174" y="617"/>
      <point x="133" y="618"/>
      <point x="75" y="620" type="curve"/>
      <point x="75" y="564"/>
      <point x="74" y="491"/>
      <point x="68" y="427" type="curve"/>
      <point x="101" y="427" type="line"/>
      <point x="115" y="463"/>
      <point x="122" y="494"/>
      <point x="138" y="534" type="curve"/>
      <point x="166" y="536"/>
      <point x="193" y="537"/>
      <point x="231" y="537" type="curve" smooth="yes"/>
      <point x="265" y="537"/>
      <point x="304" y="536"/>
      <point x="342" y="535" type="curve"/>
      <point x="291" y="461"/>
      <point x="261" y="422"/>
      <point x="184" y="346" type="curve"/>
      <point x="194" y="321" type="line"/>
      <point x="305" y="321"/>
      <point x="384" y="264"/>
      <point x="384" y="174" type="curve" smooth="yes"/>
      <point x="384" y="91"/>
      <point x="319" y="48"/>
      <point x="242" y="48" type="curve" smooth="yes"/>
      <point x="185" y="48"/>
      <point x="123" y="70"/>
      <point x="73" y="111" type="curve"/>
      <point x="59" y="82" type="line"/>
      <point x="99" y="43"/>
      <point x="159" y="-6"/>
      <point x="260" y="-6" type="curve" smooth="yes"/>
      <point x="365" y="-6"/>
      <point x="470" y="67"/>
      <point x="470" y="190" type="curve" smooth="yes"/>
      <point x="470" y="293"/>
      <point x="404" y="372"/>
    </contour>
  </outline>
</glyph>
<glyph name="four" format="2">
  <advance width="530"/>
  <unicode hex="0034"/>
  <outline>
    <contour>
      <point x="401" y="628" type="curve"/>
      <point x="352" y="628" type="line"/>
      <point x="251" y="468"/>
      <point x="130" y="308"/>
      <point x="23" y="178" type="curve"/>
      <point x="23" y="146" type="line"/>
      <point x="130" y="147"/>
      <point x="209" y="147"/>
      <point x="282" y="147" type="curve" smooth="yes"/>
      <point x="355" y="147"/>
      <point x="422" y="147"/>
      <point x="503" y="146" type="curve"/>
      <point x="503" y="203" type="line"/>
      <point x="427" y="201"/>
      <point x="351" y="200"/>
      <point x="281" y="200" type="curve" smooth="yes"/>
      <point x="218" y="200"/>
      <point x="164" y="201"/>
      <point x="136" y="203" type="curve"/>
      <point x="174" y="281"/>
      <point x="239" y="368"/>
      <point x="310" y="458" type="curve"/>
      <point x="310" y="370"/>
      <point x="312" y="289"/>
      <point x="312" y="193" type="curve" smooth="yes"/>
      <point x="312" y="125"/>
      <point x="311" y="85"/>
      <point x="308" y="10" type="curve"/>
      <point x="402" y="10" type="line"/>
      <point x="400" y="95"/>
      <point x="400" y="194"/>
      <point x="400" y="289" type="curve" smooth="yes"/>
      <point x="400" y="394"/>
      <point x="400" y="503"/>
    </contour>
    <contour>
      <point x="397" y="58" type="line"/>
      <point x="311" y="58" type="line"/>
      <point x="185" y="35" type="line"/>
      <point x="198" y="0" type="line"/>
      <point x="242" y="1"/>
      <point x="310" y="3"/>
      <point x="354" y="3" type="curve" smooth="yes"/>
      <point x="404" y="3"/>
      <point x="456" y="2"/>
      <point x="494" y="0" type="curve"/>
      <point x="506" y="35" type="line"/>
    </contour>
  </outline>
</glyph>
<glyph name="five" format="2">
  <advance width="530"/>
  <unicode hex="0035"/>
  <outline>
    <contour>
      <point x="79" y="341" type="curve"/>
      <point x="99" y="314" type="line"/>
      <point x="125" y="319"/>
      <point x="150" y="321"/>
      <point x="182" y="321" type="curve" smooth="yes"/>
      <point x="280" y="321"/>
      <point x="370" y="277"/>
      <point x="370" y="172" type="curve" smooth="yes"/>
      <point x="370" y="90"/>
      <point x="290" y="33"/>
      <point x="201" y="33" type="curve" smooth="yes"/>
      <point x="152" y="33"/>
      <point x="113" y="39"/>
      <point x="74" y="51" type="curve"/>
      <point x="68" y="18" type="line"/>
      <point x="114" y="-2"/>
      <point x="161" y="-8"/>
      <point x="205" y="-8" type="curve" smooth="yes"/>
      <point x="330" y="-8"/>
      <point x="462" y="68"/>
      <point x="462" y="207" type="curve" smooth="yes"/>
      <point x="462" y="330"/>
      <point x="355" y="410"/>
      <point x="195" y="410" type="curve" smooth="yes"/>
      <point x="176" y="410"/>
      <point x="156" y="409"/>
      <point x="135" y="407" type="curve"/>
      <point x="138" y="443"/>
      <point x="143" y="501"/>
      <point x="152" y="542" type="curve"/>
      <point x="220" y="542"/>
      <point x="358" y="542"/>
      <point x="439" y="517" type="curve"/>
      <point x="443" y="620" type="line"/>
      <point x="403" y="619"/>
      <point x="331" y="618"/>
      <point x="284" y="618" type="curve" smooth="yes"/>
      <point x="195" y="618"/>
      <point x="160" y="619"/>
      <point x="102" y="620" type="curve"/>
      <point x="101" y="543"/>
      <point x="94" y="434"/>
    </contour>
  </outline>
</glyph>
<glyph name="six" format="2">
  <advance width="530"/>
  <unicode hex="0036"/>
  <outline>
    <contour>
      <point x="137" y="335" type="curve"/>
      <point x="142" y="302" type="line"/>
      <point x="178" y="326"/>
      <point x="209" y="341"/>
      <point x="258" y="341" type="curve" smooth="yes"/>
      <point x="340" y="341"/>
      <point x="381" y="256"/>
      <point x="381" y="176" type="curve" smooth="yes"/>
      <point x="381" y="104"/>
      <point x="348" y="35"/>
      <point x="280" y="35" type="curve" smooth="yes"/>
      <point x="216" y="35"/>
      <point x="153" y="110"/>
      <point x="153" y="235" type="curve" smooth="yes"/>
      <point x="153" y="357"/>
      <point x="206" y="504"/>
      <point x="423" y="594" type="curve"/>
      <point x="410" y="627" type="line"/>
      <point x="156" y="537"/>
      <point x="58" y="359"/>
      <point x="58" y="219" type="curve" smooth="yes"/>
      <point x="58" y="104"/>
      <point x="135" y="-10"/>
      <point x="260" y="-10" type="curve" smooth="yes"/>
      <point x="401" y="-10"/>
      <point x="472" y="101"/>
      <point x="472" y="211" type="curve" smooth="yes"/>
      <point x="472" y="296"/>
      <point x="407" y="401"/>
      <point x="292" y="401" type="curve" smooth="yes"/>
      <point x="243" y="401"/>
      <point x="182" y="381"/>
    </contour>
  </outline>
</glyph>
<glyph name="seven" format="2">
  <advance width="530"/>
  <unicode hex="0037"/>
  <outline>
    <contour>
      <point x="121" y="535" type="curve"/>
      <point x="177" y="537"/>
      <point x="212" y="538"/>
      <point x="258" y="538" type="curve" smooth="yes"/>
      <point x="305" y="538"/>
      <point x="350" y="537"/>
      <point x="393" y="535" type="curve"/>
      <point x="270" y="362"/>
      <point x="199" y="176"/>
      <point x="168" y="0" type="curve"/>
      <point x="267" y="0" type="line"/>
      <point x="284" y="194"/>
      <point x="349" y="380"/>
      <point x="473" y="592" type="curve"/>
      <point x="457" y="620" type="line"/>
      <point x="393" y="618"/>
      <point x="322" y="617"/>
      <point x="252" y="617" type="curve" smooth="yes"/>
      <point x="182" y="617"/>
      <point x="125" y="618"/>
      <point x="64" y="620" type="curve"/>
      <point x="64" y="569"/>
      <point x="60" y="508"/>
      <point x="56" y="430" type="curve"/>
      <point x="86" y="430" type="line"/>
      <point x="97" y="463"/>
      <point x="108" y="502"/>
    </contour>
  </outline>
</glyph>
<glyph name="eight" format="2">
  <advance width="530"/>
  <unicode hex="0038"/>
  <outline>
    <contour>
      <point x="403" y="358"/>
      <point x="442" y="430"/>
      <point x="442" y="485" type="curve" smooth="yes"/>
      <point x="442" y="582"/>
      <point x="353" y="629"/>
      <point x="258" y="629" type="curve" smooth="yes"/>
      <point x="164" y="629"/>
      <point x="73" y="579"/>
      <point x="73" y="475" type="curve" smooth="yes"/>
      <point x="73" y="304"/>
      <point x="381" y="300"/>
      <point x="381" y="131" type="curve" smooth="yes"/>
      <point x="381" y="61"/>
      <point x="326" y="26"/>
      <point x="270" y="26" type="curve" smooth="yes"/>
      <point x="191" y="26"/>
      <point x="152" y="85"/>
      <point x="152" y="155" type="curve" smooth="yes"/>
      <point x="152" y="218"/>
      <point x="187" y="290"/>
      <point x="257" y="327" type="curve"/>
      <point x="215" y="338" type="line"/>
      <point x="110" y="300"/>
      <point x="60" y="224"/>
      <point x="60" y="153" type="curve" smooth="yes"/>
      <point x="60" y="69"/>
      <point x="129" y="-7"/>
      <point x="264" y="-7" type="curve" smooth="yes"/>
      <point x="365" y="-7"/>
      <point x="470" y="50"/>
      <point x="470" y="157" type="curve" smooth="yes"/>
      <point x="470" y="365"/>
      <point x="153" y="377"/>
      <point x="153" y="511" type="curve" smooth="yes"/>
      <point x="153" y="567"/>
      <point x="198" y="596"/>
      <point x="245" y="596" type="curve" smooth="yes"/>
      <point x="312" y="596"/>
      <point x="355" y="544"/>
      <point x="355" y="487" type="curve" smooth="yes"/>
      <point x="355" y="438"/>
      <point x="332" y="379"/>
      <point x="258" y="351" type="curve"/>
      <point x="283" y="332" type="line"/>
    </contour>
  </outline>
</glyph>
<glyph name="nine" format="2">
  <advance width="530"/>
  <unicode hex="0039"/>
  <outline>
    <contour>
      <point x="393" y="283" type="curve"/>
      <point x="388" y="316" type="line"/>
      <point x="352" y="292"/>
      <point x="321" y="277"/>
      <point x="272" y="277" type="curve" smooth="yes"/>
      <point x="190" y="277"/>
      <point x="149" y="362"/>
      <point x="149" y="442" type="curve" smooth="yes"/>
      <point x="149" y="514"/>
      <point x="182" y="583"/>
      <point x="250" y="583" type="curve" smooth="yes"/>
      <point x="314" y="583"/>
      <point x="377" y="508"/>
      <point x="377" y="383" type="curve" smooth="yes"/>
      <point x="377" y="261"/>
      <point x="322" y="113"/>
      <point x="94" y="23" type="curve"/>
      <point x="109" y="-9" type="line"/>
      <point x="374" y="81"/>
      <point x="472" y="259"/>
      <point x="472" y="399" type="curve" smooth="yes"/>
      <point x="472" y="514"/>
      <point x="395" y="628"/>
      <point x="270" y="628" type="curve" smooth="yes"/>
      <point x="129" y="628"/>
      <point x="58" y="517"/>
      <point x="58" y="407" type="curve" smooth="yes"/>
      <point x="58" y="322"/>
      <point x="123" y="217"/>
      <point x="238" y="217" type="curve" smooth="yes"/>
      <point x="287" y="217"/>
      <point x="348" y="237"/>
    </contour>
  </outline>
</glyph>
<glyph name="F" format="2">
  <advance width="537"/>
  <unicode hex="0046"/>
  <outline>
    <contour>
      <point x="204" y="601" type="curve"/>
      <point x="236" y="604"/>
      <point x="267" y="606"/>
      <point x="297" y="606" type="curve" smooth="yes"/>
      <point x="348" y="606"/>
      <point x="396" y="600"/>
      <point x="441" y="586" type="curve"/>
      <point x="461" y="474" type="line"/>
      <point x="508" y="474" type="line"/>
      <point x="509" y="525"/>
      <point x="512" y="596"/>
      <point x="516" y="660" type="curve"/>
      <point x="466" y="657"/>
      <point x="373" y="656"/>
      <point x="275" y="656" type="curve" smooth="yes"/>
      <point x="186" y="656"/>
      <point x="99" y="657"/>
      <point x="33" y="660" type="curve"/>
      <point x="23" y="629" type="line"/>
      <point x="111" y="608" type="line"/>
      <point x="115" y="539"/>
      <point x="116" y="458"/>
      <point x="116" y="373" type="curve" smooth="yes"/>
      <point x="116" y="266"/>
      <point x="114" y="154"/>
      <point x="111" y="51" type="curve"/>
      <point x="23" y="30" type="line"/>
      <point x="33" y="0" type="line"/>
      <point x="68" y="1"/>
      <point x="108" y="3"/>
      <point x="141" y="3" type="curve" smooth="yes"/>
      <point x="192" y="3"/>
      <point x="268" y="2"/>
      <point x="306" y="0" type="curve"/>
      <point x="318" y="30" type="line"/>
      <point x="203" y="55" type="line"/>
      <point x="201" y="123"/>
      <point x="201" y="185"/>
      <point x="201" y="247" type="curve" smooth="yes"/>
      <point x="201" y="352"/>
      <point x="203" y="462"/>
    </contour>
    <contour>
      <point x="370" y="371" type="line"/>
      <point x="324" y="369"/>
      <point x="292" y="367"/>
      <point x="260" y="367" type="curve" smooth="yes"/>
      <point x="228" y="367"/>
      <point x="197" y="369"/>
      <point x="150" y="371" type="curve"/>
      <point x="150" y="310" type="line"/>
      <point x="194" y="312"/>
      <point x="226" y="313"/>
      <point x="258" y="313" type="curve" smooth="yes"/>
      <point x="290" y="313"/>
      <point x="323" y="312"/>
      <point x="370" y="310" type="curve"/>
    </contour>
    <contour>
      <point x="404" y="460" type="curve"/>
      <point x="357" y="460" type="line"/>
      <point x="337" y="362" type="line"/>
      <point x="337" y="320" type="line"/>
      <point x="357" y="219" type="line"/>
      <point x="404" y="219" type="line"/>
      <point x="402" y="252"/>
      <point x="401" y="297"/>
      <point x="401" y="341" type="curve" smooth="yes"/>
      <point x="401" y="384"/>
      <point x="402" y="420"/>
    </contour>
  </outline>
</glyph>
<glyph name="N" format="2">
  <advance width="723"/>
  <unicode hex="004E"/>
  <outline>
    <contour>
      <point x="197" y="660" type="curve"/>
      <point x="160" y="638"/>
      <point x="156" y="629"/>
      <point x="146" y="555" type="curve"/>
      <point x="291" y="359"/>
      <point x="387" y="218"/>
      <point x="554" y="-9" type="curve"/>
      <point x="569" y="-9" type="line"/>
      <point x="580" y="114" type="line"/>
      <point x="458" y="269"/>
      <point x="307" y="474"/>
    </contour>
    <contour>
      <point x="197" y="660" type="line"/>
      <point x="173" y="658"/>
      <point x="159" y="657"/>
      <point x="137" y="657" type="curve" smooth="yes"/>
      <point x="96" y="657"/>
      <point x="74" y="658"/>
      <point x="33" y="660" type="curve"/>
      <point x="23" y="629" type="line"/>
      <point x="107" y="608" type="line"/>
      <point x="113" y="550"/>
      <point x="113" y="487"/>
      <point x="113" y="420" type="curve" smooth="yes"/>
      <point x="113" y="309"/>
      <point x="111" y="186"/>
      <point x="104" y="51" type="curve"/>
      <point x="23" y="30" type="line"/>
      <point x="33" y="0" type="line"/>
      <point x="68" y="1"/>
      <point x="95" y="3"/>
      <point x="128" y="3" type="curve" smooth="yes"/>
      <point x="166" y="3"/>
      <point x="209" y="2"/>
      <point x="251" y="0" type="curve"/>
      <point x="262" y="30" type="line"/>
      <point x="179" y="51" type="line"/>
      <point x="173" y="202"/>
      <point x="171" y="304"/>
      <point x="171" y="432" type="curve" smooth="yes"/>
      <point x="171" y="485"/>
      <point x="171" y="542"/>
      <point x="172" y="608" type="curve"/>
    </contour>
    <contour>
      <point x="692" y="660" type="line"/>
      <point x="656" y="658"/>
      <point x="618" y="656"/>
      <point x="583" y="656" type="curve" smooth="yes"/>
      <point x="540" y="656"/>
      <point x="509" y="659"/>
      <point x="468" y="660" type="curve"/>
      <point x="460" y="629" type="line"/>
      <point x="544" y="608" type="line"/>
      <point x="551" y="453"/>
      <point x="557" y="250"/>
      <point x="557" y="33" type="curve"/>
      <point x="565" y="-9" type="line"/>
      <point x="611" y="-9" type="line"/>
      <point x="611" y="35"/>
      <point x="611" y="77"/>
      <point x="611" y="118" type="curve" smooth="yes"/>
      <point x="611" y="282"/>
      <point x="613" y="426"/>
      <point x="619" y="608" type="curve"/>
      <point x="702" y="629" type="line"/>
    </contour>
  </outline>
</glyph>
<glyph name="S" format="2">
  <advance width="542"/>
  <unicode hex="0053"/>
  <anchor x="271" y="0" name="bottom"/>
  <anchor x="271" y="660" name="top"/>
  <outline>
    <contour>
      <point x="414" y="649"/>
      <point x="347" y="665"/>
      <point x="283" y="665" type="curve" smooth="yes"/>
      <point x="148" y="665"/>
      <point x="66" y="603"/>
      <point x="66" y="499" type="curve" smooth="yes"/>
      <point x="66" y="296"/>
      <point x="396" y="318"/>
      <point x="396" y="160" type="curve" smooth="yes"/>
      <point x="396" y="81"/>
      <point x="347" y="40"/>
      <point x="266" y="40" type="curve" smooth="yes"/>
      <point x="222" y="40"/>
      <point x="178" y="55"/>
      <point x="145" y="86" type="curve"/>
      <point x="130" y="205" type="line"/>
      <point x="83" y="205" type="line"/>
      <point x="75" y="139"/>
      <point x="68" y="107"/>
      <point x="55" y="47" type="curve"/>
      <point x="109" y="11"/>
      <point x="186" y="-9"/>
      <point x="268" y="-9" type="curve" smooth="yes"/>
      <point x="367" y="-9"/>
      <point x="487" y="36"/>
      <point x="487" y="172" type="curve" smooth="yes"/>
      <point x="487" y="393"/>
      <point x="153" y="365"/>
      <point x="153" y="518" type="curve" smooth="yes"/>
      <point x="153" y="577"/>
      <point x="198" y="616"/>
      <point x="264" y="616" type="curve" smooth="yes"/>
      <point x="314" y="616"/>
      <point x="356" y="596"/>
      <point x="381" y="572" type="curve"/>
      <point x="391" y="472" type="line"/>
      <point x="438" y="472" type="line"/>
      <point x="445" y="524"/>
      <point x="451" y="546"/>
      <point x="467" y="621" type="curve"/>
    </contour>
  </outline>
</glyph>
<glyph name="W" format="2">
  <advance width="999"/>
  <unicode hex="0057"/>
  <outline>
    <contour>
      <point x="276" y="660" type="line"/>
      <point x="229" y="658"/>
      <point x="188" y="656"/>
      <point x="144" y="656" type="curve" smooth="yes"/>
      <point x="91" y="656"/>
      <point x="47" y="658"/>
      <point x="11" y="660" type="curve"/>
      <point x="0" y="629" type="line"/>
      <point x="89" y="608" type="line"/>
      <point x="165" y="399"/>
      <point x="215" y="241"/>
      <point x="289" y="-9" type="curve"/>
      <point x="332" y="-9" type="line"/>
      <point x="342" y="139" type="line"/>
      <point x="282" y="295"/>
      <point x="252" y="403"/>
      <point x="189" y="608" type="curve"/>
      <point x="287" y="629" type="line"/>
    </contour>
    <contour>
      <point x="530" y="660" type="line"/>
      <point x="494" y="660" type="line"/>
      <point x="439" y="442"/>
      <point x="377" y="272"/>
      <point x="303" y="72" type="curve"/>
      <point x="332" y="-9" type="line"/>
      <point x="394" y="194"/>
      <point x="445" y="313"/>
      <point x="513" y="494" type="curve"/>
    </contour>
    <contour>
      <point x="530" y="660" type="curve"/>
      <point x="494" y="660" type="line"/>
      <point x="476" y="513" type="line"/>
      <point x="546" y="344"/>
      <point x="599" y="197"/>
      <point x="664" y="-8" type="curve"/>
      <point x="687" y="26" type="line"/>
      <point x="712" y="127" type="line"/>
      <point x="641" y="320"/>
      <point x="598" y="437"/>
    </contour>
    <contour>
      <point x="982" y="660" type="line"/>
      <point x="946" y="658"/>
      <point x="913" y="656"/>
      <point x="866" y="656" type="curve" smooth="yes"/>
      <point x="832" y="656"/>
      <point x="777" y="658"/>
      <point x="732" y="660" type="curve"/>
      <point x="721" y="629" type="line"/>
      <point x="820" y="608" type="line"/>
      <point x="785" y="442"/>
      <point x="738" y="251"/>
      <point x="686" y="105" type="curve"/>
      <point x="664" y="-8" type="line"/>
      <point x="708" y="-8" type="line"/>
      <point x="784" y="259"/>
      <point x="832" y="421"/>
      <point x="896" y="608" type="curve"/>
      <point x="992" y="629" type="line"/>
    </contour>
  </outline>
</glyph>
<glyph name="i" format="2">
  <advance width="274"/>
  <unicode hex="0069"/>
  <anchor x="137" y="0" name="bottom"/>
  <anchor x="157" y="19" name="ogonek"/>
  <anchor x="139" y="490" name="top"/>
  <outline>
    <contour>
      <point x="184" y="434" type="curve"/>
      <point x="123" y="421"/>
      <point x="55" y="419"/>
      <point x="9" y="417" type="curve"/>
      <point x="19" y="388" type="line"/>
      <point x="92" y="375" type="line"/>
      <point x="97" y="299"/>
      <point x="97" y="272"/>
      <point x="98" y="226" type="curve" smooth="yes"/>
      <point x="98" y="167"/>
      <point x="98" y="113"/>
      <point x="96" y="48" type="curve"/>
      <point x="16" y="27" type="line"/>
      <point x="26" y="0" type="line"/>
      <point x="66" y="1"/>
      <point x="93" y="3"/>
      <point x="140" y="3" type="curve" smooth="yes"/>
      <point x="189" y="3"/>
      <point x="217" y="1"/>
      <point x="252" y="0" type="curve"/>
      <point x="263" y="27" type="line"/>
      <point x="184" y="48" type="line"/>
      <point x="183" y="97"/>
      <point x="180" y="179"/>
      <point x="180" y="228" type="curve" smooth="yes"/>
      <point x="180" y="296"/>
      <point x="181" y="358"/>
    </contour>
    <contour>
      <point x="138" y="539" type="curve" smooth="yes"/>
      <point x="168" y="539"/>
      <point x="194" y="566"/>
      <point x="194" y="600" type="curve" smooth="yes"/>
      <point x="194" y="632"/>
      <point x="168" y="659"/>
      <point x="138" y="659" type="curve" smooth="yes"/>
      <point x="106" y="659"/>
      <point x="82" y="632"/>
      <point x="82" y="600" type="curve" smooth="yes"/>
      <point x="82" y="566"/>
      <point x="106" y="539"/>
    </contour>
  </outline>
</glyph>
<glyph name="n" format="2">
  <advance width="553"/>
  <unicode hex="006E"/>
  <anchor x="285" y="0" name="bottom"/>
  <anchor x="285" y="430" name="top"/>
  <outline>
    <contour>
      <point x="330" y="436" type="curve" smooth="yes"/>
      <point x="240" y="436"/>
      <point x="149" y="305"/>
      <point x="145" y="216" type="curve"/>
      <point x="180" y="172" type="line"/>
      <point x="180" y="307"/>
      <point x="270" y="368"/>
      <point x="287" y="368" type="curve"/>
      <point x="342" y="368"/>
      <point x="380" y="326"/>
      <point x="380" y="265" type="curve" smooth="yes"/>
      <point x="380" y="179"/>
      <point x="380" y="136"/>
      <point x="375" y="48" type="curve"/>
      <point x="298" y="27" type="line"/>
      <point x="309" y="0" type="line"/>
      <point x="352" y="2"/>
      <point x="380" y="3"/>
      <point x="419" y="3" type="curve" smooth="yes"/>
      <point x="458" y="3"/>
      <point x="490" y="2"/>
      <point x="531" y="0" type="curve"/>
      <point x="542" y="27" type="line"/>
      <point x="463" y="48" type="line"/>
      <point x="463" y="133"/>
      <point x="464" y="193"/>
      <point x="464" y="279" type="curve" smooth="yes"/>
      <point x="464" y="374"/>
      <point x="411" y="436"/>
    </contour>
    <contour>
      <point x="178" y="435" type="curve"/>
      <point x="121" y="423"/>
      <point x="55" y="418"/>
      <point x="9" y="417" type="curve"/>
      <point x="20" y="386" type="line"/>
      <point x="92" y="372" type="line"/>
      <point x="97" y="297"/>
      <point x="100" y="272"/>
      <point x="101" y="226" type="curve" smooth="yes"/>
      <point x="102" y="167"/>
      <point x="98" y="113"/>
      <point x="96" y="48" type="curve"/>
      <point x="17" y="27" type="line"/>
      <point x="28" y="0" type="line"/>
      <point x="69" y="1"/>
      <point x="101" y="3"/>
      <point x="142" y="3" type="curve" smooth="yes"/>
      <point x="178" y="3"/>
      <point x="215" y="2"/>
      <point x="249" y="0" type="curve"/>
      <point x="261" y="27" type="line"/>
      <point x="184" y="48" type="line"/>
      <point x="179" y="289" type="line"/>
      <point x="178" y="349"/>
      <point x="178" y="367"/>
    </contour>
  </outline>
</glyph>
<glyph name="asciitilde" format="2">
  <advance width="548"/>
  <unicode hex="007E"/>
  <outline>
    <contour>
      <point x="375" y="220" type="curve" smooth="yes"/>
      <point x="427" y="220"/>
      <point x="474" y="288"/>
      <point x="523" y="345" type="curve"/>
      <point x="501" y="365" type="line"/>
      <point x="472" y="338"/>
      <point x="436" y="310"/>
      <point x="405" y="290" type="curve"/>
      <point x="340" y="290"/>
      <point x="261" y="379"/>
      <point x="196" y="379" type="curve" smooth="yes"/>
      <point x="123" y="379"/>
      <point x="63" y="291"/>
      <point x="25" y="251" type="curve"/>
      <point x="50" y="231" type="line"/>
      <point x="66" y="244"/>
      <point x="116" y="294"/>
      <point x="166" y="315" type="curve"/>
      <point x="214" y="315"/>
      <point x="306" y="220"/>
    </contour>
  </outline>
</glyph>
<glyph name="cent" format="2">
  <advance width="391"/>
  <unicode hex="00A2"/>
  <outline>
    <component base="c" xOffset="-15"/>
    <contour>
      <point x="255" y="-80" type="line"/>
      <point x="249" y="149"/>
      <point x="249" y="272"/>
      <point x="255" y="501" type="curve"/>
      <point x="202" y="501" type="line"/>
      <point x="208" y="272"/>
      <point x="208" y="149"/>
      <point x="202" y="-80" type="curve"/>
    </contour>
  </outline>
</glyph>
<glyph name="sterling" format="2">
  <advance width="541"/>
  <unicode hex="00A3"/>
  <outline>
    <contour>
      <point x="505" y="0" type="curve"/>
      <point x="500" y="70"/>
      <point x="497" y="114"/>
      <point x="496" y="184" type="curve"/>
      <point x="448" y="184" type="line"/>
      <point x="428" y="70" type="line"/>
      <point x="382" y="56"/>
      <point x="360" y="50"/>
      <point x="315" y="50" type="curve" smooth="yes"/>
      <point x="267" y="50"/>
      <point x="239" y="55"/>
      <point x="190" y="60" type="curve"/>
      <point x="237" y="98"/>
      <point x="278" y="144"/>
      <point x="278" y="197" type="curve" smooth="yes"/>
      <point x="278" y="310"/>
      <point x="207" y="407"/>
      <point x="207" y="513" type="curve" smooth="yes"/>
      <point x="207" y="547"/>
      <point x="213" y="591"/>
      <point x="254" y="629" type="curve"/>
      <point x="319" y="623"/>
      <point x="389" y="587"/>
      <point x="411" y="498" type="curve"/>
      <point x="440" y="498" type="line"/>
      <point x="462" y="532"/>
      <point x="476" y="565"/>
      <point x="479" y="615" type="curve"/>
      <point x="420" y="661"/>
      <point x="358" y="671"/>
      <point x="306" y="671" type="curve" smooth="yes"/>
      <point x="200" y="671"/>
      <point x="117" y="596"/>
      <point x="117" y="494" type="curve" smooth="yes"/>
      <point x="117" y="363"/>
      <point x="194" y="256"/>
      <point x="194" y="171" type="curve" smooth="yes"/>
      <point x="194" y="126"/>
      <point x="151" y="77"/>
      <point x="122" y="50" type="curve"/>
      <point x="45" y="30" type="line"/>
      <point x="56" y="0" type="line"/>
      <point x="171" y="2"/>
      <point x="340" y="2"/>
    </contour>
    <contour>
      <point x="35" y="308" type="line"/>
      <point x="108" y="311"/>
      <point x="154" y="312"/>
      <point x="211" y="312" type="curve" smooth="yes"/>
      <point x="267" y="312"/>
      <point x="324" y="311"/>
      <point x="396" y="308" type="curve"/>
      <point x="396" y="361" type="line"/>
      <point x="324" y="358"/>
      <point x="267" y="357"/>
      <point x="211" y="357" type="curve" smooth="yes"/>
      <point x="154" y="357"/>
      <point x="108" y="358"/>
      <point x="35" y="361" type="curve"/>
    </contour>
  </outline>
</glyph>
<glyph name="currency" format="2">
  <advance width="463"/>
  <unicode hex="00A4"/>
  <outline>
    <contour>
      <point x="231" y="170" type="curve" smooth="yes"/>
      <point x="334" y="170"/>
      <point x="386" y="246"/>
      <point x="386" y="323" type="curve" smooth="yes"/>
      <point x="386" y="398"/>
      <point x="335" y="473"/>
      <point x="233" y="473" type="curve" smooth="yes"/>
      <point x="126" y="473"/>
      <point x="73" y="397"/>
      <point x="73" y="322" type="curve" smooth="yes"/>
      <point x="73" y="246"/>
      <point x="126" y="170"/>
    </contour>
    <contour>
      <point x="230" y="228" type="curve" smooth="yes"/>
      <point x="165" y="229"/>
      <point x="132" y="276"/>
      <point x="132" y="323" type="curve" smooth="yes"/>
      <point x="132" y="369"/>
      <point x="164" y="414"/>
      <point x="227" y="415" type="curve" smooth="yes"/>
      <point x="292" y="414"/>
      <point x="324" y="368"/>
      <point x="324" y="321" type="curve" smooth="yes"/>
      <point x="324" y="275"/>
      <point x="293" y="229"/>
    </contour>
    <contour>
      <point x="39" y="461" type="curve"/>
      <point x="64" y="440"/>
      <point x="85" y="419"/>
      <point x="107" y="396" type="curve"/>
      <point x="157" y="447" type="line"/>
      <point x="133" y="466"/>
      <point x="111" y="489"/>
      <point x="92" y="513" type="curve"/>
      <point x="75" y="495"/>
      <point x="58" y="477"/>
    </contour>
    <contour>
      <point x="372" y="128" type="curve"/>
      <point x="388" y="147"/>
      <point x="405" y="164"/>
      <point x="424" y="181" type="curve"/>
      <point x="400" y="200"/>
      <point x="377" y="222"/>
      <point x="358" y="246" type="curve"/>
      <point x="306" y="196" type="line"/>
      <point x="330" y="174"/>
      <point x="351" y="153"/>
    </contour>
    <contour>
      <point x="376" y="517" type="curve"/>
      <point x="354" y="492"/>
      <point x="332" y="470"/>
      <point x="308" y="449" type="curve"/>
      <point x="360" y="398" type="line"/>
      <point x="380" y="422"/>
      <point x="403" y="444"/>
      <point x="428" y="465" type="curve"/>
      <point x="408" y="481"/>
      <point x="392" y="498"/>
    </contour>
    <contour>
      <point x="35" y="177" type="curve"/>
      <point x="55" y="160"/>
      <point x="71" y="144"/>
      <point x="88" y="124" type="curve"/>
      <point x="108" y="150"/>
      <point x="131" y="172"/>
      <point x="155" y="194" type="curve"/>
      <point x="105" y="244" type="line"/>
      <point x="82" y="220"/>
      <point x="60" y="198"/>
    </contour>
  </outline>
</glyph>
<glyph name="dieresis" format="2">
  <advance width="274"/>
  <unicode hex="00A8"/>
  <anchor x="137" y="430" name="_top"/>
  <outline>
    <contour>
      <point x="47" y="492" type="curve" smooth="yes"/>
      <point x="72" y="492"/>
      <point x="94" y="514"/>
      <point x="94" y="543" type="curve" smooth="yes"/>
      <point x="94" y="570"/>
      <point x="72" y="592"/>
      <point x="47" y="592" type="curve" smooth="yes"/>
      <point x="21" y="592"/>
      <point x="0" y="570"/>
      <point x="0" y="543" type="curve" smooth="yes"/>
      <point x="0" y="514"/>
      <point x="21" y="492"/>
    </contour>
    <contour>
      <point x="227" y="492" type="curve" smooth="yes"/>
      <point x="252" y="492"/>
      <point x="274" y="514"/>
      <point x="274" y="543" type="curve" smooth="yes"/>
      <point x="274" y="570"/>
      <point x="252" y="592"/>
      <point x="227" y="592" type="curve" smooth="yes"/>
      <point x="201" y="592"/>
      <point x="180" y="570"/>
      <point x="180" y="543" type="curve" smooth="yes"/>
      <point x="180" y="514"/>
      <point x="201" y="492"/>
    </contour>
  </outline>
</glyph>
<glyph name="copyright" format="2">
  <advance width="698"/>
  <unicode hex="00A9"/>
  <outline>
    <contour>
      <point x="351" y="39" type="curve" smooth="yes"/>
      <point x="197" y="39"/>
      <point x="63" y="169"/>
      <point x="63" y="327" type="curve" smooth="yes"/>
      <point x="63" y="480"/>
      <point x="193" y="610"/>
      <point x="351" y="610" type="curve" smooth="yes"/>
      <point x="504" y="610"/>
      <point x="634" y="480"/>
      <point x="634" y="327" type="curve" smooth="yes"/>
      <point x="634" y="169"/>
      <point x="504" y="39"/>
    </contour>
    <contour>
      <point x="350" y="1" type="curve" smooth="yes"/>
      <point x="527" y="1"/>
      <point x="673" y="146"/>
      <point x="673" y="326" type="curve" smooth="yes"/>
      <point x="673" y="503"/>
      <point x="527" y="649"/>
      <point x="350" y="649" type="curve" smooth="yes"/>
      <point x="170" y="649"/>
      <point x="25" y="503"/>
      <point x="25" y="326" type="curve" smooth="yes"/>
      <point x="25" y="146"/>
      <point x="170" y="1"/>
    </contour>
    <component base="c.sc" xScale="0.8" yScale="0.8" xOffset="124" yOffset="121"/>
  </outline>
</glyph>
<glyph name="ordfeminine" format="2">
  <advance width="349"/>
  <unicode hex="00AA"/>
  <outline>
    <component base="a" xScale="0.751" yScale="0.751" xOffset="-15" yOffset="352"/>
    <contour>
      <point x="23" y="316" type="curve"/>
      <point x="23" y="284" type="line"/>
      <point x="100" y="286"/>
      <point x="225" y="286"/>
      <point x="302" y="284" type="curve"/>
      <point x="302" y="316" type="line"/>
      <point x="225" y="314"/>
      <point x="100" y="314"/>
    </contour>
  </outline>
</glyph>
<glyph name="registered" format="2">
  <advance width="698"/>
  <unicode hex="00AE"/>
  <outline>
    <contour>
      <point x="351" y="39" type="curve" smooth="yes"/>
      <point x="197" y="39"/>
      <point x="63" y="169"/>
      <point x="63" y="327" type="curve" smooth="yes"/>
      <point x="63" y="480"/>
      <point x="193" y="610"/>
      <point x="351" y="610" type="curve" smooth="yes"/>
      <point x="504" y="610"/>
      <point x="634" y="480"/>
      <point x="634" y="327" type="curve" smooth="yes"/>
      <point x="634" y="169"/>
      <point x="504" y="39"/>
    </contour>
    <contour>
      <point x="350" y="1" type="curve" smooth="yes"/>
      <point x="527" y="1"/>
      <point x="673" y="146"/>
      <point x="673" y="326" type="curve" smooth="yes"/>
      <point x="673" y="503"/>
      <point x="527" y="649"/>
      <point x="350" y="649" type="curve" smooth="yes"/>
      <point x="170" y="649"/>
      <point x="25" y="503"/>
      <point x="25" y="326" type="curve" smooth="yes"/>
      <point x="25" y="146"/>
      <point x="170" y="1"/>
    </contour>
    <contour>
      <point x="363" y="528" type="curve" smooth="yes"/>
      <point x="323" y="528"/>
      <point x="306" y="524"/>
      <point x="259" y="524" type="curve" smooth="yes"/>
      <point x="223" y="524"/>
      <point x="197" y="524"/>
      <point x="165" y="528" type="curve"/>
      <point x="157" y="504" type="line"/>
      <point x="224" y="488" type="line"/>
      <point x="227" y="435"/>
      <point x="228" y="385"/>
      <point x="228" y="336" type="curve" smooth="yes"/>
      <point x="228" y="280"/>
      <point x="226" y="227"/>
      <point x="224" y="177" type="curve"/>
      <point x="157" y="162" type="line"/>
      <point x="165" y="139" type="line"/>
      <point x="196" y="140"/>
      <point x="229" y="141"/>
      <point x="260" y="141" type="curve" smooth="yes"/>
      <point x="298" y="141"/>
      <point x="325" y="140"/>
      <point x="352" y="139" type="curve"/>
      <point x="360" y="162" type="line"/>
      <point x="294" y="177" type="line"/>
      <point x="292" y="224"/>
      <point x="292" y="277"/>
      <point x="292" y="330" type="curve" smooth="yes"/>
      <point x="292" y="383"/>
      <point x="292" y="435"/>
      <point x="294" y="483" type="curve"/>
      <point x="306" y="488"/>
      <point x="318" y="492"/>
      <point x="339" y="492" type="curve" smooth="yes"/>
      <point x="384" y="492"/>
      <point x="410" y="452"/>
      <point x="410" y="414" type="curve" smooth="yes"/>
      <point x="410" y="385"/>
      <point x="396" y="354"/>
      <point x="372" y="340" type="curve"/>
      <point x="366" y="339"/>
      <point x="359" y="339"/>
      <point x="352" y="339" type="curve" smooth="yes"/>
      <point x="330" y="339"/>
      <point x="306" y="342"/>
      <point x="280" y="348" type="curve"/>
      <point x="280" y="312" type="line"/>
      <point x="310" y="307"/>
      <point x="311" y="306"/>
      <point x="345" y="306" type="curve" smooth="yes"/>
      <point x="434" y="306"/>
      <point x="478" y="368"/>
      <point x="478" y="423" type="curve" smooth="yes"/>
      <point x="478" y="476"/>
      <point x="438" y="528"/>
    </contour>
    <contour>
      <point x="380" y="324" type="curve"/>
      <point x="373" y="324"/>
      <point x="338" y="313"/>
      <point x="314" y="313" type="curve"/>
      <point x="349" y="263"/>
      <point x="382" y="214"/>
      <point x="420" y="139" type="curve"/>
      <point x="444" y="140"/>
      <point x="454" y="140"/>
      <point x="475" y="140" type="curve" smooth="yes"/>
      <point x="502" y="140"/>
      <point x="518" y="140"/>
      <point x="536" y="139" type="curve"/>
      <point x="544" y="162" type="line"/>
      <point x="486" y="177" type="line"/>
      <point x="438" y="240"/>
      <point x="409" y="284"/>
    </contour>
  </outline>
</glyph>
<glyph name="plusminus" format="2">
  <advance width="521"/>
  <unicode hex="00B1"/>
  <outline>
    <contour>
      <point x="496" y="441" type="line"/>
      <point x="355" y="438"/>
      <point x="166" y="438"/>
      <point x="25" y="441" type="curve"/>
      <point x="25" y="378" type="line"/>
      <point x="166" y="381"/>
      <point x="355" y="381"/>
      <point x="496" y="378" type="curve"/>
    </contour>
    <contour>
      <point x="292" y="214" type="line"/>
      <point x="289" y="331"/>
      <point x="289" y="488"/>
      <point x="292" y="605" type="curve"/>
      <point x="229" y="605" type="line"/>
      <point x="232" y="488"/>
      <point x="232" y="331"/>
      <point x="229" y="214" type="curve"/>
    </contour>
    <contour>
      <point x="496" y="174" type="line"/>
      <point x="355" y="171"/>
      <point x="166" y="171"/>
      <point x="25" y="174" type="curve"/>
      <point x="25" y="111" type="line"/>
      <point x="166" y="114"/>
      <point x="355" y="114"/>
      <point x="496" y="111" type="curve"/>
    </contour>
  </outline>
</glyph>
<glyph name="threesuperior" format="2">
  <advance width="370"/>
  <unicode hex="00B3"/>
  <outline>
    <contour>
      <point x="155" y="247" type="curve" smooth="yes"/>
      <point x="267" y="247"/>
      <point x="325" y="312"/>
      <point x="325" y="379" type="curve" smooth="yes"/>
      <point x="325" y="432"/>
      <point x="288" y="487"/>
      <point x="212" y="509" type="curve"/>
      <point x="239" y="537"/>
      <point x="282" y="577"/>
      <point x="312" y="613" type="curve"/>
      <point x="296" y="660" type="line"/>
      <point x="252" y="659"/>
      <point x="224" y="659"/>
      <point x="177" y="659" type="curve" smooth="yes"/>
      <point x="133" y="659"/>
      <point x="95" y="659"/>
      <point x="51" y="660" type="curve"/>
      <point x="52" y="646"/>
      <point x="53" y="625"/>
      <point x="53" y="602" type="curve" smooth="yes"/>
      <point x="53" y="573"/>
      <point x="52" y="550"/>
      <point x="51" y="525" type="curve"/>
      <point x="84" y="525" type="line"/>
      <point x="91" y="551"/>
      <point x="99" y="575"/>
      <point x="106" y="594" type="curve"/>
      <point x="129" y="596"/>
      <point x="146" y="596"/>
      <point x="168" y="596" type="curve" smooth="yes"/>
      <point x="187" y="596"/>
      <point x="207" y="596"/>
      <point x="233" y="595" type="curve"/>
      <point x="213" y="561"/>
      <point x="166" y="516"/>
      <point x="134" y="490" type="curve"/>
      <point x="141" y="470" type="line"/>
      <point x="211" y="459"/>
      <point x="247" y="414"/>
      <point x="247" y="371" type="curve" smooth="yes"/>
      <point x="247" y="330"/>
      <point x="213" y="291"/>
      <point x="145" y="291" type="curve" smooth="yes"/>
      <point x="114" y="291"/>
      <point x="79" y="300"/>
      <point x="47" y="316" type="curve"/>
      <point x="40" y="280" type="line"/>
      <point x="74" y="259"/>
      <point x="116" y="247"/>
    </contour>
  </outline>
</glyph>
<glyph name="cedilla" format="2">
  <advance width="157"/>
  <unicode hex="00B8"/>
  <outline>
    <contour>
      <point x="47" y="3" type="line"/>
      <point x="14" y="-108" type="line"/>
      <point x="77" y="-116"/>
      <point x="92" y="-133"/>
      <point x="95" y="-149" type="curve"/>
      <point x="82" y="-174"/>
      <point x="51" y="-199"/>
      <point x="5" y="-229" type="curve"/>
      <point x="23" y="-260" type="line"/>
      <point x="133" y="-193"/>
      <point x="157" y="-157"/>
      <point x="157" y="-126" type="curve" smooth="yes"/>
      <point x="157" y="-97"/>
      <point x="140" y="-73"/>
      <point x="75" y="-54" type="curve"/>
      <point x="85" y="3" type="line"/>
    </contour>
  </outline>
</glyph>
<glyph name="ordmasculine" format="2">
  <advance width="358"/>
  <unicode hex="00BA"/>
  <outline>
    <component base="o" xScale="0.751" yScale="0.751" xOffset="-5" yOffset="357"/>
    <contour>
      <point x="36" y="316" type="curve"/>
      <point x="36" y="284" type="line"/>
      <point x="113" y="286"/>
      <point x="238" y="286"/>
      <point x="315" y="284" type="curve"/>
      <point x="315" y="316" type="line"/>
      <point x="238" y="314"/>
      <point x="113" y="314"/>
    </contour>
  </outline>
</glyph>
<glyph name="onehalf" format="2">
  <advance width="809"/>
  <unicode hex="00BD"/>
  <outline>
    <contour>
      <point x="711" y="693" type="line"/>
      <point x="649" y="693" type="line"/>
      <point x="102" y="-48" type="line"/>
      <point x="163" y="-48" type="line"/>
    </contour>
    <contour>
      <point x="203" y="690" type="curve"/>
      <point x="178" y="690" type="line"/>
      <point x="118" y="650"/>
      <point x="81" y="640"/>
      <point x="20" y="633" type="curve"/>
      <point x="35" y="599" type="line"/>
      <point x="123" y="600" type="line"/>
      <point x="126" y="533"/>
      <point x="127" y="506"/>
      <point x="127" y="471" type="curve" smooth="yes"/>
      <point x="127" y="418"/>
      <point x="127" y="357"/>
      <point x="126" y="320" type="curve"/>
      <point x="41" y="298" type="line"/>
      <point x="50" y="271" type="line"/>
      <point x="81" y="271"/>
      <point x="127" y="273"/>
      <point x="164" y="273" type="curve" smooth="yes"/>
      <point x="200" y="273"/>
      <point x="239" y="272"/>
      <point x="270" y="271" type="curve"/>
      <point x="279" y="298" type="line"/>
      <point x="203" y="320" type="line"/>
      <point x="201" y="370"/>
      <point x="201" y="432"/>
      <point x="201" y="476" type="curve" smooth="yes"/>
      <point x="201" y="536"/>
      <point x="201" y="607"/>
    </contour>
    <contour>
      <point x="495" y="320" type="curve"/>
      <point x="513" y="289" type="line"/>
      <point x="556" y="333"/>
      <point x="596" y="350"/>
      <point x="627" y="350" type="curve" smooth="yes"/>
      <point x="668" y="350"/>
      <point x="694" y="322"/>
      <point x="694" y="287" type="curve" smooth="yes"/>
      <point x="694" y="210"/>
      <point x="636" y="153"/>
      <point x="502" y="23" type="curve"/>
      <point x="514" y="0" type="line"/>
      <point x="553" y="2"/>
      <point x="605" y="3"/>
      <point x="628" y="3" type="curve" smooth="yes"/>
      <point x="688" y="3"/>
      <point x="732" y="2"/>
      <point x="786" y="0" type="curve"/>
      <point x="787" y="27"/>
      <point x="788" y="59"/>
      <point x="789" y="79" type="curve"/>
      <point x="704" y="65"/>
      <point x="655" y="65"/>
      <point x="568" y="63" type="curve"/>
      <point x="554" y="32" type="line"/>
      <point x="707" y="157"/>
      <point x="779" y="215"/>
      <point x="779" y="307" type="curve" smooth="yes"/>
      <point x="779" y="369"/>
      <point x="728" y="417"/>
      <point x="660" y="417" type="curve" smooth="yes"/>
      <point x="610" y="417"/>
      <point x="551" y="390"/>
    </contour>
  </outline>
</glyph>
<glyph name="AE" format="2">
  <advance width="892"/>
  <unicode hex="00C6"/>
  <anchor x="556" y="660" name="top"/>
  <outline>
    <contour>
      <point x="463" y="600" type="curve"/>
      <point x="415" y="633" type="line"/>
      <point x="342" y="497"/>
      <point x="156" y="171"/>
      <point x="74" y="50" type="curve"/>
      <point x="-4" y="30" type="line"/>
      <point x="7" y="0" type="line"/>
      <point x="42" y="2"/>
      <point x="64" y="3"/>
      <point x="108" y="3" type="curve" smooth="yes"/>
      <point x="143" y="3"/>
      <point x="183" y="2"/>
      <point x="224" y="0" type="curve"/>
      <point x="235" y="30" type="line"/>
      <point x="156" y="50" type="line"/>
      <point x="184" y="131"/>
      <point x="414" y="535"/>
    </contour>
    <contour>
      <point x="471" y="230" type="line"/>
      <point x="415" y="226"/>
      <point x="367" y="224"/>
      <point x="324" y="224" type="curve" smooth="yes"/>
      <point x="280" y="224"/>
      <point x="242" y="226"/>
      <point x="191" y="228" type="curve"/>
      <point x="191" y="168" type="line"/>
      <point x="242" y="170"/>
      <point x="280" y="172"/>
      <point x="324" y="172" type="curve" smooth="yes"/>
      <point x="367" y="172"/>
      <point x="415" y="170"/>
      <point x="471" y="168" type="curve"/>
    </contour>
    <contour>
      <point x="861" y="0" type="curve"/>
      <point x="855" y="66"/>
      <point x="852" y="126"/>
      <point x="852" y="185" type="curve"/>
      <point x="805" y="185" type="line"/>
      <point x="785" y="70" type="line"/>
      <point x="689" y="43"/>
      <point x="615" y="49"/>
      <point x="537" y="55" type="curve"/>
      <point x="536" y="115"/>
      <point x="535" y="257"/>
      <point x="535" y="343" type="curve" smooth="yes"/>
      <point x="535" y="420"/>
      <point x="537" y="468"/>
      <point x="537" y="601" type="curve"/>
      <point x="609" y="609"/>
      <point x="709" y="609"/>
      <point x="774" y="586" type="curve"/>
      <point x="793" y="475" type="line"/>
      <point x="840" y="475" type="line"/>
      <point x="840" y="524"/>
      <point x="846" y="598"/>
      <point x="849" y="660" type="curve"/>
      <point x="779" y="658"/>
      <point x="662" y="657"/>
      <point x="551" y="657" type="curve" smooth="yes"/>
      <point x="469" y="657"/>
      <point x="391" y="657"/>
      <point x="336" y="660" type="curve"/>
      <point x="325" y="629" type="line"/>
      <point x="444" y="608" type="line"/>
      <point x="448" y="542"/>
      <point x="449" y="462"/>
      <point x="449" y="376" type="curve" smooth="yes"/>
      <point x="449" y="269"/>
      <point x="447" y="154"/>
      <point x="444" y="51" type="curve"/>
      <point x="356" y="30" type="line"/>
      <point x="366" y="0" type="line"/>
      <point x="400" y="1"/>
      <point x="441" y="3"/>
      <point x="492" y="3" type="curve" smooth="yes"/>
      <point x="653" y="3"/>
      <point x="696" y="3"/>
    </contour>
    <contour>
      <point x="703" y="371" type="line"/>
      <point x="657" y="369"/>
      <point x="625" y="367"/>
      <point x="593" y="367" type="curve" smooth="yes"/>
      <point x="561" y="367"/>
      <point x="530" y="369"/>
      <point x="483" y="371" type="curve"/>
      <point x="483" y="310" type="line"/>
      <point x="527" y="312"/>
      <point x="559" y="313"/>
      <point x="591" y="313" type="curve" smooth="yes"/>
      <point x="623" y="313"/>
      <point x="656" y="312"/>
      <point x="703" y="310" type="curve"/>
    </contour>
    <contour>
      <point x="737" y="460" type="curve"/>
      <point x="690" y="460" type="line"/>
      <point x="670" y="362" type="line"/>
      <point x="670" y="320" type="line"/>
      <point x="690" y="222" type="line"/>
      <point x="737" y="222" type="line"/>
      <point x="735" y="250"/>
      <point x="734" y="287"/>
      <point x="734" y="331" type="curve" smooth="yes"/>
      <point x="734" y="374"/>
      <point x="735" y="420"/>
    </contour>
  </outline>
</glyph>
<glyph name="Eth" format="2">
  <advance width="699"/>
  <unicode hex="00D0"/>
  <anchor x="350" y="679" name="top"/>
  <outline>
    <component base="D"/>
    <contour>
      <point x="26" y="360" type="curve"/>
      <point x="26" y="299" type="line"/>
      <point x="114" y="301"/>
      <point x="275" y="301"/>
      <point x="363" y="299" type="curve"/>
      <point x="363" y="360" type="line"/>
      <point x="275" y="356"/>
      <point x="114" y="356"/>
    </contour>
  </outline>
</glyph>
<glyph name="germandbls" format="2">
  <advance width="571"/>
  <unicode hex="00DF"/>
  <anchor x="286" y="-20" name="bottom"/>
  <anchor x="326" y="787" name="top"/>
  <outline>
    <contour>
      <point x="338" y="341" type="curve" smooth="yes"/>
      <point x="338" y="426"/>
      <point x="499" y="427"/>
      <point x="499" y="581" type="curve" smooth="yes"/>
      <point x="499" y="661"/>
      <point x="448" y="739"/>
      <point x="342" y="739" type="curve" smooth="yes"/>
      <point x="178" y="739"/>
      <point x="121" y="570"/>
      <point x="121" y="457" type="curve" smooth="yes"/>
      <point x="121" y="96"/>
      <point x="118" y="66"/>
      <point x="113" y="51" type="curve"/>
      <point x="33" y="27" type="line"/>
      <point x="43" y="0" type="line"/>
      <point x="86" y="1"/>
      <point x="95" y="2"/>
      <point x="124" y="2" type="curve" smooth="yes"/>
      <point x="156" y="2"/>
      <point x="177" y="1"/>
      <point x="194" y="0" type="curve"/>
      <point x="201" y="23"/>
      <point x="204" y="40"/>
      <point x="204" y="89" type="curve" smooth="yes"/>
      <point x="204" y="161"/>
      <point x="202" y="350"/>
      <point x="202" y="452" type="curve" smooth="yes"/>
      <point x="202" y="596"/>
      <point x="238" y="659"/>
      <point x="277" y="691" type="curve"/>
      <point x="390" y="691"/>
      <point x="415" y="615"/>
      <point x="415" y="562" type="curve" smooth="yes"/>
      <point x="415" y="413"/>
      <point x="258" y="447"/>
      <point x="258" y="319" type="curve" smooth="yes"/>
      <point x="258" y="179"/>
      <point x="460" y="208"/>
      <point x="460" y="97" type="curve" smooth="yes"/>
      <point x="460" y="54"/>
      <point x="425" y="32"/>
      <point x="387" y="32" type="curve" smooth="yes"/>
      <point x="359" y="32"/>
      <point x="331" y="44"/>
      <point x="313" y="67" type="curve"/>
      <point x="300" y="140" type="line"/>
      <point x="268" y="140" type="line"/>
      <point x="263" y="100"/>
      <point x="260" y="70"/>
      <point x="250" y="20" type="curve"/>
      <point x="292" y="0"/>
      <point x="339" y="-11"/>
      <point x="384" y="-11" type="curve" smooth="yes"/>
      <point x="471" y="-11"/>
      <point x="546" y="30"/>
      <point x="546" y="120" type="curve" smooth="yes"/>
      <point x="546" y="263"/>
      <point x="338" y="252"/>
    </contour>
  </outline>
</glyph>
<glyph name="eth" format="2">
  <advance width="473"/>
  <unicode hex="00F0"/>
  <anchor x="242" y="222" name="center"/>
  <anchor x="500" y="575" name="topright"/>
  <outline>
    <contour>
      <point x="440" y="252" type="curve" smooth="yes"/>
      <point x="440" y="474"/>
      <point x="365" y="582"/>
      <point x="248" y="729" type="curve"/>
      <point x="199" y="705"/>
      <point x="135" y="679"/>
      <point x="89" y="671" type="curve"/>
      <point x="100" y="641" type="line"/>
      <point x="191" y="655" type="line"/>
      <point x="258" y="578"/>
      <point x="355" y="446"/>
      <point x="356" y="236" type="curve"/>
      <point x="356" y="95"/>
      <point x="309" y="39"/>
      <point x="259" y="39" type="curve" smooth="yes"/>
      <point x="177" y="39"/>
      <point x="133" y="139"/>
      <point x="133" y="227" type="curve" smooth="yes"/>
      <point x="133" y="294"/>
      <point x="152" y="368"/>
      <point x="200" y="394" type="curve"/>
      <point x="274" y="399"/>
      <point x="356" y="323"/>
      <point x="356" y="259" type="curve"/>
      <point x="389" y="311" type="line"/>
      <point x="376" y="379"/>
      <point x="297" y="435"/>
      <point x="227" y="435" type="curve" smooth="yes"/>
      <point x="133" y="435"/>
      <point x="35" y="360"/>
      <point x="35" y="216" type="curve" smooth="yes"/>
      <point x="35" y="62"/>
      <point x="153" y="-15"/>
      <point x="277" y="-5" type="curve" smooth="yes"/>
      <point x="366" y="2"/>
      <point x="440" y="98"/>
    </contour>
    <contour>
      <point x="119" y="550" type="curve"/>
      <point x="130" y="490" type="line"/>
      <point x="216" y="508"/>
      <point x="355" y="533"/>
      <point x="442" y="547" type="curve"/>
      <point x="431" y="607" type="line"/>
      <point x="345" y="588"/>
      <point x="207" y="562"/>
    </contour>
  </outline>
</glyph>
<glyph name="oslash" format="2">
  <advance width="478"/>
  <unicode hex="00F8"/>
  <anchor x="229" y="430" name="top"/>
  <outline>
    <contour>
      <point x="435" y="414" type="line"/>
      <point x="396" y="443" type="line"/>
      <point x="50" y="14" type="line"/>
      <point x="90" y="-15" type="line"/>
    </contour>
    <component base="o"/>
  </outline>
</glyph>
<glyph name="amacron" format="2">
  <advance width="477"/>
  <unicode hex="0101"/>
  <anchor x="356" y="9" name="ogonek"/>
  <anchor x="218" y="430" name="top"/>
  <outline>
    <contour>
      <point x="265" y="435" type="curve" smooth="yes"/>
      <point x="201" y="435"/>
      <point x="124" y="405"/>
      <point x="57" y="351" type="curve"/>
      <point x="77" y="318" type="line"/>
      <point x="133" y="349"/>
      <point x="183" y="371"/>
      <point x="240" y="376" type="curve"/>
      <point x="285" y="365"/>
      <point x="300" y="321"/>
      <point x="300" y="267" type="curve" smooth="yes"/>
      <point x="300" y="232"/>
      <point x="297" y="176"/>
      <point x="297" y="115" type="curve" smooth="yes"/>
      <point x="297" y="55"/>
      <point x="306" y="-4"/>
      <point x="356" y="-4" type="curve"/>
      <point x="387" y="-4"/>
      <point x="442" y="28"/>
      <point x="466" y="47" type="curve"/>
      <point x="453" y="74" type="line"/>
      <point x="434" y="67"/>
      <point x="420" y="62"/>
      <point x="409" y="62" type="curve" smooth="yes"/>
      <point x="387" y="62"/>
      <point x="382" y="84"/>
      <point x="382" y="144" type="curve" smooth="yes"/>
      <point x="382" y="196"/>
      <point x="387" y="250"/>
      <point x="387" y="297" type="curve" smooth="yes"/>
      <point x="387" y="374"/>
      <point x="340" y="435"/>
    </contour>
    <contour>
      <point x="302" y="258" type="curve"/>
      <point x="302" y="230"/>
      <point x="274" y="230"/>
      <point x="220" y="219" type="curve" smooth="yes"/>
      <point x="160" y="208"/>
      <point x="46" y="191"/>
      <point x="46" y="112" type="curve" smooth="yes"/>
      <point x="46" y="45"/>
      <point x="88" y="-6"/>
      <point x="146" y="-6" type="curve" smooth="yes"/>
      <point x="201" y="-6"/>
      <point x="277" y="35"/>
      <point x="320" y="84" type="curve"/>
      <point x="319" y="131" type="line"/>
      <point x="272" y="83"/>
      <point x="213" y="61"/>
      <point x="180" y="61" type="curve" smooth="yes"/>
      <point x="158" y="61"/>
      <point x="135" y="79"/>
      <point x="135" y="117" type="curve" smooth="yes"/>
      <point x="135" y="133"/>
      <point x="140" y="147"/>
      <point x="151" y="157" type="curve"/>
      <point x="192" y="174"/>
      <point x="267" y="179"/>
      <point x="300" y="193" type="curve"/>
      <point x="302" y="202"/>
      <point x="303" y="209"/>
      <point x="303" y="217" type="curve" smooth="yes"/>
      <point x="303" y="229"/>
      <point x="302" y="244"/>
    </contour>
    <contour>
      <point x="88" y="578" type="curve"/>
      <point x="88" y="517" type="line"/>
      <point x="176" y="519"/>
      <point x="263" y="519"/>
      <point x="351" y="517" type="curve"/>
      <point x="351" y="578" type="line"/>
      <point x="263" y="574"/>
      <point x="176" y="574"/>
    </contour>
  </outline>
</glyph>
<glyph name="Dcroat" format="2">
  <advance width="699"/>
  <unicode hex="0110"/>
  <anchor x="350" y="679" name="top"/>
  <outline>
    <contour>
      <point x="26" y="360" type="curve"/>
      <point x="26" y="299" type="line"/>
      <point x="114" y="301"/>
      <point x="275" y="301"/>
      <point x="363" y="299" type="curve"/>
      <point x="363" y="360" type="line"/>
      <point x="275" y="356"/>
      <point x="114" y="356"/>
    </contour>
    <component base="D"/>
  </outline>
</glyph>
<glyph name="umacron" format="2">
  <advance width="550"/>
  <unicode hex="016B"/>
  <anchor x="417" y="9" name="ogonek"/>
  <anchor x="266" y="430" name="top"/>
  <outline>
    <contour>
      <point x="219" y="-9" type="curve"/>
      <point x="311" y="-9"/>
      <point x="389" y="90"/>
      <point x="402" y="188" type="curve"/>
      <point x="376" y="231" type="line"/>
      <point x="376" y="131"/>
      <point x="294" y="69"/>
      <point x="263" y="61" type="curve"/>
      <point x="212" y="61"/>
      <point x="182" y="103"/>
      <point x="179" y="164" type="curve" smooth="yes"/>
      <point x="172" y="279"/>
      <point x="177" y="361"/>
      <point x="182" y="437" type="curve"/>
      <point x="125" y="428"/>
      <point x="57" y="419"/>
      <point x="11" y="418" type="curve"/>
      <point x="21" y="388" type="line"/>
      <point x="92" y="377" type="line"/>
      <point x="89" y="273"/>
      <point x="91" y="197"/>
      <point x="94" y="151" type="curve" smooth="yes"/>
      <point x="98" y="55"/>
      <point x="145" y="-9"/>
    </contour>
    <contour>
      <point x="374" y="0" type="curve"/>
      <point x="392" y="0"/>
      <point x="413" y="2"/>
      <point x="432" y="2" type="curve" smooth="yes"/>
      <point x="480" y="2"/>
      <point x="492" y="2"/>
      <point x="527" y="0" type="curve"/>
      <point x="539" y="27" type="line"/>
      <point x="465" y="48" type="line"/>
      <point x="459" y="119"/>
      <point x="456" y="162"/>
      <point x="455" y="207" type="curve" smooth="yes"/>
      <point x="454" y="258"/>
      <point x="457" y="315"/>
      <point x="459" y="379" type="curve"/>
      <point x="460" y="437" type="line"/>
      <point x="413" y="430"/>
      <point x="337" y="419"/>
      <point x="290" y="418" type="curve"/>
      <point x="299" y="388" type="line"/>
      <point x="371" y="376" type="line"/>
      <point x="377" y="145" type="line"/>
      <point x="371" y="78"/>
      <point x="374" y="68"/>
    </contour>
    <contour>
      <point x="136" y="578" type="curve"/>
      <point x="136" y="517" type="line"/>
      <point x="224" y="519"/>
      <point x="311" y="519"/>
      <point x="399" y="517" type="curve"/>
      <point x="399" y="578" type="line"/>
      <point x="311" y="574"/>
      <point x="224" y="574"/>
    </contour>
  </outline>
</glyph>
<glyph name="circumflex" format="2">
  <advance width="319"/>
  <unicode hex="02C6"/>
  <outline>
    <contour>
      <point x="181" y="668" type="curve"/>
      <point x="142" y="668" type="line"/>
      <point x="93" y="611"/>
      <point x="51" y="561"/>
      <point x="0" y="503" type="curve"/>
      <point x="27" y="478" type="line"/>
      <point x="68" y="522"/>
      <point x="105" y="564"/>
      <point x="138" y="592" type="curve"/>
      <point x="185" y="559"/>
      <point x="233" y="522"/>
      <point x="291" y="478" type="curve"/>
      <point x="319" y="506" type="line"/>
      <point x="269" y="565"/>
      <point x="225" y="616"/>
    </contour>
  </outline>
</glyph>
<glyph name="firsttonechinese" format="2">
  <advance width="521"/>
  <unicode hex="02C9"/>
  <outline>
    <contour>
      <point x="496" y="580" type="line"/>
      <point x="355" y="577"/>
      <point x="166" y="577"/>
      <point x="25" y="580" type="curve"/>
      <point x="25" y="517" type="line"/>
      <point x="166" y="520"/>
      <point x="355" y="520"/>
      <point x="496" y="517" type="curve"/>
    </contour>
  </outline>
</glyph>
<glyph name="dotaccent" format="2">
  <advance width="124"/>
  <unicode hex="02D9"/>
  <anchor x="62" y="430" name="_top"/>
  <outline>
    <contour>
      <point x="63" y="479" type="curve" smooth="yes"/>
      <point x="93" y="479"/>
      <point x="119" y="506"/>
      <point x="119" y="540" type="curve" smooth="yes"/>
      <point x="119" y="572"/>
      <point x="93" y="599"/>
      <point x="63" y="599" type="curve" smooth="yes"/>
      <point x="31" y="599"/>
      <point x="7" y="572"/>
      <point x="7" y="540" type="curve" smooth="yes"/>
      <point x="7" y="506"/>
      <point x="31" y="479"/>
    </contour>
  </outline>
</glyph>
<glyph name="ogonek" format="2">
  <advance width="237"/>
  <unicode hex="02DB"/>
  <outline>
    <contour>
      <point x="97" y="-193" type="curve" smooth="yes"/>
      <point x="140" y="-193"/>
      <point x="180" y="-165"/>
      <point x="222" y="-112" type="curve"/>
      <point x="208" y="-91" type="line"/>
      <point x="180" y="-117"/>
      <point x="154" y="-128"/>
      <point x="134" y="-128" type="curve" smooth="yes"/>
      <point x="111" y="-128"/>
      <point x="101" y="-113"/>
      <point x="101" y="-90" type="curve" smooth="yes"/>
      <point x="101" y="-55"/>
      <point x="127" y="-3"/>
      <point x="177" y="32" type="curve"/>
      <point x="159" y="40" type="line"/>
      <point x="140" y="40" type="line"/>
      <point x="64" y="-12"/>
      <point x="32" y="-78"/>
      <point x="32" y="-124" type="curve" smooth="yes"/>
      <point x="32" y="-164"/>
      <point x="58" y="-193"/>
    </contour>
  </outline>
</glyph>
<glyph name="tilde" format="2">
  <advance width="311"/>
  <unicode hex="02DC"/>
  <outline>
    <contour>
      <point x="7" y="491" type="line"/>
      <point x="25" y="514"/>
      <point x="49" y="540"/>
      <point x="70" y="551" type="curve"/>
      <point x="104" y="551"/>
      <point x="152" y="496"/>
      <point x="191" y="496" type="curve" smooth="yes"/>
      <point x="231" y="496"/>
      <point x="275" y="544"/>
      <point x="312" y="605" type="curve"/>
      <point x="286" y="625" type="line"/>
      <point x="266" y="598"/>
      <point x="244" y="575"/>
      <point x="224" y="565" type="curve"/>
      <point x="187" y="565"/>
      <point x="140" y="620"/>
      <point x="103" y="620" type="curve" smooth="yes"/>
      <point x="64" y="620"/>
      <point x="20" y="571"/>
      <point x="-19" y="511" type="curve"/>
    </contour>
  </outline>
</glyph>
<glyph name="pi" format="2">
  <advance width="635"/>
  <unicode hex="03C0"/>
  <anchor x="237" y="430" name="top"/>
  <outline>
    <contour>
      <point x="279" y="388" type="curve"/>
      <point x="254" y="390"/>
      <point x="231" y="389"/>
      <point x="186" y="397" type="curve"/>
      <point x="166" y="238"/>
      <point x="151" y="13"/>
      <point x="52" y="13" type="curve"/>
      <point x="54" y="4"/>
      <point x="60" y="-10"/>
      <point x="62" y="-14" type="curve"/>
      <point x="242" y="-14"/>
      <point x="254" y="176"/>
    </contour>
    <contour>
      <point x="473" y="402" type="curve"/>
      <point x="376" y="402" type="line"/>
      <point x="374" y="318"/>
      <point x="377" y="399"/>
      <point x="377" y="278" type="curve" smooth="yes"/>
      <point x="377" y="197"/>
      <point x="375" y="131"/>
      <point x="375" y="91" type="curve" smooth="yes"/>
      <point x="375" y="19"/>
      <point x="414" y="-6"/>
      <point x="463" y="-6" type="curve" smooth="yes"/>
      <point x="510" y="-6"/>
      <point x="567" y="31"/>
      <point x="605" y="66" type="curve"/>
      <point x="590" y="92" type="line"/>
      <point x="562" y="73"/>
      <point x="533" y="62"/>
      <point x="508" y="62" type="curve" smooth="yes"/>
      <point x="481" y="62"/>
      <point x="461" y="78"/>
      <point x="461" y="128" type="curve" smooth="yes"/>
      <point x="461" y="183"/>
      <point x="464" y="289"/>
    </contour>
    <contour>
      <point x="501" y="420" type="curve"/>
      <point x="443" y="420"/>
      <point x="293" y="424"/>
      <point x="161" y="424" type="curve" smooth="yes"/>
      <point x="112" y="424"/>
      <point x="69" y="392"/>
      <point x="40" y="332" type="curve"/>
      <point x="66" y="316" type="line"/>
      <point x="84" y="339"/>
      <point x="107" y="358"/>
      <point x="128" y="369" type="curve"/>
      <point x="182" y="369"/>
      <point x="410" y="371"/>
      <point x="469" y="371" type="curve" smooth="yes"/>
      <point x="509" y="371"/>
      <point x="539" y="381"/>
      <point x="572" y="432" type="curve"/>
      <point x="546" y="452" type="line"/>
      <point x="528" y="432"/>
      <point x="513" y="426"/>
    </contour>
  </outline>
</glyph>
<glyph name="number-ar" format="2">
  <advance width="883"/>
  <unicode hex="0600"/>
  <anchor x="52" y="120" name="digit"/>
  <outline>
    <contour>
      <point x="46" y="0" type="curve"/>
      <point x="105" y="0"/>
      <point x="784" y="0"/>
      <point x="851" y="0" type="curve"/>
      <point x="849" y="51"/>
      <point x="835" y="90"/>
      <point x="819" y="90" type="curve" smooth="yes"/>
      <point x="45" y="90" type="line" smooth="yes"/>
      <point x="34" y="90"/>
      <point x="30" y="86"/>
      <point x="30" y="73" type="curve" smooth="yes"/>
      <point x="30" y="49"/>
      <point x="35" y="31"/>
    </contour>
    <contour>
      <point x="628" y="250" type="curve" smooth="yes"/>
      <point x="682" y="250"/>
      <point x="744" y="247"/>
      <point x="820" y="235" type="curve"/>
      <point x="820" y="278"/>
      <point x="799" y="330"/>
      <point x="778" y="332" type="curve" smooth="yes"/>
      <point x="722" y="338"/>
      <point x="646" y="340"/>
      <point x="588" y="337" type="curve" smooth="yes"/>
      <point x="535" y="334"/>
      <point x="491" y="324"/>
      <point x="491" y="279" type="curve" smooth="yes"/>
      <point x="491" y="243"/>
      <point x="497" y="219"/>
      <point x="523" y="121" type="curve" smooth="yes"/>
      <point x="530" y="94"/>
      <point x="532" y="90"/>
      <point x="489" y="90" type="curve"/>
      <point x="525" y="63" type="line"/>
      <point x="566" y="53" type="line"/>
      <point x="623" y="90" type="line"/>
      <point x="600" y="90"/>
      <point x="589" y="108"/>
      <point x="581" y="168" type="curve" smooth="yes"/>
      <point x="571" y="239"/>
      <point x="580" y="250"/>
    </contour>
  </outline>
</glyph>
<glyph name="hamza-ar" format="2">
  <advance width="199"/>
  <unicode hex="0621"/>
  <anchor x="58" y="-33" name="bottom"/>
  <anchor x="59" y="241" name="top"/>
  <outline>
    <contour>
      <point x="-30" y="1" type="curve"/>
      <point x="164" y="1" type="line"/>
      <point x="164" y="15"/>
      <point x="163" y="48"/>
      <point x="156" y="48" type="curve" smooth="yes"/>
      <point x="29" y="48" type="line"/>
      <point x="24" y="48"/>
      <point x="21" y="53"/>
      <point x="21" y="60" type="curve" smooth="yes"/>
      <point x="21" y="69"/>
      <point x="26" y="81"/>
      <point x="34" y="81" type="curve"/>
      <point x="164" y="81" type="line"/>
      <point x="164" y="95"/>
      <point x="163" y="129"/>
      <point x="156" y="129" type="curve" smooth="yes"/>
      <point x="26" y="129" type="line"/>
      <point x="23" y="129"/>
      <point x="22" y="132"/>
      <point x="22" y="137" type="curve" smooth="yes"/>
      <point x="22" y="147"/>
      <point x="28" y="162"/>
      <point x="37" y="162" type="curve"/>
      <point x="164" y="162" type="line"/>
      <point x="164" y="175"/>
      <point x="163" y="209"/>
      <point x="156" y="209" type="curve" smooth="yes"/>
      <point x="-20" y="209" type="line" smooth="yes"/>
      <point x="-48" y="209"/>
      <point x="-55" y="193"/>
      <point x="-55" y="173" type="curve" smooth="yes"/>
      <point x="-55" y="153"/>
      <point x="-48" y="127"/>
      <point x="-48" y="107" type="curve"/>
      <point x="-48" y="78"/>
      <point x="-54" y="50"/>
      <point x="-54" y="30" type="curve" smooth="yes"/>
      <point x="-54" y="13"/>
      <point x="-49" y="1"/>
    </contour>
  </outline>
</glyph>
<glyph name="alefHamzaabove-ar" format="2">
  <advance width="253"/>
  <unicode hex="0623"/>
  <anchor x="99" y="-56" name="bottom"/>
  <anchor x="94" y="600" name="top"/>
  <outline>
    <component base="alef-ar"/>
    <contour>
      <point x="112" y="409" type="line"/>
      <point x="120" y="409"/>
      <point x="126" y="396"/>
      <point x="136" y="379" type="curve"/>
      <point x="136" y="406"/>
      <point x="137" y="409"/>
      <point x="141" y="409" type="curve" smooth="yes"/>
      <point x="238" y="409" type="line"/>
      <point x="238" y="418"/>
      <point x="237" y="442"/>
      <point x="233" y="442" type="curve" smooth="yes"/>
      <point x="141" y="442" type="line" smooth="yes"/>
      <point x="134" y="442"/>
      <point x="138" y="464"/>
      <point x="144" y="464" type="curve" smooth="yes"/>
      <point x="238" y="464" type="line"/>
      <point x="238" y="474"/>
      <point x="237" y="497"/>
      <point x="233" y="497" type="curve" smooth="yes"/>
      <point x="142" y="497" type="line" smooth="yes"/>
      <point x="137" y="497"/>
      <point x="140" y="520"/>
      <point x="146" y="520" type="curve" smooth="yes"/>
      <point x="238" y="520" type="line"/>
      <point x="238" y="529"/>
      <point x="237" y="553"/>
      <point x="233" y="553" type="curve" smooth="yes"/>
      <point x="144" y="553" type="line" smooth="yes"/>
      <point x="138" y="553"/>
      <point x="137" y="555"/>
      <point x="137" y="567" type="curve"/>
      <point x="128" y="567"/>
      <point x="128" y="553"/>
      <point x="118" y="553" type="curve"/>
    </contour>
  </outline>
</glyph>
<glyph name="alef-ar" format="2">
  <advance width="205"/>
  <unicode hex="0627"/>
  <anchor x="104" y="-66" name="bottom"/>
  <anchor x="94" y="600" name="top"/>
  <outline>
    <contour>
      <point x="137" y="567" type="curve"/>
      <point x="132" y="574"/>
      <point x="128" y="578"/>
      <point x="125" y="578" type="curve" smooth="yes"/>
      <point x="109" y="578"/>
      <point x="84" y="572"/>
      <point x="55" y="554" type="curve"/>
      <point x="70" y="424"/>
      <point x="78" y="208"/>
      <point x="77" y="-39" type="curve"/>
      <point x="94" y="-41"/>
      <point x="125" y="-36"/>
      <point x="134" y="-24" type="curve"/>
      <point x="134" y="-11"/>
      <point x="135" y="87"/>
      <point x="135" y="161" type="curve" smooth="yes"/>
      <point x="134" y="253"/>
      <point x="138" y="463"/>
    </contour>
  </outline>
</glyph>
<glyph name="sad-ar" format="2">
  <advance width="1226"/>
  <unicode hex="0635"/>
  <anchor x="858" y="-30" name="bottom"/>
  <anchor x="867" y="424" name="top"/>
  <outline>
    <contour>
      <point x="0" y="-34" type="curve" smooth="yes"/>
      <point x="0" y="-164"/>
      <point x="84" y="-228"/>
      <point x="200" y="-228" type="curve" smooth="yes"/>
      <point x="345" y="-228"/>
      <point x="475" y="-160"/>
      <point x="632" y="-6" type="curve" smooth="yes"/>
      <point x="633" y="-5"/>
      <point x="636" y="0"/>
      <point x="668" y="0" type="curve" smooth="yes"/>
      <point x="1064" y="0" type="line" smooth="yes"/>
      <point x="1131" y="0"/>
      <point x="1141" y="84"/>
      <point x="1141" y="228" type="curve" smooth="yes"/>
      <point x="1141" y="303"/>
      <point x="1131" y="383"/>
      <point x="1090" y="391" type="curve"/>
      <point x="1004" y="392"/>
      <point x="782" y="369"/>
      <point x="708" y="349" type="curve" smooth="yes"/>
      <point x="601" y="320"/>
      <point x="571" y="274"/>
      <point x="571" y="198" type="curve" smooth="yes"/>
      <point x="571" y="156"/>
      <point x="574" y="80"/>
      <point x="574" y="61" type="curve"/>
      <point x="472" y="-68"/>
      <point x="341" y="-136"/>
      <point x="229" y="-136" type="curve" smooth="yes"/>
      <point x="133" y="-136"/>
      <point x="58" y="-87"/>
      <point x="58" y="29" type="curve" smooth="yes"/>
      <point x="58" y="63"/>
      <point x="66" y="102"/>
      <point x="84" y="147" type="curve"/>
      <point x="82" y="155"/>
      <point x="73" y="158"/>
      <point x="65" y="158" type="curve" smooth="yes"/>
      <point x="63" y="158" type="line"/>
      <point x="22" y="92"/>
      <point x="0" y="33"/>
    </contour>
    <contour>
      <point x="654" y="90" type="line" smooth="yes"/>
      <point x="634" y="90"/>
      <point x="632" y="93"/>
      <point x="632" y="155" type="curve" smooth="yes"/>
      <point x="632" y="253"/>
      <point x="672" y="280"/>
      <point x="1034" y="296" type="curve" smooth="yes"/>
      <point x="1069" y="298"/>
      <point x="1082" y="254"/>
      <point x="1082" y="153" type="curve" smooth="yes"/>
      <point x="1082" y="102"/>
      <point x="1079" y="90"/>
      <point x="1055" y="90" type="curve" smooth="yes"/>
    </contour>
  </outline>
</glyph>
<glyph name="dammatan-ar" format="2">
  <unicode hex="064C"/>
  <anchor x="138" y="526" name="_top"/>
  <anchor x="112" y="742" name="top"/>
  <outline>
    <component base="damma-ar"/>
    <contour>
      <point x="107" y="745" type="curve" smooth="yes"/>
      <point x="114" y="728"/>
      <point x="117" y="701"/>
      <point x="117" y="680" type="curve" smooth="yes"/>
      <point x="117" y="663"/>
      <point x="116" y="651"/>
      <point x="112" y="651" type="curve" smooth="yes"/>
      <point x="-3" y="651" type="line"/>
      <point x="-3" y="636"/>
      <point x="0" y="616"/>
      <point x="10" y="616" type="curve" smooth="yes"/>
      <point x="100" y="616" type="line" smooth="yes"/>
      <point x="117" y="616"/>
      <point x="126" y="616"/>
      <point x="139" y="616" type="curve"/>
      <point x="145" y="637"/>
      <point x="148" y="663"/>
      <point x="148" y="690" type="curve" smooth="yes"/>
      <point x="148" y="712"/>
      <point x="146" y="735"/>
      <point x="142" y="755" type="curve" smooth="yes"/>
      <point x="141" y="760"/>
      <point x="104" y="752"/>
    </contour>
  </outline>
</glyph>
<glyph name="madda-ar" format="2">
  <unicode hex="0653"/>
  <anchor x="164" y="556" name="_top"/>
  <anchor x="166" y="713" name="top"/>
  <outline>
    <contour>
      <point x="102" y="575" type="curve" smooth="yes"/>
      <point x="119" y="575"/>
      <point x="129" y="576"/>
      <point x="147" y="585" type="curve"/>
      <point x="152" y="587"/>
      <point x="154" y="596"/>
      <point x="154" y="605" type="curve" smooth="yes"/>
      <point x="154" y="611"/>
      <point x="153" y="616"/>
      <point x="152" y="621" type="curve"/>
      <point x="140" y="613"/>
      <point x="124" y="609"/>
      <point x="110" y="609" type="curve" smooth="yes"/>
      <point x="87" y="609"/>
      <point x="66" y="619"/>
      <point x="66" y="639" type="curve" smooth="yes"/>
      <point x="66" y="653"/>
      <point x="78" y="665"/>
      <point x="104" y="665" type="curve" smooth="yes"/>
      <point x="155" y="665"/>
      <point x="212" y="598"/>
      <point x="270" y="598" type="curve" smooth="yes"/>
      <point x="292" y="598"/>
      <point x="304" y="622"/>
      <point x="304" y="644" type="curve" smooth="yes"/>
      <point x="304" y="664"/>
      <point x="295" y="684"/>
      <point x="274" y="684" type="curve" smooth="yes"/>
      <point x="260" y="684"/>
      <point x="244" y="670"/>
      <point x="242" y="644" type="curve"/>
      <point x="194" y="659"/>
      <point x="162" y="699"/>
      <point x="106" y="699" type="curve" smooth="yes"/>
      <point x="53" y="699"/>
      <point x="28" y="668"/>
      <point x="28" y="637" type="curve" smooth="yes"/>
      <point x="28" y="606"/>
      <point x="54" y="575"/>
    </contour>
  </outline>
</glyph>
<glyph name="dammainverted-ar" format="2">
  <advance width="189"/>
  <unicode hex="0657"/>
  <outline>
    <contour>
      <point x="86" y="590" type="line"/>
      <point x="67" y="589"/>
      <point x="48" y="593"/>
      <point x="38" y="613" type="curve"/>
      <point x="54" y="660"/>
      <point x="99" y="701"/>
      <point x="159" y="713" type="curve"/>
      <point x="156" y="729"/>
      <point x="149" y="739"/>
      <point x="144" y="741" type="curve" smooth="yes"/>
      <point x="131" y="745"/>
      <point x="61" y="712"/>
      <point x="27" y="661" type="curve" smooth="yes"/>
      <point x="15" y="644"/>
      <point x="5" y="625"/>
      <point x="5" y="603" type="curve"/>
      <point x="15" y="571"/>
      <point x="51" y="556"/>
      <point x="73" y="555" type="curve" smooth="yes"/>
      <point x="130" y="552"/>
      <point x="134" y="581"/>
      <point x="137" y="602" type="curve" smooth="yes"/>
      <point x="143" y="643"/>
      <point x="123" y="646"/>
      <point x="74" y="637" type="curve"/>
      <point x="57" y="565" type="line"/>
    </contour>
  </outline>
</glyph>
<glyph name="noonghunnaabove-ar" format="2">
  <unicode hex="0658"/>
  <anchor x="119" y="563" name="bottom"/>
  <anchor x="120" y="774" name="top"/>
  <anchor x="-4" y="719" name="top_alef"/>
  <outline>
    <contour>
      <point x="30" y="596"/>
      <point x="65" y="577"/>
      <point x="104" y="577" type="curve" smooth="yes"/>
      <point x="179" y="577"/>
      <point x="221" y="631"/>
      <point x="221" y="673" type="curve" smooth="yes"/>
      <point x="221" y="697"/>
      <point x="216" y="718"/>
      <point x="209" y="741" type="curve" smooth="yes"/>
      <point x="207" y="748"/>
      <point x="204" y="750"/>
      <point x="201" y="750" type="curve" smooth="yes"/>
      <point x="200" y="750"/>
      <point x="199" y="750"/>
      <point x="199" y="750" type="curve" smooth="yes"/>
      <point x="194" y="749"/>
      <point x="179" y="739"/>
      <point x="170" y="733" type="curve"/>
      <point x="183" y="714"/>
      <point x="194" y="694"/>
      <point x="194" y="676" type="curve" smooth="yes"/>
      <point x="194" y="650"/>
      <point x="172" y="618"/>
      <point x="115" y="618" type="curve" smooth="yes"/>
      <point x="86" y="618"/>
      <point x="56" y="633"/>
      <point x="56" y="674" type="curve" smooth="yes"/>
      <point x="56" y="688"/>
      <point x="59" y="707"/>
      <point x="64" y="724" type="curve"/>
      <point x="63" y="728"/>
      <point x="59" y="729"/>
      <point x="56" y="729" type="curve" smooth="yes"/>
      <point x="56" y="729"/>
      <point x="56" y="729"/>
      <point x="55" y="729" type="curve"/>
      <point x="39" y="703"/>
      <point x="30" y="679"/>
      <point x="30" y="650" type="curve" smooth="yes"/>
    </contour>
  </outline>
</glyph>
<glyph name="dotvowelbelow-ar" format="2">
  <unicode hex="065C"/>
  <anchor x="100" y="-44" name="_bottom"/>
  <anchor x="100" y="-250" name="bottom"/>
  <outline>
    <contour>
      <point x="100" y="-230" type="curve" smooth="yes"/>
      <point x="145" y="-230"/>
      <point x="180" y="-195"/>
      <point x="180" y="-153" type="curve" smooth="yes"/>
      <point x="180" y="-112"/>
      <point x="145" y="-77"/>
      <point x="100" y="-77" type="curve" smooth="yes"/>
      <point x="55" y="-77"/>
      <point x="20" y="-112"/>
      <point x="20" y="-153" type="curve" smooth="yes"/>
      <point x="20" y="-195"/>
      <point x="55" y="-230"/>
    </contour>
  </outline>
</glyph>
<glyph name="one-ar" format="2">
  <advance width="258"/>
  <unicode hex="0661"/>
  <outline>
    <contour>
      <point x="140" y="-15" type="curve"/>
      <point x="157" y="-11"/>
      <point x="164" y="-6"/>
      <point x="174" y="11" type="curve"/>
      <point x="186" y="91"/>
      <point x="193" y="192"/>
      <point x="193" y="295" type="curve" smooth="yes"/>
      <point x="193" y="431"/>
      <point x="181" y="569"/>
      <point x="154" y="660" type="curve"/>
      <point x="133" y="660"/>
      <point x="93" y="633"/>
      <point x="65" y="601" type="curve"/>
      <point x="115" y="442"/>
      <point x="140" y="258"/>
      <point x="140" y="25" type="curve" smooth="yes"/>
      <point x="140" y="12"/>
      <point x="140" y="-1"/>
    </contour>
  </outline>
</glyph>
<glyph name="percent-ar" format="2">
  <advance width="627"/>
  <unicode hex="066A"/>
  <outline>
    <component base="dotabove-ar" xScale="0.584" xyScale="0.584" yxScale="-0.584" yScale="0.584" xOffset="287" yOffset="217"/>
    <component base="dotabove-ar" xScale="0.584" xyScale="0.584" yxScale="-0.584" yScale="0.584" xOffset="592" yOffset="-161"/>
    <contour>
      <point x="530" y="683" type="line"/>
      <point x="459" y="683" type="line"/>
      <point x="20" y="-18" type="line"/>
      <point x="90" y="-18" type="line"/>
    </contour>
  </outline>
</glyph>
<glyph name="asterisk-ar" format="2">
  <advance width="399"/>
  <unicode hex="066D"/>
  <outline>
    <contour>
      <point x="46" y="519" type="line"/>
      <point x="62" y="473" type="line"/>
      <point x="90" y="464"/>
      <point x="126" y="459"/>
      <point x="158" y="455" type="curve"/>
      <point x="131" y="429"/>
      <point x="102" y="400"/>
      <point x="93" y="386" type="curve"/>
      <point x="106" y="341" type="line"/>
      <point x="154" y="340" type="line"/>
      <point x="165" y="355"/>
      <point x="184" y="393"/>
      <point x="200" y="428" type="curve"/>
      <point x="216" y="394"/>
      <point x="236" y="356"/>
      <point x="248" y="342" type="curve"/>
      <point x="295" y="340" type="line"/>
      <point x="310" y="386" type="line"/>
      <point x="299" y="400"/>
      <point x="269" y="430"/>
      <point x="241" y="455" type="curve"/>
      <point x="278" y="460"/>
      <point x="320" y="467"/>
      <point x="336" y="473" type="curve"/>
      <point x="353" y="517" type="line"/>
      <point x="314" y="545" type="line"/>
      <point x="296" y="539"/>
      <point x="256" y="519"/>
      <point x="223" y="501" type="curve"/>
      <point x="229" y="538"/>
      <point x="237" y="582"/>
      <point x="236" y="601" type="curve"/>
      <point x="199" y="630" type="line"/>
      <point x="161" y="602" type="line"/>
      <point x="160" y="583"/>
      <point x="168" y="539"/>
      <point x="176" y="501" type="curve"/>
      <point x="147" y="517"/>
      <point x="113" y="536"/>
      <point x="85" y="545" type="curve"/>
    </contour>
  </outline>
</glyph>
<glyph name="highhamza-ar" format="2">
  <advance width="154"/>
  <unicode hex="0674"/>
  <anchor x="80" y="514" name="bottom"/>
  <anchor x="78" y="690" name="top"/>
  <outline>
    <contour>
      <point x="23" y="533" type="curve"/>
      <point x="144" y="533" type="line"/>
      <point x="144" y="541"/>
      <point x="143" y="566"/>
      <point x="139" y="566" type="curve" smooth="yes"/>
      <point x="47" y="566" type="line"/>
      <point x="44" y="566"/>
      <point x="44" y="570"/>
      <point x="44" y="573" type="curve" smooth="yes"/>
      <point x="44" y="579"/>
      <point x="47" y="586"/>
      <point x="51" y="586" type="curve"/>
      <point x="144" y="586" type="line"/>
      <point x="144" y="594"/>
      <point x="143" y="619"/>
      <point x="139" y="619" type="curve" smooth="yes"/>
      <point x="47" y="619" type="line"/>
      <point x="45" y="619"/>
      <point x="44" y="621"/>
      <point x="44" y="624" type="curve" smooth="yes"/>
      <point x="44" y="630"/>
      <point x="48" y="639"/>
      <point x="53" y="639" type="curve"/>
      <point x="144" y="639" type="line"/>
      <point x="144" y="646"/>
      <point x="143" y="672"/>
      <point x="139" y="672" type="curve" smooth="yes"/>
      <point x="29" y="672" type="line" smooth="yes"/>
      <point x="13" y="672"/>
      <point x="9" y="663"/>
      <point x="9" y="651" type="curve" smooth="yes"/>
      <point x="9" y="639"/>
      <point x="13" y="619"/>
      <point x="13" y="601" type="curve"/>
      <point x="13" y="584"/>
      <point x="9" y="563"/>
      <point x="9" y="551" type="curve" smooth="yes"/>
      <point x="9" y="540"/>
      <point x="12" y="533"/>
    </contour>
  </outline>
</glyph>
<glyph name="kafswash-ar" format="2">
  <advance width="1157"/>
  <unicode hex="06AA"/>
  <anchor x="580" y="-30" name="bottom"/>
  <anchor x="205" y="467" name="top"/>
  <outline>
    <contour>
      <point x="80" y="0" type="curve"/>
      <point x="1004" y="0" type="line" smooth="yes"/>
      <point x="1063" y="0"/>
      <point x="1082" y="102"/>
      <point x="1082" y="163" type="curve" smooth="yes"/>
      <point x="1082" y="276"/>
      <point x="1068" y="284"/>
      <point x="1007" y="284" type="curve" smooth="yes"/>
      <point x="826" y="284"/>
      <point x="349" y="283"/>
      <point x="306" y="283" type="curve" smooth="yes"/>
      <point x="280" y="283"/>
      <point x="263" y="284"/>
      <point x="263" y="290" type="curve" smooth="yes"/>
      <point x="263" y="294"/>
      <point x="267" y="299"/>
      <point x="274" y="307" type="curve" smooth="yes"/>
      <point x="366" y="403"/>
      <point x="449" y="487"/>
      <point x="594" y="614" type="curve"/>
      <point x="594" y="624"/>
      <point x="592" y="628"/>
      <point x="585" y="634" type="curve"/>
      <point x="339" y="471"/>
      <point x="207" y="373"/>
      <point x="77" y="267" type="curve"/>
      <point x="77" y="238"/>
      <point x="89" y="191"/>
      <point x="108" y="191" type="curve" smooth="yes"/>
      <point x="266" y="192"/>
      <point x="800" y="195"/>
      <point x="946" y="195" type="curve" smooth="yes"/>
      <point x="1015" y="195"/>
      <point x="1028" y="191"/>
      <point x="1028" y="149" type="curve" smooth="yes"/>
      <point x="1028" y="111"/>
      <point x="1025" y="90"/>
      <point x="988" y="90" type="curve" smooth="yes"/>
      <point x="75" y="90" type="line" smooth="yes"/>
      <point x="61" y="90"/>
      <point x="60" y="86"/>
      <point x="60" y="76" type="curve" smooth="yes"/>
      <point x="60" y="56"/>
      <point x="66" y="30"/>
    </contour>
  </outline>
</glyph>
<glyph name="yehbarree-ar" format="2">
  <advance width="428"/>
  <unicode hex="06D2"/>
  <anchor x="146" y="-50" name="bottom"/>
  <anchor x="316" y="503" name="top"/>
  <outline>
    <contour>
      <point x="336" y="-181" type="curve" smooth="yes"/>
      <point x="339" y="-155"/>
      <point x="341" y="-131"/>
      <point x="341" y="-110" type="curve" smooth="yes"/>
      <point x="341" y="126"/>
      <point x="158" y="115"/>
      <point x="158" y="129" type="curve" smooth="yes"/>
      <point x="158" y="140"/>
      <point x="344" y="119"/>
      <point x="344" y="384" type="curve" smooth="yes"/>
      <point x="344" y="408"/>
      <point x="342" y="434"/>
      <point x="339" y="462" type="curve"/>
      <point x="322" y="462"/>
      <point x="295" y="453"/>
      <point x="295" y="434" type="curve" smooth="yes"/>
      <point x="297" y="260"/>
      <point x="254" y="206"/>
      <point x="67" y="206" type="curve"/>
      <point x="62" y="185"/>
      <point x="60" y="161"/>
      <point x="60" y="138" type="curve" smooth="yes"/>
      <point x="60" y="88"/>
      <point x="70" y="42"/>
      <point x="84" y="37" type="curve"/>
      <point x="255" y="36"/>
      <point x="297" y="-16"/>
      <point x="298" y="-204" type="curve"/>
      <point x="309" y="-204"/>
      <point x="334" y="-194"/>
    </contour>
  </outline>
</glyph>
<glyph name="wawSmall-ar" format="2">
  <advance width="247"/>
  <unicode hex="06E5"/>
  <anchor x="58" y="274" name="top"/>
  <outline>
    <contour>
      <point x="158" y="167" type="curve" smooth="yes"/>
      <point x="158" y="159"/>
      <point x="142" y="158"/>
      <point x="133" y="158" type="curve" smooth="yes"/>
      <point x="125" y="158"/>
      <point x="105" y="159"/>
      <point x="107" y="164" type="curve" smooth="yes"/>
      <point x="121" y="185"/>
      <point x="144" y="210"/>
      <point x="151" y="210" type="curve" smooth="yes"/>
      <point x="155" y="210"/>
      <point x="158" y="180"/>
    </contour>
    <contour>
      <point x="147" y="123" type="curve" smooth="yes"/>
      <point x="159" y="123"/>
      <point x="152" y="116"/>
      <point x="131" y="94" type="curve" smooth="yes"/>
      <point x="107" y="69"/>
      <point x="79" y="46"/>
      <point x="13" y="-3" type="curve"/>
      <point x="13" y="-6"/>
      <point x="15" y="-13"/>
      <point x="20" y="-16" type="curve"/>
      <point x="100" y="25"/>
      <point x="153" y="60"/>
      <point x="180" y="87" type="curve" smooth="yes"/>
      <point x="187" y="94"/>
      <point x="187" y="132"/>
      <point x="187" y="160" type="curve" smooth="yes"/>
      <point x="187" y="187"/>
      <point x="182" y="237"/>
      <point x="176" y="258" type="curve" smooth="yes"/>
      <point x="175" y="261"/>
      <point x="174" y="261"/>
      <point x="172" y="261" type="curve" smooth="yes"/>
      <point x="166" y="261"/>
      <point x="153" y="257"/>
      <point x="145" y="254" type="curve"/>
      <point x="125" y="237"/>
      <point x="76" y="180"/>
      <point x="58" y="156" type="curve"/>
      <point x="58" y="143"/>
      <point x="58" y="131"/>
      <point x="64" y="122" type="curve"/>
      <point x="88" y="122"/>
      <point x="123" y="123"/>
    </contour>
  </outline>
</glyph>
<glyph name="yehabove-ar" format="2">
  <unicode hex="06E7"/>
  <anchor x="-146" y="46" name="_top"/>
  <anchor x="-57" y="341" name="top"/>
  <outline>
    <contour>
      <point x="-45" y="26" type="curve"/>
      <point x="-43" y="38"/>
      <point x="-42" y="50"/>
      <point x="-42" y="59" type="curve"/>
      <point x="-42" y="156"/>
      <point x="-130" y="152"/>
      <point x="-130" y="158" type="curve"/>
      <point x="-130" y="163"/>
      <point x="-41" y="153"/>
      <point x="-41" y="256" type="curve"/>
      <point x="-41" y="268"/>
      <point x="-42" y="280"/>
      <point x="-43" y="294" type="curve" smooth="yes"/>
      <point x="-51" y="294"/>
      <point x="-65" y="289"/>
      <point x="-64" y="280" type="curve"/>
      <point x="-63" y="219"/>
      <point x="-84" y="189"/>
      <point x="-174" y="195" type="curve" smooth="yes"/>
      <point x="-176" y="185"/>
      <point x="-177" y="174"/>
      <point x="-177" y="162" type="curve"/>
      <point x="-177" y="138"/>
      <point x="-172" y="116"/>
      <point x="-166" y="114" type="curve" smooth="yes"/>
      <point x="-83" y="114"/>
      <point x="-63" y="88"/>
      <point x="-63" y="14" type="curve" smooth="yes"/>
      <point x="-57" y="14"/>
      <point x="-46" y="19"/>
    </contour>
  </outline>
</glyph>
<glyph name="leftarrowheadabove-ar" format="2">
  <unicode hex="08F7"/>
  <anchor x="80" y="539" name="_top"/>
  <anchor x="87" y="770" name="top"/>
  <anchor x="-14" y="719" name="top_alef"/>
  <outline>
    <contour>
      <point x="73" y="726" type="curve" smooth="yes"/>
      <point x="76" y="732"/>
      <point x="42" y="746"/>
      <point x="40" y="741" type="curve" smooth="yes"/>
      <point x="22" y="692"/>
      <point x="14" y="615"/>
      <point x="20" y="605" type="curve"/>
      <point x="23" y="599"/>
      <point x="54" y="590"/>
      <point x="70" y="587" type="curve" smooth="yes"/>
      <point x="93" y="582"/>
      <point x="138" y="580"/>
      <point x="144" y="583" type="curve" smooth="yes"/>
      <point x="148" y="586"/>
      <point x="156" y="598"/>
      <point x="159" y="614" type="curve"/>
      <point x="106" y="613"/>
      <point x="57" y="621"/>
      <point x="52" y="628" type="curve" smooth="yes"/>
      <point x="46" y="640"/>
      <point x="63" y="704"/>
    </contour>
  </outline>
</glyph>
<glyph name="euro" format="2">
  <advance width="560"/>
  <unicode hex="20AC"/>
  <outline>
    <contour>
      <point x="353" y="315" type="line"/>
      <point x="262" y="312"/>
      <point x="225" y="311"/>
      <point x="166" y="311" type="curve" smooth="yes"/>
      <point x="106" y="311"/>
      <point x="84" y="312"/>
      <point x="9" y="315" type="curve"/>
      <point x="-15" y="262" type="line"/>
      <point x="60" y="265"/>
      <point x="106" y="266"/>
      <point x="166" y="266" type="curve" smooth="yes"/>
      <point x="225" y="266"/>
      <point x="268" y="265"/>
      <point x="329" y="262" type="curve"/>
    </contour>
    <contour>
      <point x="373" y="405" type="line"/>
      <point x="282" y="402"/>
      <point x="225" y="401"/>
      <point x="166" y="401" type="curve" smooth="yes"/>
      <point x="106" y="401"/>
      <point x="86" y="402"/>
      <point x="11" y="405" type="curve"/>
      <point x="-13" y="352" type="line"/>
      <point x="62" y="355"/>
      <point x="106" y="356"/>
      <point x="166" y="356" type="curve" smooth="yes"/>
      <point x="225" y="356"/>
      <point x="288" y="355"/>
      <point x="349" y="352" type="curve"/>
    </contour>
    <contour>
      <point x="501" y="136" type="line"/>
      <point x="441" y="86"/>
      <point x="388" y="67"/>
      <point x="330" y="67" type="curve" smooth="yes"/>
      <point x="231" y="67"/>
      <point x="152" y="145"/>
      <point x="152" y="332" type="curve" smooth="yes"/>
      <point x="152" y="466"/>
      <point x="188" y="567"/>
      <point x="254" y="618" type="curve"/>
      <point x="305" y="618"/>
      <point x="367" y="604"/>
      <point x="416" y="564" type="curve"/>
      <point x="426" y="458" type="line"/>
      <point x="466" y="458" type="line"/>
      <point x="476" y="517"/>
      <point x="490" y="560"/>
      <point x="503" y="618" type="curve"/>
      <point x="432" y="654"/>
      <point x="360" y="671"/>
      <point x="301" y="671" type="curve" smooth="yes"/>
      <point x="162" y="671"/>
      <point x="38" y="554"/>
      <point x="38" y="335" type="curve" smooth="yes"/>
      <point x="38" y="123"/>
      <point x="162" y="-7"/>
      <point x="286" y="-7" type="curve" smooth="yes"/>
      <point x="390" y="-7"/>
      <point x="464" y="40"/>
      <point x="525" y="98" type="curve"/>
    </contour>
  </outline>
</glyph>
<glyph name="Ohm" format="2">
  <advance width="712"/>
  <unicode hex="2126"/>
  <anchor x="356" y="660" name="top"/>
  <outline>
    <contour>
      <point x="36" y="0" type="curve"/>
      <point x="95" y="2"/>
      <point x="147" y="4"/>
      <point x="194" y="3" type="curve" smooth="yes"/>
      <point x="240" y="2"/>
      <point x="285" y="1"/>
      <point x="331" y="0" type="curve"/>
      <point x="330" y="71" type="line"/>
      <point x="266" y="141"/>
      <point x="166" y="257"/>
      <point x="166" y="405" type="curve" smooth="yes"/>
      <point x="166" y="487"/>
      <point x="225" y="614"/>
      <point x="356" y="614" type="curve" smooth="yes"/>
      <point x="487" y="614"/>
      <point x="546" y="487"/>
      <point x="546" y="405" type="curve" smooth="yes"/>
      <point x="546" y="257"/>
      <point x="445" y="141"/>
      <point x="381" y="71" type="curve"/>
      <point x="381" y="0" type="line"/>
      <point x="427" y="1"/>
      <point x="472" y="2"/>
      <point x="518" y="3" type="curve" smooth="yes"/>
      <point x="565" y="4"/>
      <point x="617" y="2"/>
      <point x="676" y="0" type="curve"/>
      <point x="671" y="68"/>
      <point x="667" y="104"/>
      <point x="667" y="164" type="curve"/>
      <point x="620" y="164" type="line"/>
      <point x="600" y="70" type="line"/>
      <point x="558" y="61"/>
      <point x="505" y="56"/>
      <point x="451" y="56" type="curve"/>
      <point x="531" y="135"/>
      <point x="643" y="248"/>
      <point x="643" y="382" type="curve" smooth="yes"/>
      <point x="643" y="500"/>
      <point x="566" y="665"/>
      <point x="356" y="665" type="curve" smooth="yes"/>
      <point x="146" y="665"/>
      <point x="69" y="500"/>
      <point x="69" y="382" type="curve" smooth="yes"/>
      <point x="69" y="248"/>
      <point x="181" y="135"/>
      <point x="261" y="56" type="curve"/>
      <point x="207" y="56"/>
      <point x="154" y="61"/>
      <point x="112" y="70" type="curve"/>
      <point x="92" y="164" type="line"/>
      <point x="45" y="164" type="line"/>
      <point x="45" y="104"/>
      <point x="41" y="68"/>
    </contour>
  </outline>
</glyph>
<glyph name="partialdiff" format="2">
  <advance width="481"/>
  <unicode hex="2202"/>
  <anchor x="250" y="222" name="center"/>
  <anchor x="508" y="575" name="topright"/>
  <outline>
    <contour>
      <point x="364" y="336" type="curve"/>
      <point x="371" y="125"/>
      <point x="340" y="52"/>
      <point x="270" y="52" type="curve" smooth="yes"/>
      <point x="193" y="52"/>
      <point x="131" y="140"/>
      <point x="131" y="228" type="curve" smooth="yes"/>
      <point x="131" y="314"/>
      <point x="171" y="389"/>
      <point x="224" y="389" type="curve" smooth="yes"/>
      <point x="308" y="389"/>
      <point x="365" y="323"/>
      <point x="365" y="259" type="curve"/>
      <point x="397" y="311" type="line"/>
      <point x="384" y="379"/>
      <point x="305" y="435"/>
      <point x="235" y="435" type="curve" smooth="yes"/>
      <point x="131" y="435"/>
      <point x="33" y="360"/>
      <point x="33" y="216" type="curve" smooth="yes"/>
      <point x="33" y="62"/>
      <point x="161" y="-12"/>
      <point x="255" y="-5" type="curve" smooth="yes"/>
      <point x="382" y="4"/>
      <point x="448" y="118"/>
      <point x="448" y="307" type="curve" smooth="yes"/>
      <point x="448" y="549"/>
      <point x="397" y="729"/>
      <point x="250" y="729" type="curve" smooth="yes"/>
      <point x="138" y="729"/>
      <point x="98" y="644"/>
      <point x="83" y="589" type="curve"/>
      <point x="101" y="565" type="line"/>
      <point x="125" y="638"/>
      <point x="161" y="677"/>
      <point x="218" y="677" type="curve" smooth="yes"/>
      <point x="330" y="677"/>
      <point x="363" y="437"/>
    </contour>
  </outline>
</glyph>
<glyph name="Delta" format="2">
  <advance width="602"/>
  <unicode hex="2206"/>
  <anchor x="307" y="660" name="top"/>
  <outline>
    <contour>
      <point x="28" y="31" type="line"/>
      <point x="113" y="214"/>
      <point x="226" y="492"/>
      <point x="285" y="666" type="curve"/>
      <point x="322" y="666" type="line"/>
      <point x="308" y="630"/>
      <point x="304" y="610"/>
      <point x="288" y="538" type="curve"/>
      <point x="231" y="398"/>
      <point x="130" y="126"/>
      <point x="111" y="51" type="curve"/>
      <point x="173" y="52"/>
      <point x="233" y="53"/>
      <point x="295" y="53" type="curve" smooth="yes"/>
      <point x="350" y="53"/>
      <point x="404" y="52"/>
      <point x="459" y="51" type="curve"/>
      <point x="426" y="153"/>
      <point x="341" y="376"/>
      <point x="272" y="541" type="curve"/>
      <point x="267" y="567"/>
      <point x="300" y="666"/>
      <point x="322" y="666" type="curve"/>
      <point x="406" y="431"/>
      <point x="489" y="229"/>
      <point x="574" y="31" type="curve"/>
      <point x="560" y="0" type="line"/>
      <point x="489" y="2"/>
      <point x="339" y="3"/>
      <point x="298" y="3" type="curve" smooth="yes"/>
      <point x="263" y="3"/>
      <point x="108" y="2"/>
      <point x="42" y="0" type="curve"/>
    </contour>
  </outline>
</glyph>
<glyph name="product" format="2">
  <advance width="701"/>
  <unicode hex="220F"/>
  <anchor x="182" y="6" name="ogonek"/>
  <anchor x="165" y="660" name="top"/>
  <outline>
    <contour>
      <point x="33" y="0" type="line"/>
      <point x="74" y="1"/>
      <point x="116" y="3"/>
      <point x="155" y="3" type="curve" smooth="yes"/>
      <point x="201" y="3"/>
      <point x="233" y="2"/>
      <point x="280" y="0" type="curve"/>
      <point x="291" y="30" type="line"/>
      <point x="203" y="51" type="line"/>
      <point x="203" y="145"/>
      <point x="202" y="240"/>
      <point x="202" y="334" type="curve" smooth="yes"/>
      <point x="202" y="428"/>
      <point x="203" y="521"/>
      <point x="203" y="608" type="curve"/>
      <point x="239" y="615"/>
      <point x="274" y="622"/>
      <point x="311" y="625" type="curve" smooth="yes"/>
      <point x="344" y="628"/>
      <point x="357" y="628"/>
      <point x="390" y="625" type="curve" smooth="yes"/>
      <point x="427" y="622"/>
      <point x="462" y="615"/>
      <point x="498" y="608" type="curve"/>
      <point x="501" y="520"/>
      <point x="503" y="426"/>
      <point x="503" y="332" type="curve" smooth="yes"/>
      <point x="503" y="238"/>
      <point x="501" y="143"/>
      <point x="498" y="51" type="curve"/>
      <point x="410" y="30" type="line"/>
      <point x="420" y="0" type="line"/>
      <point x="461" y="1"/>
      <point x="503" y="3"/>
      <point x="542" y="3" type="curve" smooth="yes"/>
      <point x="588" y="3"/>
      <point x="620" y="2"/>
      <point x="667" y="0" type="curve"/>
      <point x="678" y="30" type="line"/>
      <point x="590" y="51" type="line"/>
      <point x="590" y="145"/>
      <point x="589" y="240"/>
      <point x="589" y="334" type="curve" smooth="yes"/>
      <point x="589" y="428"/>
      <point x="590" y="521"/>
      <point x="590" y="608" type="curve"/>
      <point x="678" y="629" type="line"/>
      <point x="667" y="660" type="line"/>
      <point x="625" y="657"/>
      <point x="585" y="656"/>
      <point x="542" y="656" type="curve" smooth="yes"/>
      <point x="503" y="656"/>
      <point x="198" y="656"/>
      <point x="155" y="656" type="curve" smooth="yes"/>
      <point x="116" y="656"/>
      <point x="74" y="658"/>
      <point x="33" y="660" type="curve"/>
      <point x="23" y="629" type="line"/>
      <point x="111" y="608" type="line"/>
      <point x="114" y="520"/>
      <point x="116" y="426"/>
      <point x="116" y="332" type="curve" smooth="yes"/>
      <point x="116" y="238"/>
      <point x="114" y="143"/>
      <point x="111" y="51" type="curve"/>
      <point x="23" y="30" type="line"/>
    </contour>
  </outline>
</glyph>
<glyph name="summation" format="2">
  <advance width="571"/>
  <unicode hex="2211"/>
  <outline>
    <contour>
      <point x="38" y="0" type="line"/>
      <point x="111" y="2"/>
      <point x="208" y="3"/>
      <point x="305" y="3" type="curve" smooth="yes"/>
      <point x="392" y="3"/>
      <point x="476" y="2"/>
      <point x="535" y="0" type="curve"/>
      <point x="530" y="68"/>
      <point x="526" y="124"/>
      <point x="526" y="185" type="curve"/>
      <point x="479" y="185" type="line"/>
      <point x="459" y="70" type="line"/>
      <point x="414" y="56"/>
      <point x="362" y="50"/>
      <point x="308" y="50" type="curve" smooth="yes"/>
      <point x="276" y="50"/>
      <point x="176" y="54"/>
      <point x="130" y="59" type="curve"/>
      <point x="174" y="131"/>
      <point x="270" y="272"/>
      <point x="340" y="355" type="curve"/>
      <point x="277" y="433"/>
      <point x="225" y="511"/>
      <point x="169" y="604" type="curve"/>
      <point x="210" y="610"/>
      <point x="268" y="611"/>
      <point x="300" y="611" type="curve" smooth="yes"/>
      <point x="354" y="611"/>
      <point x="406" y="604"/>
      <point x="451" y="590" type="curve"/>
      <point x="471" y="475" type="line"/>
      <point x="518" y="475" type="line"/>
      <point x="518" y="536"/>
      <point x="522" y="592"/>
      <point x="527" y="660" type="curve"/>
      <point x="468" y="658"/>
      <point x="384" y="657"/>
      <point x="297" y="657" type="curve" smooth="yes"/>
      <point x="200" y="657"/>
      <point x="121" y="658"/>
      <point x="48" y="660" type="curve"/>
      <point x="34" y="629" type="line"/>
      <point x="115" y="513"/>
      <point x="181" y="419"/>
      <point x="241" y="319" type="curve"/>
      <point x="193" y="242"/>
      <point x="94" y="106"/>
      <point x="28" y="30" type="curve"/>
    </contour>
  </outline>
</glyph>
<glyph name="minus" format="2">
  <advance width="521"/>
  <unicode hex="2212"/>
  <outline>
    <contour>
      <point x="496" y="361" type="line"/>
      <point x="25" y="361" type="line"/>
      <point x="25" y="298" type="line"/>
      <point x="496" y="298" type="line"/>
    </contour>
  </outline>
</glyph>
<glyph name="divisionslash" format="2">
  <advance width="149"/>
  <unicode hex="2215"/>
  <outline>
    <contour>
      <point x="-205" y="-48" type="line"/>
      <point x="-144" y="-48" type="line"/>
      <point x="404" y="693" type="line"/>
      <point x="342" y="693" type="line"/>
    </contour>
  </outline>
</glyph>
<glyph name="uni2219" format="2">
  <advance width="162"/>
  <unicode hex="2219"/>
  <outline>
    <contour>
      <point x="81" y="229" type="curve" smooth="yes"/>
      <point x="111" y="229"/>
      <point x="137" y="256"/>
      <point x="137" y="290" type="curve" smooth="yes"/>
      <point x="137" y="322"/>
      <point x="111" y="349"/>
      <point x="81" y="349" type="curve" smooth="yes"/>
      <point x="49" y="349"/>
      <point x="25" y="322"/>
      <point x="25" y="290" type="curve" smooth="yes"/>
      <point x="25" y="256"/>
      <point x="49" y="229"/>
    </contour>
  </outline>
</glyph>
<glyph name="radical" format="2">
  <advance width="642"/>
  <unicode hex="221A"/>
  <outline>
    <contour>
      <point x="316" y="-46" type="line"/>
      <point x="383" y="-46" type="line"/>
      <point x="633" y="705" type="line"/>
      <point x="742" y="728" type="line"/>
      <point x="730" y="762" type="line"/>
      <point x="586" y="763" type="line"/>
      <point x="355" y="66" type="line"/>
      <point x="182" y="359" type="line"/>
      <point x="143" y="359"/>
      <point x="86" y="361"/>
      <point x="1" y="361" type="curve"/>
      <point x="1" y="354"/>
      <point x="0" y="330"/>
      <point x="0" y="325" type="curve"/>
      <point x="112" y="302" type="line"/>
    </contour>
  </outline>
</glyph>
<glyph name="infinity" format="2">
  <advance width="640"/>
  <unicode hex="221E"/>
  <outline>
    <contour>
      <point x="149" y="174" type="curve" smooth="yes"/>
      <point x="242" y="174"/>
      <point x="285" y="248"/>
      <point x="327" y="293" type="curve"/>
      <point x="296" y="333" type="line"/>
      <point x="254" y="288"/>
      <point x="192" y="245"/>
      <point x="140" y="245" type="curve" smooth="yes"/>
      <point x="89" y="245"/>
      <point x="58" y="283"/>
      <point x="58" y="320" type="curve" smooth="yes"/>
      <point x="58" y="360"/>
      <point x="101" y="396"/>
      <point x="141" y="396" type="curve" smooth="yes"/>
      <point x="242" y="396"/>
      <point x="310" y="174"/>
      <point x="477" y="174" type="curve" smooth="yes"/>
      <point x="572" y="174"/>
      <point x="616" y="224"/>
      <point x="616" y="330" type="curve" smooth="yes"/>
      <point x="616" y="432"/>
      <point x="558" y="474"/>
      <point x="492" y="474" type="curve" smooth="yes"/>
      <point x="398" y="474"/>
      <point x="357" y="397"/>
      <point x="313" y="352" type="curve"/>
      <point x="344" y="314" type="line"/>
      <point x="386" y="359"/>
      <point x="449" y="402"/>
      <point x="501" y="402" type="curve" smooth="yes"/>
      <point x="551" y="402"/>
      <point x="582" y="365"/>
      <point x="582" y="328" type="curve" smooth="yes"/>
      <point x="582" y="288"/>
      <point x="539" y="250"/>
      <point x="499" y="250" type="curve" smooth="yes"/>
      <point x="397" y="250"/>
      <point x="328" y="474"/>
      <point x="163" y="474" type="curve" smooth="yes"/>
      <point x="74" y="474"/>
      <point x="24" y="424"/>
      <point x="24" y="318" type="curve" smooth="yes"/>
      <point x="24" y="216"/>
      <point x="83" y="174"/>
    </contour>
  </outline>
</glyph>
<glyph name="integral" format="2">
  <advance width="375"/>
  <unicode hex="222B"/>
  <outline>
    <contour>
      <point x="49" y="-225" type="curve"/>
      <point x="-12" y="-222"/>
      <point x="-37" y="-175"/>
      <point x="-50" y="-122" type="curve"/>
      <point x="-79" y="-122" type="line"/>
      <point x="-103" y="-150"/>
      <point x="-122" y="-179"/>
      <point x="-122" y="-217" type="curve"/>
      <point x="-99" y="-254"/>
      <point x="-57" y="-273"/>
      <point x="-7" y="-273" type="curve"/>
      <point x="72" y="-273"/>
      <point x="193" y="-201"/>
      <point x="208" y="-63" type="curve" smooth="yes"/>
      <point x="211" y="-31"/>
      <point x="225" y="524"/>
      <point x="228" y="556" type="curve" smooth="yes"/>
      <point x="236" y="642"/>
      <point x="256" y="705"/>
      <point x="304" y="736" type="curve"/>
      <point x="365" y="733"/>
      <point x="390" y="686"/>
      <point x="403" y="633" type="curve"/>
      <point x="432" y="633" type="line"/>
      <point x="456" y="661"/>
      <point x="475" y="690"/>
      <point x="475" y="728" type="curve"/>
      <point x="452" y="765"/>
      <point x="410" y="784"/>
      <point x="360" y="784" type="curve" smooth="yes"/>
      <point x="271" y="784"/>
      <point x="167" y="707"/>
      <point x="141" y="542" type="curve" smooth="yes"/>
      <point x="136" y="510"/>
      <point x="128" y="-15"/>
      <point x="126" y="-47" type="curve" smooth="yes"/>
      <point x="120" y="-132"/>
      <point x="87" y="-200"/>
    </contour>
  </outline>
</glyph>
<glyph name="approxequal" format="2">
  <advance width="548"/>
  <unicode hex="2248"/>
  <outline>
    <contour>
      <point x="375" y="344" type="curve" smooth="yes"/>
      <point x="427" y="344"/>
      <point x="474" y="412"/>
      <point x="523" y="469" type="curve"/>
      <point x="501" y="489" type="line"/>
      <point x="472" y="462"/>
      <point x="436" y="434"/>
      <point x="405" y="414" type="curve"/>
      <point x="340" y="414"/>
      <point x="281" y="503"/>
      <point x="196" y="503" type="curve" smooth="yes"/>
      <point x="123" y="503"/>
      <point x="63" y="415"/>
      <point x="25" y="375" type="curve"/>
      <point x="50" y="355" type="line"/>
      <point x="66" y="368"/>
      <point x="116" y="418"/>
      <point x="166" y="439" type="curve"/>
      <point x="214" y="439"/>
      <point x="306" y="344"/>
    </contour>
    <contour>
      <point x="375" y="164" type="curve" smooth="yes"/>
      <point x="427" y="164"/>
      <point x="474" y="232"/>
      <point x="523" y="289" type="curve"/>
      <point x="501" y="309" type="line"/>
      <point x="472" y="282"/>
      <point x="436" y="254"/>
      <point x="405" y="234" type="curve"/>
      <point x="340" y="234"/>
      <point x="281" y="323"/>
      <point x="196" y="323" type="curve" smooth="yes"/>
      <point x="123" y="323"/>
      <point x="63" y="235"/>
      <point x="25" y="195" type="curve"/>
      <point x="50" y="175" type="line"/>
      <point x="66" y="188"/>
      <point x="116" y="238"/>
      <point x="166" y="259" type="curve"/>
      <point x="214" y="259"/>
      <point x="306" y="164"/>
    </contour>
  </outline>
</glyph>
<glyph name="lessequal" format="2">
  <advance width="535"/>
  <unicode hex="2264"/>
  <outline>
    <contour>
      <point x="35" y="395" type="line"/>
      <point x="35" y="345" type="line"/>
      <point x="500" y="144" type="line"/>
      <point x="500" y="206" type="line"/>
      <point x="77" y="391" type="line"/>
      <point x="77" y="348" type="line"/>
      <point x="500" y="535" type="line"/>
      <point x="500" y="595" type="line"/>
    </contour>
    <contour>
      <point x="500" y="102" type="line"/>
      <point x="359" y="99"/>
      <point x="176" y="99"/>
      <point x="35" y="102" type="curve"/>
      <point x="35" y="39" type="line"/>
      <point x="176" y="42"/>
      <point x="359" y="42"/>
      <point x="500" y="39" type="curve"/>
    </contour>
  </outline>
</glyph>
<glyph name="greaterequal" format="2">
  <advance width="535"/>
  <unicode hex="2265"/>
  <outline>
    <contour>
      <point x="500" y="395" type="line"/>
      <point x="35" y="595" type="line"/>
      <point x="35" y="535" type="line"/>
      <point x="458" y="348" type="line"/>
      <point x="458" y="391" type="line"/>
      <point x="35" y="206" type="line"/>
      <point x="35" y="144" type="line"/>
      <point x="500" y="345" type="line"/>
    </contour>
    <contour>
      <point x="500" y="102" type="line"/>
      <point x="359" y="99"/>
      <point x="176" y="99"/>
      <point x="35" y="102" type="curve"/>
      <point x="35" y="39" type="line"/>
      <point x="176" y="42"/>
      <point x="359" y="42"/>
      <point x="500" y="39" type="curve"/>
    </contour>
  </outline>
</glyph>
<glyph name="lozenge" format="2">
  <advance width="611"/>
  <unicode hex="25CA"/>
  <outline>
    <contour>
      <point x="601" y="370" type="line"/>
      <point x="305" y="760" type="line"/>
      <point x="10" y="370" type="line"/>
      <point x="305" y="-20" type="line"/>
    </contour>
    <contour>
      <point x="305" y="652" type="line"/>
      <point x="519" y="370" type="line"/>
      <point x="305" y="88" type="line"/>
      <point x="92" y="370" type="line"/>
    </contour>
  </outline>
</glyph>
<glyph name="dottedCircle" format="2">
  <advance width="507"/>
  <unicode hex="25CC"/>
  <anchor x="254" y="-2" name="bottom"/>
  <anchor x="254" y="435" name="top"/>
  <outline>
    <contour>
      <point x="273" y="41" type="curve"/>
      <point x="268" y="44"/>
      <point x="261" y="45"/>
      <point x="254" y="45" type="curve" smooth="yes"/>
      <point x="246" y="45"/>
      <point x="239" y="44"/>
      <point x="234" y="41" type="curve"/>
      <point x="232" y="36"/>
      <point x="230" y="29"/>
      <point x="230" y="22" type="curve" smooth="yes"/>
      <point x="230" y="14"/>
      <point x="232" y="7"/>
      <point x="234" y="2" type="curve"/>
      <point x="239" y="-1"/>
      <point x="246" y="-2"/>
      <point x="254" y="-2" type="curve" smooth="yes"/>
      <point x="261" y="-2"/>
      <point x="268" y="-1"/>
      <point x="273" y="2" type="curve"/>
      <point x="276" y="7"/>
      <point x="277" y="14"/>
      <point x="277" y="21" type="curve" smooth="yes"/>
      <point x="277" y="29"/>
      <point x="276" y="36"/>
    </contour>
    <contour>
      <point x="273" y="431" type="curve"/>
      <point x="268" y="434"/>
      <point x="261" y="435"/>
      <point x="254" y="435" type="curve" smooth="yes"/>
      <point x="246" y="435"/>
      <point x="239" y="434"/>
      <point x="234" y="431" type="curve"/>
      <point x="232" y="426"/>
      <point x="230" y="419"/>
      <point x="230" y="412" type="curve" smooth="yes"/>
      <point x="230" y="404"/>
      <point x="232" y="397"/>
      <point x="234" y="392" type="curve"/>
      <point x="239" y="390"/>
      <point x="246" y="388"/>
      <point x="254" y="388" type="curve" smooth="yes"/>
      <point x="261" y="388"/>
      <point x="268" y="390"/>
      <point x="273" y="392" type="curve"/>
      <point x="276" y="397"/>
      <point x="277" y="404"/>
      <point x="277" y="411" type="curve" smooth="yes"/>
      <point x="277" y="419"/>
      <point x="276" y="426"/>
    </contour>
    <contour>
      <point x="78" y="197" type="curve"/>
      <point x="81" y="202"/>
      <point x="82" y="209"/>
      <point x="82" y="217" type="curve" smooth="yes"/>
      <point x="82" y="224"/>
      <point x="81" y="231"/>
      <point x="78" y="236" type="curve"/>
      <point x="73" y="239"/>
      <point x="66" y="240"/>
      <point x="59" y="240" type="curve" smooth="yes"/>
      <point x="51" y="240"/>
      <point x="44" y="239"/>
      <point x="39" y="236" type="curve"/>
      <point x="37" y="231"/>
      <point x="35" y="224"/>
      <point x="35" y="217" type="curve" smooth="yes"/>
      <point x="35" y="209"/>
      <point x="37" y="202"/>
      <point x="39" y="197" type="curve"/>
      <point x="44" y="195"/>
      <point x="51" y="193"/>
      <point x="58" y="193" type="curve" smooth="yes"/>
      <point x="66" y="193"/>
      <point x="73" y="195"/>
    </contour>
    <contour>
      <point x="468" y="197" type="curve"/>
      <point x="471" y="202"/>
      <point x="472" y="209"/>
      <point x="472" y="217" type="curve" smooth="yes"/>
      <point x="472" y="224"/>
      <point x="471" y="231"/>
      <point x="468" y="236" type="curve"/>
      <point x="463" y="239"/>
      <point x="456" y="240"/>
      <point x="449" y="240" type="curve" smooth="yes"/>
      <point x="441" y="240"/>
      <point x="434" y="239"/>
      <point x="429" y="236" type="curve"/>
      <point x="427" y="231"/>
      <point x="425" y="224"/>
      <point x="425" y="217" type="curve" smooth="yes"/>
      <point x="425" y="209"/>
      <point x="427" y="202"/>
      <point x="429" y="197" type="curve"/>
      <point x="434" y="195"/>
      <point x="441" y="193"/>
      <point x="448" y="193" type="curve" smooth="yes"/>
      <point x="456" y="193"/>
      <point x="463" y="195"/>
    </contour>
    <contour>
      <point x="183" y="55" type="curve"/>
      <point x="176" y="64"/>
      <point x="160" y="74"/>
      <point x="149" y="74" type="curve"/>
      <point x="140" y="68"/>
      <point x="130" y="52"/>
      <point x="129" y="40" type="curve"/>
      <point x="136" y="31"/>
      <point x="152" y="22"/>
      <point x="163" y="21" type="curve"/>
      <point x="172" y="26"/>
      <point x="182" y="44"/>
    </contour>
    <contour>
      <point x="378" y="393" type="curve"/>
      <point x="371" y="402"/>
      <point x="355" y="411"/>
      <point x="344" y="412" type="curve"/>
      <point x="335" y="406"/>
      <point x="325" y="389"/>
      <point x="324" y="378" type="curve"/>
      <point x="331" y="369"/>
      <point x="347" y="359"/>
      <point x="358" y="359" type="curve"/>
      <point x="367" y="364"/>
      <point x="377" y="381"/>
    </contour>
    <contour>
      <point x="92" y="287" type="curve"/>
      <point x="101" y="294"/>
      <point x="111" y="310"/>
      <point x="111" y="321" type="curve"/>
      <point x="105" y="330"/>
      <point x="89" y="340"/>
      <point x="77" y="341" type="curve"/>
      <point x="68" y="334"/>
      <point x="59" y="318"/>
      <point x="58" y="307" type="curve"/>
      <point x="63" y="298"/>
      <point x="81" y="288"/>
    </contour>
    <contour>
      <point x="430" y="92" type="curve"/>
      <point x="439" y="99"/>
      <point x="448" y="115"/>
      <point x="449" y="126" type="curve"/>
      <point x="443" y="135"/>
      <point x="426" y="145"/>
      <point x="415" y="146" type="curve"/>
      <point x="406" y="139"/>
      <point x="396" y="123"/>
      <point x="396" y="112" type="curve"/>
      <point x="401" y="103"/>
      <point x="418" y="93"/>
    </contour>
    <contour>
      <point x="112" y="112" type="curve"/>
      <point x="110" y="123"/>
      <point x="101" y="140"/>
      <point x="92" y="145" type="curve"/>
      <point x="81" y="145"/>
      <point x="64" y="136"/>
      <point x="57" y="126" type="curve"/>
      <point x="59" y="115"/>
      <point x="68" y="99"/>
      <point x="77" y="92" type="curve"/>
      <point x="88" y="92"/>
      <point x="105" y="103"/>
    </contour>
    <contour>
      <point x="450" y="307" type="curve"/>
      <point x="448" y="318"/>
      <point x="439" y="334"/>
      <point x="430" y="341" type="curve"/>
      <point x="419" y="340"/>
      <point x="402" y="330"/>
      <point x="395" y="321" type="curve"/>
      <point x="397" y="310"/>
      <point x="406" y="293"/>
      <point x="415" y="288" type="curve"/>
      <point x="426" y="287"/>
      <point x="443" y="297"/>
    </contour>
    <contour>
      <point x="149" y="358" type="curve"/>
      <point x="160" y="360"/>
      <point x="177" y="369"/>
      <point x="182" y="378" type="curve"/>
      <point x="182" y="389"/>
      <point x="173" y="406"/>
      <point x="163" y="413" type="curve"/>
      <point x="152" y="411"/>
      <point x="136" y="402"/>
      <point x="129" y="393" type="curve"/>
      <point x="129" y="382"/>
      <point x="140" y="365"/>
    </contour>
    <contour>
      <point x="344" y="20" type="curve"/>
      <point x="355" y="22"/>
      <point x="371" y="31"/>
      <point x="378" y="40" type="curve"/>
      <point x="377" y="51"/>
      <point x="367" y="68"/>
      <point x="358" y="75" type="curve"/>
      <point x="347" y="73"/>
      <point x="330" y="64"/>
      <point x="325" y="55" type="curve"/>
      <point x="324" y="44"/>
      <point x="334" y="27"/>
    </contour>
  </outline>
</glyph>
<glyph name="fl" format="2">
  <advance width="548"/>
  <unicode hex="FB02"/>
  <anchor x="372" y="0" name="bottom"/>
  <anchor x="372" y="365" name="top"/>
  <anchor x="470" y="365" name="topright"/>
  <outline>
    <contour>
      <point x="97" y="464" type="curve" smooth="yes"/>
      <point x="90" y="320"/>
      <point x="96" y="182"/>
      <point x="93" y="48" type="curve"/>
      <point x="14" y="27" type="line"/>
      <point x="24" y="0" type="line"/>
      <point x="65" y="1"/>
      <point x="98" y="2"/>
      <point x="138" y="3" type="curve" smooth="yes"/>
      <point x="186" y="2"/>
      <point x="241" y="2"/>
      <point x="276" y="0" type="curve"/>
      <point x="287" y="27" type="line"/>
      <point x="182" y="51" type="line"/>
      <point x="179" y="185"/>
      <point x="179" y="429"/>
      <point x="179" y="465" type="curve" smooth="yes"/>
      <point x="179" y="579"/>
      <point x="201" y="657"/>
      <point x="261" y="693" type="curve"/>
      <point x="303" y="695"/>
      <point x="365" y="663"/>
      <point x="369" y="586" type="curve"/>
      <point x="455" y="660" type="line"/>
      <point x="447" y="683"/>
      <point x="407" y="745"/>
      <point x="317" y="745" type="curve" smooth="yes"/>
      <point x="196" y="745"/>
      <point x="105" y="615"/>
    </contour>
    <contour>
      <point x="21" y="418" type="line"/>
      <point x="9" y="382" type="line"/>
      <point x="130" y="378"/>
      <point x="197" y="372"/>
      <point x="286" y="360" type="curve"/>
      <point x="278" y="418" type="line"/>
    </contour>
    <contour>
      <point x="455" y="660" type="curve"/>
      <point x="366" y="683" type="line"/>
      <point x="372" y="528"/>
      <point x="375" y="261"/>
      <point x="370" y="48" type="curve"/>
      <point x="290" y="27" type="line"/>
      <point x="301" y="0" type="line"/>
      <point x="331" y="1"/>
      <point x="375" y="2"/>
      <point x="415" y="2" type="curve" smooth="yes"/>
      <point x="457" y="2"/>
      <point x="496" y="1"/>
      <point x="526" y="0" type="curve"/>
      <point x="537" y="27" type="line"/>
      <point x="458" y="48" type="line"/>
      <point x="454" y="265"/>
      <point x="454" y="438"/>
    </contour>
  </outline>
</glyph>
<glyph name="bismillah-ar" format="2">
  <advance width="5978" height="1892"/>
  <unicode hex="FDFD"/>
  <outline>
    <component base="seen-ar.medi" xOffset="5092"/>
    <component base="meem-ar.fina" xOffset="4721"/>
    <component base="dotbelow-ar" xOffset="5688" yOffset="-30"/>
    <component base="lam-ar.init" xOffset="3271"/>
    <component base="reh-ar.fina" xOffset="2981"/>
    <component base="hah-ar.init" xOffset="2571"/>
    <component base="meem-ar.medi" xOffset="2161"/>
    <component base="yeh-ar.medi" xOffset="441"/>
    <component base="lam-ar.init" xOffset="1521"/>
    <component base="meem-ar.fina" xOffset="21"/>
    <component base="shadda-ar" xOffset="1264" yOffset="-244"/>
    <component base="shadda-ar" xOffset="4065" yOffset="-50"/>
    <component base="shadda-ar" xOffset="3009" yOffset="-244"/>
    <component base="fatha-ar" xOffset="1252" yOffset="-69"/>
    <component base="fatha-ar" xOffset="2268" yOffset="-134"/>
    <component base="fatha-ar" xOffset="4053" yOffset="128"/>
    <component base="fatha-ar" xOffset="4823" yOffset="-662"/>
    <component base="fatha-ar" xOffset="948" yOffset="-662"/>
    <component base="fatha-ar" xOffset="5673" yOffset="-822"/>
    <component base="fatha-ar" xOffset="3863" yOffset="-662"/>
    <component base="fatha-ar" xOffset="4407" yOffset="-616"/>
    <component base="fatha-ar" xOffset="2993" yOffset="-72"/>
    <component base="fatha-ar" xOffset="123" yOffset="-662"/>
    <component base="sukun-ar" xOffset="5261" yOffset="-250"/>
    <component base="sukun-ar" xOffset="2685" yOffset="-220"/>
    <component base="alef-ar.high" xScale="0.89" xOffset="2125" yOffset="19"/>
    <component base="fatha-ar" xOffset="2073" yOffset="-662"/>
    <component base="reh-ar.fina" xOffset="1221"/>
    <component base="fatha-ar" xOffset="3425" yOffset="-616"/>
    <component base="fatha-ar" xOffset="1673" yOffset="-616"/>
    <contour>
      <point x="5683" y="0" type="line"/>
      <point x="5818" y="0" type="line" smooth="yes"/>
      <point x="5895" y="0"/>
      <point x="5928" y="35"/>
      <point x="5928" y="214" type="curve" smooth="yes"/>
      <point x="5928" y="298"/>
      <point x="5918" y="485"/>
      <point x="5895" y="586" type="curve"/>
      <point x="5889" y="594"/>
      <point x="5883" y="594"/>
      <point x="5880" y="594" type="curve"/>
      <point x="5873" y="591"/>
      <point x="5842" y="574"/>
      <point x="5813" y="556" type="curve"/>
      <point x="5863" y="430"/>
      <point x="5872" y="242"/>
      <point x="5872" y="160" type="curve" smooth="yes"/>
      <point x="5872" y="94"/>
      <point x="5855" y="90"/>
      <point x="5820" y="90" type="curve" smooth="yes"/>
      <point x="5683" y="90" type="line"/>
    </contour>
    <contour>
      <point x="1231" y="121" type="curve" smooth="yes"/>
      <point x="1231" y="94"/>
      <point x="1225" y="90"/>
      <point x="1215" y="90" type="curve" smooth="yes"/>
      <point x="721" y="90" type="line"/>
      <point x="721" y="0" type="line"/>
      <point x="1337" y="0" type="line" smooth="yes"/>
      <point x="1343" y="0"/>
      <point x="1349" y="2"/>
      <point x="1349" y="19" type="curve" smooth="yes"/>
      <point x="1349" y="35"/>
      <point x="1342" y="68"/>
      <point x="1330" y="90" type="curve"/>
      <point x="1320" y="90" type="line" smooth="yes"/>
      <point x="1310" y="90"/>
      <point x="1299" y="93"/>
      <point x="1296" y="106" type="curve" smooth="yes"/>
      <point x="1257" y="277"/>
      <point x="1241" y="328"/>
      <point x="1212" y="328" type="curve" smooth="yes"/>
      <point x="1151" y="328"/>
      <point x="1064" y="291"/>
      <point x="930" y="291" type="curve" smooth="yes"/>
      <point x="908" y="291"/>
      <point x="884" y="292"/>
      <point x="859" y="294" type="curve"/>
      <point x="859" y="261"/>
      <point x="875" y="194"/>
      <point x="928" y="194" type="curve" smooth="yes"/>
      <point x="1006" y="194"/>
      <point x="1116" y="237"/>
      <point x="1191" y="237" type="curve" smooth="yes"/>
      <point x="1214" y="237"/>
      <point x="1231" y="153"/>
    </contour>
    <contour>
      <point x="914" y="-606" type="curve" smooth="yes"/>
      <point x="1490" y="-606"/>
      <point x="2125" y="0"/>
      <point x="2134" y="0" type="curve" smooth="yes"/>
      <point x="2183" y="0" type="line"/>
      <point x="2183" y="90" type="line"/>
      <point x="2134" y="90" type="line" smooth="yes"/>
      <point x="2127" y="90"/>
      <point x="2130" y="161"/>
      <point x="2101" y="229" type="curve" smooth="yes"/>
      <point x="2094" y="246"/>
      <point x="2094" y="253"/>
      <point x="2080" y="253" type="curve"/>
      <point x="2068" y="250"/>
      <point x="2036" y="223"/>
      <point x="2013" y="208" type="curve"/>
      <point x="2043" y="161"/>
      <point x="2068" y="121"/>
      <point x="2068" y="75" type="curve" smooth="yes"/>
      <point x="2068" y="50"/>
      <point x="1434" y="-515"/>
      <point x="921" y="-515" type="curve" smooth="yes"/>
      <point x="821" y="-515"/>
      <point x="775" y="-477"/>
      <point x="775" y="-417" type="curve" smooth="yes"/>
      <point x="775" y="-383"/>
      <point x="797" y="-340"/>
      <point x="847" y="-294" type="curve"/>
      <point x="849" y="-286"/>
      <point x="843" y="-275"/>
      <point x="838" y="-272" type="curve"/>
      <point x="752" y="-329"/>
      <point x="711" y="-396"/>
      <point x="711" y="-455" type="curve" smooth="yes"/>
      <point x="711" y="-538"/>
      <point x="774" y="-606"/>
    </contour>
    <contour>
      <point x="4079" y="158" type="curve" smooth="yes"/>
      <point x="4079" y="102"/>
      <point x="4076" y="93"/>
      <point x="4016" y="90" type="curve" smooth="yes"/>
      <point x="4008" y="90"/>
      <point x="3992" y="89"/>
      <point x="3974" y="89" type="curve" smooth="yes"/>
      <point x="3932" y="89"/>
      <point x="3877" y="91"/>
      <point x="3877" y="98" type="curve" smooth="yes"/>
      <point x="3877" y="145"/>
      <point x="4020" y="286"/>
      <point x="4065" y="286" type="curve" smooth="yes"/>
      <point x="4070" y="286"/>
      <point x="4079" y="267"/>
    </contour>
    <contour>
      <point x="4562" y="567" type="curve"/>
      <point x="4557" y="574"/>
      <point x="4553" y="578"/>
      <point x="4550" y="578" type="curve" smooth="yes"/>
      <point x="4534" y="578"/>
      <point x="4509" y="572"/>
      <point x="4480" y="554" type="curve"/>
      <point x="4494" y="431"/>
      <point x="4502" y="248"/>
      <point x="4502" y="20" type="curve" smooth="yes"/>
      <point x="4502" y="6"/>
      <point x="4502" y="-7"/>
      <point x="4502" y="-21" type="curve"/>
      <point x="4519" y="-23"/>
      <point x="4550" y="-18"/>
      <point x="4559" y="-6" type="curve"/>
      <point x="4559" y="7"/>
      <point x="4560" y="87"/>
      <point x="4560" y="161" type="curve" smooth="yes"/>
      <point x="4560" y="173"/>
      <point x="4560" y="186"/>
      <point x="4560" y="201" type="curve" smooth="yes"/>
      <point x="4560" y="291"/>
      <point x="4562" y="433"/>
      <point x="4562" y="528" type="curve" smooth="yes"/>
      <point x="4562" y="542"/>
      <point x="4562" y="555"/>
    </contour>
    <contour>
      <point x="4425" y="190" type="curve" smooth="yes"/>
      <point x="4424" y="300"/>
      <point x="4417" y="407"/>
      <point x="4411" y="535" type="curve"/>
      <point x="4406" y="542"/>
      <point x="4402" y="546"/>
      <point x="4399" y="546" type="curve" smooth="yes"/>
      <point x="4383" y="546"/>
      <point x="4343" y="527"/>
      <point x="4314" y="509" type="curve"/>
      <point x="4343" y="394"/>
      <point x="4371" y="242"/>
      <point x="4371" y="160" type="curve" smooth="yes"/>
      <point x="4371" y="94"/>
      <point x="4354" y="90"/>
      <point x="4319" y="90" type="curve" smooth="yes"/>
      <point x="4297" y="90" type="line" smooth="yes"/>
      <point x="4276" y="90"/>
      <point x="4270" y="92"/>
      <point x="4269" y="140" type="curve" smooth="yes"/>
      <point x="4266" y="300"/>
      <point x="4262" y="367"/>
      <point x="4255" y="475" type="curve"/>
      <point x="4250" y="482"/>
      <point x="4246" y="486"/>
      <point x="4243" y="486" type="curve" smooth="yes"/>
      <point x="4227" y="486"/>
      <point x="4187" y="467"/>
      <point x="4158" y="449" type="curve"/>
      <point x="4193" y="324"/>
      <point x="4210" y="232"/>
      <point x="4210" y="140" type="curve" smooth="yes"/>
      <point x="4210" y="94"/>
      <point x="4204" y="90"/>
      <point x="4175" y="90" type="curve" smooth="yes"/>
      <point x="4165" y="90" type="line" smooth="yes"/>
      <point x="4129" y="90"/>
      <point x="4138" y="192"/>
      <point x="4129" y="356" type="curve"/>
      <point x="4123" y="369"/>
      <point x="4091" y="395"/>
      <point x="4075" y="395" type="curve" smooth="yes"/>
      <point x="4031" y="395"/>
      <point x="3809" y="194"/>
      <point x="3773" y="98" type="curve" smooth="yes"/>
      <point x="3772" y="96"/>
      <point x="3772" y="92"/>
      <point x="3772" y="87" type="curve" smooth="yes"/>
      <point x="3772" y="64"/>
      <point x="3780" y="20"/>
      <point x="3792" y="0" type="curve"/>
      <point x="3822" y="1"/>
      <point x="3854" y="2"/>
      <point x="3887" y="2" type="curve" smooth="yes"/>
      <point x="3953" y="2"/>
      <point x="4024" y="0"/>
      <point x="4095" y="0" type="curve" smooth="yes"/>
      <point x="4297" y="0" type="line"/>
      <point x="4333" y="0" type="line" smooth="yes"/>
      <point x="4415" y="0"/>
      <point x="4427" y="20"/>
      <point x="4427" y="91" type="curve" smooth="yes"/>
      <point x="4427" y="117"/>
      <point x="4425" y="149"/>
    </contour>
    <contour>
      <point x="3580" y="567" type="curve"/>
      <point x="3575" y="574"/>
      <point x="3571" y="578"/>
      <point x="3568" y="578" type="curve" smooth="yes"/>
      <point x="3552" y="578"/>
      <point x="3527" y="572"/>
      <point x="3498" y="554" type="curve"/>
      <point x="3512" y="431"/>
      <point x="3520" y="248"/>
      <point x="3520" y="20" type="curve" smooth="yes"/>
      <point x="3520" y="6"/>
      <point x="3520" y="-7"/>
      <point x="3520" y="-21" type="curve"/>
      <point x="3537" y="-23"/>
      <point x="3568" y="-18"/>
      <point x="3577" y="-6" type="curve"/>
      <point x="3577" y="7"/>
      <point x="3578" y="87"/>
      <point x="3578" y="161" type="curve" smooth="yes"/>
      <point x="3578" y="173"/>
      <point x="3578" y="186"/>
      <point x="3578" y="201" type="curve" smooth="yes"/>
      <point x="3578" y="291"/>
      <point x="3580" y="433"/>
      <point x="3580" y="528" type="curve" smooth="yes"/>
      <point x="3580" y="542"/>
      <point x="3580" y="555"/>
    </contour>
    <contour>
      <point x="1832" y="567" type="curve"/>
      <point x="1827" y="574"/>
      <point x="1823" y="578"/>
      <point x="1820" y="578" type="curve" smooth="yes"/>
      <point x="1804" y="578"/>
      <point x="1779" y="572"/>
      <point x="1750" y="554" type="curve"/>
      <point x="1764" y="431"/>
      <point x="1772" y="248"/>
      <point x="1772" y="20" type="curve" smooth="yes"/>
      <point x="1772" y="6"/>
      <point x="1772" y="-7"/>
      <point x="1772" y="-21" type="curve"/>
      <point x="1789" y="-23"/>
      <point x="1820" y="-18"/>
      <point x="1829" y="-6" type="curve"/>
      <point x="1829" y="7"/>
      <point x="1830" y="87"/>
      <point x="1830" y="161" type="curve" smooth="yes"/>
      <point x="1830" y="173"/>
      <point x="1830" y="186"/>
      <point x="1830" y="201" type="curve" smooth="yes"/>
      <point x="1830" y="291"/>
      <point x="1832" y="433"/>
      <point x="1832" y="528" type="curve" smooth="yes"/>
      <point x="1832" y="542"/>
      <point x="1832" y="555"/>
    </contour>
  </outline>
</glyph>
<glyph name="lam_alef-ar" format="2">
  <advance width="445"/>
  <unicode hex="FEFB"/>
  <anchor x="362" y="-30" name="bottom_1"/>
  <anchor x="99" y="-30" name="bottom_2"/>
  <anchor x="243" y="0" name="caret_1"/>
  <anchor x="304" y="664" name="top_1"/>
  <anchor x="62" y="605" name="top_2"/>
  <outline>
    <contour>
      <point x="364" y="631" type="curve"/>
      <point x="359" y="638"/>
      <point x="355" y="642"/>
      <point x="352" y="642" type="curve" smooth="yes"/>
      <point x="336" y="642"/>
      <point x="317" y="633"/>
      <point x="269" y="605" type="curve"/>
      <point x="292" y="495"/>
      <point x="308" y="423"/>
      <point x="308" y="356" type="curve" smooth="yes"/>
      <point x="308" y="287"/>
      <point x="290" y="273"/>
      <point x="124" y="167" type="curve" smooth="yes"/>
      <point x="75" y="136"/>
      <point x="70" y="130"/>
      <point x="70" y="109" type="curve" smooth="yes"/>
      <point x="70" y="39"/>
      <point x="87" y="0"/>
      <point x="119" y="0" type="curve" smooth="yes"/>
      <point x="167" y="0"/>
      <point x="264" y="0"/>
      <point x="338" y="0" type="curve"/>
      <point x="363" y="0"/>
      <point x="375" y="60"/>
      <point x="375" y="106" type="curve"/>
      <point x="297" y="229"/>
      <point x="196" y="418"/>
      <point x="129" y="576" type="curve"/>
      <point x="119" y="576"/>
      <point x="109" y="575"/>
      <point x="99" y="572" type="curve"/>
      <point x="91" y="546"/>
      <point x="84" y="511"/>
      <point x="79" y="462" type="curve"/>
      <point x="174" y="310"/>
      <point x="225" y="233"/>
      <point x="304" y="117" type="curve" smooth="yes"/>
      <point x="308" y="111"/>
      <point x="311" y="105"/>
      <point x="311" y="100" type="curve" smooth="yes"/>
      <point x="311" y="94"/>
      <point x="307" y="90"/>
      <point x="297" y="90" type="curve" smooth="yes"/>
      <point x="282" y="90"/>
      <point x="189" y="90"/>
      <point x="167" y="90" type="curve" smooth="yes"/>
      <point x="158" y="90"/>
      <point x="157" y="93"/>
      <point x="226" y="134" type="curve" smooth="yes"/>
      <point x="372" y="221"/>
      <point x="363" y="259"/>
      <point x="366" y="367" type="curve" smooth="yes"/>
      <point x="368" y="444"/>
      <point x="366" y="540"/>
    </contour>
  </outline>
</glyph>
<glyph name="uniFFFD" format="2">
  <advance width="764"/>
  <unicode hex="FFFD"/>
  <outline>
    <contour>
      <point x="391" y="565" type="curve" smooth="yes"/>
      <point x="499" y="565"/>
      <point x="550" y="493"/>
      <point x="550" y="428" type="curve" smooth="yes"/>
      <point x="550" y="349"/>
      <point x="496" y="265"/>
      <point x="387" y="265" type="curve"/>
      <point x="386" y="239"/>
      <point x="384" y="202"/>
      <point x="384" y="186" type="curve"/>
      <point x="347" y="186" type="line"/>
      <point x="345" y="226"/>
      <point x="339" y="279"/>
      <point x="337" y="321" type="curve"/>
      <point x="347" y="319"/>
      <point x="357" y="319"/>
      <point x="366" y="319" type="curve" smooth="yes"/>
      <point x="452" y="319"/>
      <point x="492" y="368"/>
      <point x="492" y="443" type="curve" smooth="yes"/>
      <point x="492" y="478"/>
      <point x="471" y="514"/>
      <point x="436" y="529" type="curve"/>
      <point x="431" y="529"/>
      <point x="426" y="530"/>
      <point x="421" y="530" type="curve" smooth="yes"/>
      <point x="391" y="530"/>
      <point x="367" y="523"/>
      <point x="343" y="512" type="curve"/>
      <point x="332" y="455" type="line"/>
      <point x="302" y="455" type="line"/>
      <point x="296" y="495"/>
      <point x="290" y="513"/>
      <point x="282" y="546" type="curve"/>
      <point x="310" y="556"/>
      <point x="345" y="565"/>
    </contour>
    <contour>
      <point x="366" y="144" type="curve" smooth="yes"/>
      <point x="376" y="144"/>
      <point x="386" y="142"/>
      <point x="397" y="139" type="curve"/>
      <point x="399" y="128"/>
      <point x="401" y="119"/>
      <point x="401" y="108" type="curve" smooth="yes"/>
      <point x="401" y="97"/>
      <point x="399" y="87"/>
      <point x="397" y="76" type="curve"/>
      <point x="386" y="73"/>
      <point x="376" y="70"/>
      <point x="366" y="70" type="curve" smooth="yes"/>
      <point x="354" y="70"/>
      <point x="344" y="73"/>
      <point x="333" y="76" type="curve"/>
      <point x="331" y="87"/>
      <point x="330" y="97"/>
      <point x="330" y="108" type="curve" smooth="yes"/>
      <point x="330" y="119"/>
      <point x="331" y="128"/>
      <point x="333" y="139" type="curve"/>
      <point x="344" y="142"/>
      <point x="354" y="144"/>
    </contour>
    <contour>
      <point x="390" y="740" type="line"/>
      <point x="0" y="350" type="line"/>
      <point x="390" y="-40" type="line"/>
      <point x="780" y="350" type="line"/>
    </contour>
  </outline>
</glyph>
<glyph name="a.sc" format="2">
  <advance width="565"/>
  <outline>
    <contour>
      <point x="381" y="45" type="curve"/>
      <point x="302" y="28" type="line"/>
      <point x="314" y="0" type="line"/>
      <point x="362" y="2"/>
      <point x="390" y="3"/>
      <point x="435" y="3" type="curve" smooth="yes"/>
      <point x="476" y="3"/>
      <point x="512" y="1"/>
      <point x="552" y="0" type="curve"/>
      <point x="563" y="28" type="line"/>
      <point x="485" y="48" type="line"/>
      <point x="404" y="244"/>
      <point x="378" y="309"/>
      <point x="301" y="528" type="curve"/>
      <point x="279" y="528"/>
      <point x="244" y="438"/>
      <point x="250" y="412" type="curve"/>
      <point x="315" y="258"/>
      <point x="347" y="169"/>
    </contour>
    <contour>
      <point x="301" y="528" type="curve"/>
      <point x="270" y="528" type="line"/>
      <point x="223" y="393"/>
      <point x="137" y="185"/>
      <point x="71" y="48" type="curve"/>
      <point x="-5" y="28" type="line"/>
      <point x="5" y="0" type="line"/>
      <point x="41" y="2"/>
      <point x="66" y="3"/>
      <point x="102" y="3" type="curve" smooth="yes"/>
      <point x="136" y="3"/>
      <point x="165" y="2"/>
      <point x="208" y="0" type="curve"/>
      <point x="218" y="28" type="line"/>
      <point x="142" y="48" type="line"/>
      <point x="170" y="144"/>
      <point x="214" y="258"/>
      <point x="271" y="398" type="curve"/>
      <point x="286" y="486"/>
      <point x="288" y="495"/>
    </contour>
    <contour>
      <point x="367" y="186" type="line"/>
      <point x="326" y="183"/>
      <point x="295" y="183"/>
      <point x="263" y="183" type="curve" smooth="yes"/>
      <point x="232" y="183"/>
      <point x="194" y="183"/>
      <point x="157" y="186" type="curve"/>
      <point x="157" y="137" type="line"/>
      <point x="189" y="140"/>
      <point x="231" y="140"/>
      <point x="263" y="140" type="curve" smooth="yes"/>
      <point x="295" y="140"/>
      <point x="326" y="140"/>
      <point x="367" y="137" type="curve"/>
    </contour>
  </outline>
</glyph>
<glyph name="ain-ar.fina" format="2">
  <advance width="584"/>
  <anchor x="288" y="-58" name="bottom"/>
  <anchor x="584" y="0" name="entry"/>
  <anchor x="298" y="535" name="top"/>
  <outline>
    <contour>
      <point x="177" y="258" type="curve"/>
      <point x="171" y="259"/>
      <point x="169" y="262"/>
      <point x="172" y="265" type="curve" smooth="yes"/>
      <point x="211" y="304"/>
      <point x="264" y="366"/>
      <point x="288" y="392" type="curve"/>
      <point x="292" y="397"/>
      <point x="293" y="399"/>
      <point x="296" y="399" type="curve" smooth="yes"/>
      <point x="298" y="399"/>
      <point x="299" y="397"/>
      <point x="303" y="393" type="curve"/>
      <point x="337" y="355"/>
      <point x="367" y="317"/>
      <point x="397" y="280" type="curve" smooth="yes"/>
      <point x="403" y="273"/>
      <point x="407" y="270"/>
      <point x="407" y="267" type="curve" smooth="yes"/>
      <point x="407" y="265"/>
      <point x="405" y="264"/>
      <point x="403" y="263" type="curve"/>
      <point x="358" y="249"/>
      <point x="319" y="234"/>
      <point x="285" y="216" type="curve"/>
      <point x="261" y="234"/>
      <point x="226" y="246"/>
    </contour>
    <contour>
      <point x="321" y="136" type="curve" smooth="yes"/>
      <point x="321" y="140"/>
      <point x="322" y="141"/>
      <point x="326" y="143" type="curve" smooth="yes"/>
      <point x="365" y="162"/>
      <point x="413" y="174"/>
      <point x="467" y="185" type="curve"/>
      <point x="487" y="214"/>
      <point x="491" y="233"/>
      <point x="495" y="261" type="curve"/>
      <point x="445" y="317"/>
      <point x="379" y="400"/>
      <point x="331" y="485" type="curve"/>
      <point x="315" y="493"/>
      <point x="276" y="515"/>
      <point x="271" y="507" type="curve"/>
      <point x="211" y="425"/>
      <point x="148" y="354"/>
      <point x="60" y="266" type="curve"/>
      <point x="74" y="225"/>
      <point x="87" y="203"/>
      <point x="102" y="183" type="curve"/>
      <point x="133" y="182"/>
      <point x="176" y="177"/>
      <point x="207" y="169" type="curve" smooth="yes"/>
      <point x="210" y="168"/>
      <point x="209" y="168"/>
      <point x="207" y="166" type="curve" smooth="yes"/>
      <point x="68" y="52"/>
      <point x="73" y="-118"/>
      <point x="82" y="-360" type="curve"/>
      <point x="93" y="-362"/>
      <point x="109" y="-355"/>
      <point x="110" y="-344" type="curve"/>
      <point x="111" y="-89"/>
      <point x="155" y="17"/>
      <point x="255" y="99" type="curve" smooth="yes"/>
      <point x="256" y="100"/>
      <point x="257" y="101"/>
      <point x="258" y="98" type="curve" smooth="yes"/>
      <point x="264" y="55"/>
      <point x="279" y="0"/>
      <point x="301" y="0" type="curve" smooth="yes"/>
      <point x="604" y="0" type="line"/>
      <point x="604" y="90" type="line"/>
      <point x="342" y="89" type="line" smooth="yes"/>
      <point x="319" y="89"/>
      <point x="321" y="113"/>
    </contour>
  </outline>
</glyph>
<glyph name="ain-ar.fina.ss06" format="2">
  <advance width="584"/>
  <anchor x="288" y="-334" name="bottom"/>
  <anchor x="584" y="0" name="entry"/>
  <anchor x="288" y="525" name="top"/>
  <outline>
    <contour>
      <point x="177" y="258" type="curve"/>
      <point x="171" y="259"/>
      <point x="169" y="262"/>
      <point x="172" y="265" type="curve" smooth="yes"/>
      <point x="211" y="304"/>
      <point x="264" y="366"/>
      <point x="288" y="392" type="curve" smooth="yes"/>
      <point x="292" y="397"/>
      <point x="293" y="399"/>
      <point x="296" y="399" type="curve" smooth="yes"/>
      <point x="298" y="399"/>
      <point x="299" y="397"/>
      <point x="303" y="393" type="curve" smooth="yes"/>
      <point x="337" y="355"/>
      <point x="367" y="317"/>
      <point x="397" y="280" type="curve" smooth="yes"/>
      <point x="403" y="273"/>
      <point x="407" y="267"/>
      <point x="407" y="264" type="curve" smooth="yes"/>
      <point x="407" y="255"/>
      <point x="400" y="254"/>
      <point x="377" y="247" type="curve" smooth="yes"/>
      <point x="344" y="238"/>
      <point x="323" y="230"/>
      <point x="296" y="218" type="curve"/>
      <point x="264" y="239"/>
      <point x="217" y="250"/>
    </contour>
    <contour>
      <point x="324" y="152"/>
      <point x="325" y="154"/>
      <point x="336" y="158" type="curve" smooth="yes"/>
      <point x="371" y="170"/>
      <point x="417" y="179"/>
      <point x="467" y="185" type="curve"/>
      <point x="487" y="214"/>
      <point x="491" y="233"/>
      <point x="495" y="261" type="curve"/>
      <point x="445" y="317"/>
      <point x="379" y="400"/>
      <point x="331" y="485" type="curve"/>
      <point x="315" y="493"/>
      <point x="276" y="515"/>
      <point x="271" y="507" type="curve"/>
      <point x="211" y="425"/>
      <point x="148" y="354"/>
      <point x="60" y="266" type="curve"/>
      <point x="74" y="225"/>
      <point x="87" y="203"/>
      <point x="102" y="183" type="curve"/>
      <point x="141" y="181"/>
      <point x="173" y="178"/>
      <point x="198" y="171" type="curve" smooth="yes"/>
      <point x="201" y="170"/>
      <point x="202" y="168"/>
      <point x="199" y="166" type="curve" smooth="yes"/>
      <point x="95" y="95"/>
      <point x="54" y="4"/>
      <point x="54" y="-78" type="curve" smooth="yes"/>
      <point x="54" y="-209"/>
      <point x="148" y="-307"/>
      <point x="272" y="-307" type="curve" smooth="yes"/>
      <point x="351" y="-307"/>
      <point x="434" y="-275"/>
      <point x="496" y="-193" type="curve"/>
      <point x="493" y="-186"/>
      <point x="491" y="-182"/>
      <point x="485" y="-178" type="curve"/>
      <point x="427" y="-234"/>
      <point x="359" y="-261"/>
      <point x="301" y="-261" type="curve" smooth="yes"/>
      <point x="210" y="-261"/>
      <point x="140" y="-191"/>
      <point x="140" y="-87" type="curve" smooth="yes"/>
      <point x="140" y="-15"/>
      <point x="168" y="54"/>
      <point x="255" y="116" type="curve" smooth="yes"/>
      <point x="262" y="121"/>
      <point x="264" y="120"/>
      <point x="264" y="116" type="curve" smooth="yes"/>
      <point x="269" y="21"/>
      <point x="282" y="0"/>
      <point x="296" y="0" type="curve" smooth="yes"/>
      <point x="604" y="0" type="line"/>
      <point x="604" y="90" type="line"/>
      <point x="344" y="89" type="line" smooth="yes"/>
      <point x="332" y="89"/>
      <point x="327" y="90"/>
      <point x="325" y="138" type="curve" smooth="yes"/>
    </contour>
  </outline>
</glyph>
<glyph name="alef-ar.allah" format="2">
  <advance width="173"/>
  <anchor x="73" y="-50" name="bottom"/>
  <anchor x="65" y="614" name="top"/>
  <outline>
    <contour>
      <point x="105" y="567" type="curve"/>
      <point x="100" y="574"/>
      <point x="96" y="578"/>
      <point x="93" y="578" type="curve" smooth="yes"/>
      <point x="77" y="578"/>
      <point x="52" y="572"/>
      <point x="23" y="554" type="curve"/>
      <point x="38" y="424"/>
      <point x="46" y="226"/>
      <point x="45" y="-21" type="curve"/>
      <point x="62" y="-23"/>
      <point x="93" y="-18"/>
      <point x="102" y="-6" type="curve"/>
      <point x="102" y="7"/>
      <point x="103" y="87"/>
      <point x="103" y="161" type="curve" smooth="yes"/>
      <point x="102" y="253"/>
      <point x="106" y="463"/>
    </contour>
  </outline>
</glyph>
<glyph name="alef-ar.fina.allah" format="2">
  <advance width="195"/>
  <anchor x="75" y="-50" name="bottom"/>
  <anchor x="195" y="0" name="entry"/>
  <anchor x="51" y="631" name="top"/>
  <outline>
    <contour>
      <point x="23" y="554" type="curve"/>
      <point x="49" y="329"/>
      <point x="43" y="180"/>
      <point x="45" y="-22" type="curve"/>
      <point x="60" y="-22"/>
      <point x="89" y="-20"/>
      <point x="100" y="-8" type="curve"/>
      <point x="102" y="1"/>
      <point x="102" y="0"/>
      <point x="108" y="0" type="curve" smooth="yes"/>
      <point x="214" y="0" type="line"/>
      <point x="214" y="7" type="line"/>
      <point x="215" y="90" type="line"/>
      <point x="100" y="90"/>
      <point x="101" y="92"/>
      <point x="101" y="140" type="curve" smooth="yes"/>
      <point x="101" y="345" type="line" smooth="yes"/>
      <point x="101" y="401"/>
      <point x="102" y="492"/>
      <point x="104" y="568" type="curve"/>
      <point x="99" y="575"/>
      <point x="96" y="579"/>
      <point x="93" y="579" type="curve" smooth="yes"/>
      <point x="77" y="579"/>
      <point x="52" y="572"/>
    </contour>
  </outline>
</glyph>
<glyph name="alef-ar.fina.low" format="2">
  <advance width="227"/>
  <anchor x="107" y="-347" name="bottom"/>
  <anchor x="83" y="424" name="top"/>
  <outline>
    <contour>
      <point x="55" y="347" type="curve"/>
      <point x="81" y="122"/>
      <point x="76" y="-96"/>
      <point x="78" y="-328" type="curve"/>
      <point x="93" y="-328"/>
      <point x="118" y="-326"/>
      <point x="129" y="-314" type="curve"/>
      <point x="131" y="-275"/>
      <point x="130" y="-207"/>
      <point x="140" y="-207" type="curve" smooth="yes"/>
      <point x="246" y="-207" type="line"/>
      <point x="246" y="-200" type="line"/>
      <point x="247" y="-117" type="line"/>
      <point x="132" y="-117"/>
      <point x="133" y="-115"/>
      <point x="133" y="-67" type="curve" smooth="yes"/>
      <point x="133" y="138" type="line" smooth="yes"/>
      <point x="133" y="194"/>
      <point x="134" y="285"/>
      <point x="136" y="361" type="curve"/>
      <point x="131" y="368"/>
      <point x="128" y="372"/>
      <point x="125" y="372" type="curve" smooth="yes"/>
      <point x="109" y="372"/>
      <point x="84" y="365"/>
    </contour>
  </outline>
</glyph>
<glyph name="alef-ar.wideshort.fina.low" format="2">
  <advance width="227"/>
  <anchor x="170" y="-236" name="bottom"/>
  <anchor x="83" y="424" name="top"/>
  <outline>
    <contour>
      <point x="55" y="347" type="curve"/>
      <point x="81" y="122"/>
      <point x="75" y="-394"/>
      <point x="84" y="-394" type="curve"/>
      <point x="129" y="-394" type="line"/>
      <point x="129" y="-391"/>
      <point x="130" y="-207"/>
      <point x="140" y="-207" type="curve" smooth="yes"/>
      <point x="246" y="-207" type="line"/>
      <point x="246" y="-200" type="line"/>
      <point x="247" y="-117" type="line"/>
      <point x="132" y="-117"/>
      <point x="133" y="-115"/>
      <point x="133" y="-67" type="curve" smooth="yes"/>
      <point x="133" y="138" type="line" smooth="yes"/>
      <point x="133" y="194"/>
      <point x="134" y="285"/>
      <point x="136" y="361" type="curve"/>
      <point x="131" y="368"/>
      <point x="128" y="372"/>
      <point x="125" y="372" type="curve" smooth="yes"/>
      <point x="109" y="372"/>
      <point x="84" y="365"/>
    </contour>
  </outline>
</glyph>
<glyph name="alef-ar.wideshort" format="2">
  <advance width="246"/>
  <anchor x="180" y="158" name="bottom"/>
  <anchor x="83" y="631" name="top"/>
  <outline>
    <contour>
      <point x="137" y="567" type="curve"/>
      <point x="132" y="574"/>
      <point x="128" y="578"/>
      <point x="125" y="578" type="curve" smooth="yes"/>
      <point x="109" y="578"/>
      <point x="84" y="572"/>
      <point x="55" y="554" type="curve"/>
      <point x="90" y="248"/>
      <point x="78" y="0"/>
      <point x="89" y="0" type="curve"/>
      <point x="134" y="0" type="line"/>
      <point x="134" y="12"/>
      <point x="135" y="87"/>
      <point x="135" y="161" type="curve" smooth="yes"/>
      <point x="134" y="253"/>
      <point x="138" y="463"/>
    </contour>
  </outline>
</glyph>
<glyph name="alefHamzaabove-ar.allah" format="2">
  <advance width="193"/>
  <anchor x="99" y="-56" name="bottom"/>
  <anchor x="94" y="600" name="top"/>
  <outline>
    <component base="alef-ar.allah"/>
    <contour>
      <point x="80" y="409" type="line"/>
      <point x="88" y="409"/>
      <point x="94" y="396"/>
      <point x="104" y="379" type="curve"/>
      <point x="104" y="406"/>
      <point x="105" y="409"/>
      <point x="109" y="409" type="curve" smooth="yes"/>
      <point x="206" y="409" type="line"/>
      <point x="206" y="418"/>
      <point x="205" y="442"/>
      <point x="201" y="442" type="curve" smooth="yes"/>
      <point x="109" y="442" type="line" smooth="yes"/>
      <point x="102" y="442"/>
      <point x="106" y="464"/>
      <point x="112" y="464" type="curve" smooth="yes"/>
      <point x="206" y="464" type="line"/>
      <point x="206" y="474"/>
      <point x="205" y="497"/>
      <point x="201" y="497" type="curve" smooth="yes"/>
      <point x="110" y="497" type="line" smooth="yes"/>
      <point x="105" y="497"/>
      <point x="108" y="520"/>
      <point x="114" y="520" type="curve" smooth="yes"/>
      <point x="206" y="520" type="line"/>
      <point x="206" y="529"/>
      <point x="205" y="553"/>
      <point x="201" y="553" type="curve" smooth="yes"/>
      <point x="112" y="553" type="line" smooth="yes"/>
      <point x="106" y="553"/>
      <point x="105" y="555"/>
      <point x="105" y="567" type="curve"/>
      <point x="96" y="567"/>
      <point x="96" y="553"/>
      <point x="86" y="553" type="curve"/>
    </contour>
  </outline>
</glyph>
<glyph name="alefHamzaabove-ar.fina.allah" format="2">
  <advance width="195"/>
  <anchor x="75" y="-50" name="bottom"/>
  <anchor x="195" y="0" name="entry"/>
  <anchor x="83" y="631" name="top"/>
  <outline>
    <component base="alef-ar.fina.allah"/>
    <contour>
      <point x="101" y="379" type="curve"/>
      <point x="101" y="406"/>
      <point x="102" y="409"/>
      <point x="106" y="409" type="curve" smooth="yes"/>
      <point x="205" y="409" type="line"/>
      <point x="205" y="418"/>
      <point x="204" y="442"/>
      <point x="200" y="442" type="curve" smooth="yes"/>
      <point x="108" y="442" type="line" smooth="yes"/>
      <point x="101" y="442"/>
      <point x="105" y="464"/>
      <point x="111" y="464" type="curve" smooth="yes"/>
      <point x="205" y="464" type="line"/>
      <point x="205" y="474"/>
      <point x="204" y="497"/>
      <point x="200" y="497" type="curve" smooth="yes"/>
      <point x="109" y="497" type="line" smooth="yes"/>
      <point x="104" y="497"/>
      <point x="107" y="520"/>
      <point x="113" y="520" type="curve" smooth="yes"/>
      <point x="205" y="520" type="line"/>
      <point x="205" y="529"/>
      <point x="204" y="553"/>
      <point x="200" y="553" type="curve" smooth="yes"/>
      <point x="110" y="553" type="line" smooth="yes"/>
      <point x="104" y="553"/>
      <point x="104" y="554"/>
      <point x="104" y="568" type="curve"/>
      <point x="95" y="568"/>
      <point x="95" y="553"/>
      <point x="85" y="553" type="curve"/>
      <point x="79" y="409" type="line"/>
      <point x="87" y="409"/>
      <point x="91" y="396"/>
    </contour>
  </outline>
</glyph>
<glyph name="alefMaksura-ar.fina" format="2">
  <advance width="793"/>
  <anchor x="633" y="-110" name="bottom"/>
  <anchor x="793" y="0" name="entry"/>
  <anchor x="444" y="289" name="top"/>
  <outline>
    <contour>
      <point x="502" y="38" type="curve" smooth="yes"/>
      <point x="505" y="35"/>
      <point x="510" y="33"/>
      <point x="509" y="30" type="curve" smooth="yes"/>
      <point x="441" y="-106"/>
      <point x="262" y="-209"/>
      <point x="132" y="-209" type="curve" smooth="yes"/>
      <point x="53" y="-209"/>
      <point x="-6" y="-169"/>
      <point x="-6" y="-78" type="curve" smooth="yes"/>
      <point x="-6" y="-66"/>
      <point x="-5" y="-53"/>
      <point x="-2" y="-39" type="curve"/>
      <point x="-7" y="-35"/>
      <point x="-9" y="-33"/>
      <point x="-15" y="-33" type="curve" smooth="yes"/>
      <point x="-19" y="-33"/>
      <point x="-22" y="-34"/>
      <point x="-25" y="-35" type="curve"/>
      <point x="-42" y="-76"/>
      <point x="-50" y="-113"/>
      <point x="-50" y="-144" type="curve" smooth="yes"/>
      <point x="-50" y="-259"/>
      <point x="22" y="-308"/>
      <point x="119" y="-308" type="curve" smooth="yes"/>
      <point x="277" y="-308"/>
      <point x="470" y="-199"/>
      <point x="585" y="7" type="curve" smooth="yes"/>
      <point x="596" y="27"/>
      <point x="600" y="46"/>
      <point x="600" y="60" type="curve" smooth="yes"/>
      <point x="600" y="68"/>
      <point x="598" y="74"/>
      <point x="594" y="78" type="curve" smooth="yes"/>
      <point x="530" y="136"/>
      <point x="439" y="152"/>
      <point x="439" y="168" type="curve" smooth="yes"/>
      <point x="439" y="175"/>
      <point x="551" y="213"/>
      <point x="609" y="213" type="curve" smooth="yes"/>
      <point x="649" y="213"/>
      <point x="652" y="172"/>
      <point x="654" y="150" type="curve" smooth="yes"/>
      <point x="660" y="97"/>
      <point x="667" y="0"/>
      <point x="696" y="0" type="curve"/>
      <point x="813" y="0" type="line"/>
      <point x="813" y="90" type="line"/>
      <point x="783" y="90"/>
      <point x="768" y="90"/>
      <point x="740" y="90" type="curve" smooth="yes"/>
      <point x="720" y="90"/>
      <point x="717" y="108"/>
      <point x="709" y="188" type="curve" smooth="yes"/>
      <point x="700" y="272"/>
      <point x="685" y="300"/>
      <point x="640" y="300" type="curve" smooth="yes"/>
      <point x="554" y="300"/>
      <point x="458" y="250"/>
      <point x="350" y="188" type="curve"/>
      <point x="350" y="154"/>
      <point x="353" y="117"/>
      <point x="366" y="96" type="curve"/>
      <point x="428" y="76"/>
      <point x="456" y="72"/>
    </contour>
  </outline>
</glyph>
<glyph name="alefMaksura-ar.fina.low" format="2">
  <advance width="793"/>
  <anchor x="633" y="-317" name="bottom"/>
  <anchor x="793" y="0" name="entry"/>
  <anchor x="444" y="82" name="top"/>
  <outline>
    <contour>
      <point x="502" y="-169" type="curve" smooth="yes"/>
      <point x="505" y="-172"/>
      <point x="510" y="-174"/>
      <point x="509" y="-177" type="curve" smooth="yes"/>
      <point x="461" y="-321"/>
      <point x="262" y="-416"/>
      <point x="132" y="-416" type="curve" smooth="yes"/>
      <point x="53" y="-416"/>
      <point x="-6" y="-376"/>
      <point x="-6" y="-285" type="curve" smooth="yes"/>
      <point x="-6" y="-273"/>
      <point x="-5" y="-260"/>
      <point x="-2" y="-246" type="curve"/>
      <point x="-7" y="-242"/>
      <point x="-9" y="-240"/>
      <point x="-15" y="-240" type="curve" smooth="yes"/>
      <point x="-19" y="-240"/>
      <point x="-22" y="-241"/>
      <point x="-25" y="-242" type="curve"/>
      <point x="-42" y="-283"/>
      <point x="-50" y="-320"/>
      <point x="-50" y="-351" type="curve" smooth="yes"/>
      <point x="-50" y="-466"/>
      <point x="22" y="-515"/>
      <point x="119" y="-515" type="curve" smooth="yes"/>
      <point x="277" y="-515"/>
      <point x="471" y="-407"/>
      <point x="585" y="-200" type="curve" smooth="yes"/>
      <point x="596" y="-180"/>
      <point x="600" y="-161"/>
      <point x="600" y="-147" type="curve" smooth="yes"/>
      <point x="600" y="-139"/>
      <point x="598" y="-133"/>
      <point x="594" y="-129" type="curve" smooth="yes"/>
      <point x="533" y="-68"/>
      <point x="439" y="-55"/>
      <point x="439" y="-39" type="curve" smooth="yes"/>
      <point x="439" y="-32"/>
      <point x="551" y="6"/>
      <point x="609" y="6" type="curve" smooth="yes"/>
      <point x="649" y="6"/>
      <point x="652" y="-35"/>
      <point x="654" y="-57" type="curve" smooth="yes"/>
      <point x="659" y="-110"/>
      <point x="667" y="-207"/>
      <point x="696" y="-207" type="curve"/>
      <point x="813" y="-207" type="line"/>
      <point x="813" y="-117" type="line"/>
      <point x="783" y="-117"/>
      <point x="768" y="-117"/>
      <point x="740" y="-117" type="curve" smooth="yes"/>
      <point x="720" y="-117"/>
      <point x="717" y="-99"/>
      <point x="709" y="-19" type="curve" smooth="yes"/>
      <point x="701" y="65"/>
      <point x="685" y="93"/>
      <point x="640" y="93" type="curve" smooth="yes"/>
      <point x="554" y="93"/>
      <point x="458" y="43"/>
      <point x="350" y="-19" type="curve"/>
      <point x="350" y="-53"/>
      <point x="353" y="-90"/>
      <point x="366" y="-111" type="curve"/>
      <point x="428" y="-131"/>
      <point x="462" y="-129"/>
    </contour>
  </outline>
</glyph>
<glyph name="beh-ar.init.alt" format="2">
  <advance width="277"/>
  <anchor x="134" y="-227" name="bottom"/>
  <anchor x="0" y="0" name="exit"/>
  <anchor x="125" y="631" name="top"/>
  <outline>
    <component base="dotbelow-ar" xOffset="25" yOffset="-30"/>
    <contour>
      <point x="-20" y="0" type="line"/>
      <point x="119" y="0" type="line" smooth="yes"/>
      <point x="198" y="0"/>
      <point x="212" y="37"/>
      <point x="211" y="190" type="curve" smooth="yes"/>
      <point x="210" y="300"/>
      <point x="203" y="437"/>
      <point x="197" y="582" type="curve"/>
      <point x="192" y="589"/>
      <point x="188" y="593"/>
      <point x="185" y="593" type="curve" smooth="yes"/>
      <point x="169" y="593"/>
      <point x="129" y="574"/>
      <point x="100" y="556" type="curve"/>
      <point x="129" y="424"/>
      <point x="153" y="242"/>
      <point x="153" y="160" type="curve" smooth="yes"/>
      <point x="153" y="94"/>
      <point x="136" y="90"/>
      <point x="101" y="90" type="curve" smooth="yes"/>
      <point x="-20" y="90" type="line"/>
    </contour>
  </outline>
</glyph>
<glyph name="behDotless-ar.fina" format="2">
  <advance width="425"/>
  <anchor x="251" y="-30" name="bottom"/>
  <anchor x="425" y="0" name="entry"/>
  <anchor x="242" y="310" name="top"/>
  <outline>
    <contour>
      <point x="268" y="90" type="curve"/>
      <point x="45" y="90" type="line"/>
      <point x="37" y="90"/>
      <point x="35" y="86"/>
      <point x="35" y="75" type="curve" smooth="yes"/>
      <point x="35" y="53"/>
      <point x="43" y="24"/>
      <point x="56" y="0" type="curve"/>
      <point x="445" y="0" type="line"/>
      <point x="445" y="90" type="line"/>
      <point x="393" y="90" type="line" smooth="yes"/>
      <point x="368" y="90"/>
      <point x="352" y="93"/>
      <point x="349" y="127" type="curve" smooth="yes"/>
      <point x="345" y="175"/>
      <point x="342" y="218"/>
      <point x="328" y="271" type="curve" smooth="yes"/>
      <point x="326" y="279"/>
      <point x="323" y="285"/>
      <point x="311" y="285" type="curve"/>
      <point x="302" y="280"/>
      <point x="271" y="264"/>
      <point x="243" y="247" type="curve"/>
      <point x="259" y="212"/>
      <point x="286" y="156"/>
      <point x="286" y="111" type="curve" smooth="yes"/>
      <point x="286" y="93"/>
      <point x="281" y="90"/>
    </contour>
  </outline>
</glyph>
<glyph name="behDotless-ar.init" format="2">
  <advance width="277"/>
  <anchor x="82" y="-30" name="bottom"/>
  <anchor x="0" y="0" name="exit"/>
  <anchor x="99" y="310" name="top"/>
  <outline>
    <contour>
      <point x="137" y="0" type="line" smooth="yes"/>
      <point x="191" y="0"/>
      <point x="209" y="64"/>
      <point x="209" y="138" type="curve" smooth="yes"/>
      <point x="209" y="182"/>
      <point x="206" y="230"/>
      <point x="193" y="271" type="curve" smooth="yes"/>
      <point x="191" y="279"/>
      <point x="188" y="285"/>
      <point x="176" y="285" type="curve"/>
      <point x="167" y="280"/>
      <point x="138" y="266"/>
      <point x="108" y="247" type="curve"/>
      <point x="123" y="213"/>
      <point x="151" y="156"/>
      <point x="151" y="111" type="curve" smooth="yes"/>
      <point x="151" y="93"/>
      <point x="145" y="90"/>
      <point x="132" y="90" type="curve" smooth="yes"/>
      <point x="-20" y="90" type="line"/>
      <point x="-20" y="0" type="line"/>
    </contour>
  </outline>
</glyph>
<glyph name="behDotless-ar.medi.flat" format="2">
  <advance width="207"/>
  <anchor x="89" y="-34" name="bottom"/>
  <anchor x="40" y="486" name="top"/>
  <outline>
    <contour>
      <point x="103" y="254" type="curve" smooth="yes"/>
      <point x="103" y="348"/>
      <point x="104" y="396"/>
      <point x="91" y="437" type="curve" smooth="yes"/>
      <point x="89" y="445"/>
      <point x="86" y="451"/>
      <point x="74" y="451" type="curve"/>
      <point x="65" y="446"/>
      <point x="36" y="432"/>
      <point x="6" y="413" type="curve"/>
      <point x="31" y="366"/>
      <point x="49" y="297"/>
      <point x="30" y="297" type="curve"/>
      <point x="19" y="297"/>
      <point x="-10" y="297"/>
      <point x="-20" y="297" type="curve"/>
      <point x="-20" y="207" type="line"/>
      <point x="-12" y="207"/>
      <point x="17" y="207"/>
      <point x="27" y="207" type="curve" smooth="yes"/>
      <point x="42" y="207"/>
      <point x="43" y="201"/>
      <point x="45" y="158" type="curve" smooth="yes"/>
      <point x="49" y="74"/>
      <point x="59" y="0"/>
      <point x="88" y="0" type="curve" smooth="yes"/>
      <point x="227" y="0" type="line"/>
      <point x="227" y="90" type="line"/>
      <point x="149" y="90" type="line" smooth="yes"/>
      <point x="117" y="90"/>
      <point x="103" y="104"/>
    </contour>
  </outline>
</glyph>
<glyph name="behDotless-ar.medi" format="2">
  <advance width="289"/>
  <anchor x="123" y="-30" name="bottom"/>
  <anchor x="289" y="0" name="entry"/>
  <anchor x="0" y="0" name="exit"/>
  <anchor x="105" y="310" name="top"/>
  <outline>
    <contour>
      <point x="257" y="90" type="line" smooth="yes"/>
      <point x="234" y="90"/>
      <point x="216" y="93"/>
      <point x="214" y="127" type="curve" smooth="yes"/>
      <point x="211" y="175"/>
      <point x="206" y="218"/>
      <point x="193" y="271" type="curve" smooth="yes"/>
      <point x="191" y="279"/>
      <point x="188" y="285"/>
      <point x="176" y="285" type="curve"/>
      <point x="167" y="280"/>
      <point x="123" y="257"/>
      <point x="108" y="247" type="curve"/>
      <point x="124" y="212"/>
      <point x="151" y="156"/>
      <point x="151" y="111" type="curve" smooth="yes"/>
      <point x="151" y="93"/>
      <point x="145" y="90"/>
      <point x="132" y="90" type="curve" smooth="yes"/>
      <point x="-20" y="90" type="line"/>
      <point x="-20" y="0" type="line"/>
      <point x="309" y="0" type="line"/>
      <point x="309" y="90" type="line"/>
    </contour>
  </outline>
</glyph>
<glyph name="breve-cy" format="2">
  <advance width="368"/>
  <anchor x="184" y="430" name="_top"/>
  <outline>
    <contour>
      <point x="0" y="637" type="curve"/>
      <point x="0" y="541"/>
      <point x="77" y="482"/>
      <point x="184" y="482" type="curve" smooth="yes"/>
      <point x="281" y="482"/>
      <point x="368" y="541"/>
      <point x="368" y="637" type="curve"/>
      <point x="343" y="648"/>
      <point x="316" y="654"/>
      <point x="284" y="654" type="curve"/>
      <point x="285" y="649"/>
      <point x="285" y="643"/>
      <point x="285" y="638" type="curve" smooth="yes"/>
      <point x="285" y="569"/>
      <point x="237" y="518"/>
      <point x="184" y="518" type="curve" smooth="yes"/>
      <point x="133" y="518"/>
      <point x="83" y="569"/>
      <point x="83" y="637" type="curve" smooth="yes"/>
      <point x="83" y="643"/>
      <point x="83" y="648"/>
      <point x="84" y="654" type="curve"/>
      <point x="52" y="654"/>
      <point x="25" y="648"/>
    </contour>
  </outline>
</glyph>
<glyph name="c.sc" format="2">
  <advance width="503"/>
  <outline>
    <contour>
      <point x="278" y="-5" type="curve" smooth="yes"/>
      <point x="362" y="-5"/>
      <point x="414" y="27"/>
      <point x="468" y="77" type="curve"/>
      <point x="442" y="112" type="line"/>
      <point x="400" y="68"/>
      <point x="358" y="43"/>
      <point x="298" y="43" type="curve" smooth="yes"/>
      <point x="204" y="43"/>
      <point x="135" y="138"/>
      <point x="135" y="269" type="curve" smooth="yes"/>
      <point x="135" y="367"/>
      <point x="162" y="433"/>
      <point x="217" y="478" type="curve"/>
      <point x="279" y="478"/>
      <point x="338" y="457"/>
      <point x="381" y="432" type="curve"/>
      <point x="398" y="341" type="line"/>
      <point x="436" y="341" type="line"/>
      <point x="444" y="391"/>
      <point x="450" y="418"/>
      <point x="461" y="475" type="curve"/>
      <point x="401" y="513"/>
      <point x="347" y="528"/>
      <point x="277" y="528" type="curve" smooth="yes"/>
      <point x="155" y="528"/>
      <point x="40" y="433"/>
      <point x="40" y="252" type="curve" smooth="yes"/>
      <point x="40" y="87"/>
      <point x="155" y="-5"/>
    </contour>
  </outline>
</glyph>
<glyph name="cedillacomb" format="2">
  <anchor x="-160" y="0" name="_bottom"/>
  <outline>
    <contour>
      <point x="-173" y="3" type="line"/>
      <point x="-206" y="-108" type="line"/>
      <point x="-143" y="-116"/>
      <point x="-128" y="-133"/>
      <point x="-125" y="-149" type="curve"/>
      <point x="-138" y="-174"/>
      <point x="-169" y="-199"/>
      <point x="-215" y="-229" type="curve"/>
      <point x="-197" y="-260" type="line"/>
      <point x="-87" y="-193"/>
      <point x="-63" y="-157"/>
      <point x="-63" y="-126" type="curve" smooth="yes"/>
      <point x="-63" y="-97"/>
      <point x="-80" y="-73"/>
      <point x="-145" y="-54" type="curve"/>
      <point x="-135" y="3" type="line"/>
    </contour>
  </outline>
</glyph>
<glyph name="commaaccent" format="2">
  <anchor x="83" y="0" name="_bottom"/>
  <outline>
    <contour>
      <point x="122" y="-230"/>
      <point x="154" y="-178"/>
      <point x="154" y="-132" type="curve" smooth="yes"/>
      <point x="154" y="-89"/>
      <point x="127" y="-50"/>
      <point x="74" y="-50" type="curve" smooth="yes"/>
      <point x="54" y="-50"/>
      <point x="38" y="-54"/>
      <point x="25" y="-62" type="curve"/>
      <point x="23" y="-70"/>
      <point x="21" y="-81"/>
      <point x="21" y="-92" type="curve" smooth="yes"/>
      <point x="21" y="-104"/>
      <point x="23" y="-118"/>
      <point x="27" y="-129" type="curve"/>
      <point x="38" y="-134"/>
      <point x="53" y="-136"/>
      <point x="66" y="-136" type="curve" smooth="yes"/>
      <point x="80" y="-136"/>
      <point x="96" y="-134"/>
      <point x="107" y="-129" type="curve"/>
      <point x="109" y="-134"/>
      <point x="110" y="-139"/>
      <point x="110" y="-146" type="curve" smooth="yes"/>
      <point x="110" y="-169"/>
      <point x="96" y="-197"/>
      <point x="46" y="-212" type="curve"/>
      <point x="57" y="-245" type="line"/>
    </contour>
  </outline>
</glyph>
<glyph name="e.sc" format="2">
  <advance width="498"/>
  <outline>
    <contour>
      <point x="156" y="293" type="curve"/>
      <point x="156" y="239" type="line"/>
      <point x="180" y="241"/>
      <point x="200" y="242"/>
      <point x="228" y="242" type="curve" smooth="yes"/>
      <point x="250" y="242"/>
      <point x="275" y="241"/>
      <point x="309" y="239" type="curve"/>
      <point x="309" y="293" type="line"/>
      <point x="275" y="292"/>
      <point x="251" y="291"/>
      <point x="228" y="291" type="curve" smooth="yes"/>
      <point x="201" y="291"/>
      <point x="181" y="292"/>
    </contour>
    <contour>
      <point x="277" y="284" type="line"/>
      <point x="277" y="245" type="line"/>
      <point x="297" y="165" type="line"/>
      <point x="335" y="165" type="line"/>
      <point x="334" y="198"/>
      <point x="332" y="231"/>
      <point x="332" y="264" type="curve" smooth="yes"/>
      <point x="332" y="297"/>
      <point x="334" y="331"/>
      <point x="335" y="364" type="curve"/>
      <point x="297" y="364" type="line"/>
    </contour>
    <contour>
      <point x="23" y="30" type="line"/>
      <point x="33" y="0" type="line"/>
      <point x="68" y="2"/>
      <point x="120" y="3"/>
      <point x="166" y="3" type="curve" smooth="yes"/>
      <point x="285" y="3"/>
      <point x="355" y="1"/>
      <point x="462" y="0" type="curve"/>
      <point x="459" y="30"/>
      <point x="456" y="93"/>
      <point x="454" y="176" type="curve"/>
      <point x="407" y="176" type="line"/>
      <point x="387" y="70" type="line"/>
      <point x="357" y="59"/>
      <point x="299" y="54"/>
      <point x="252" y="54" type="curve" smooth="yes"/>
      <point x="237" y="54"/>
      <point x="220" y="54"/>
      <point x="209" y="55" type="curve"/>
      <point x="206" y="113"/>
      <point x="205" y="187"/>
      <point x="205" y="265" type="curve" smooth="yes"/>
      <point x="205" y="329"/>
      <point x="206" y="396"/>
      <point x="209" y="459" type="curve"/>
      <point x="219" y="460"/>
      <point x="234" y="460"/>
      <point x="248" y="460" type="curve" smooth="yes"/>
      <point x="289" y="460"/>
      <point x="343" y="456"/>
      <point x="373" y="446" type="curve"/>
      <point x="393" y="342" type="line"/>
      <point x="440" y="342" type="line"/>
      <point x="442" y="425"/>
      <point x="449" y="518"/>
      <point x="449" y="518" type="curve"/>
      <point x="329" y="516"/>
      <point x="253" y="515"/>
      <point x="164" y="515" type="curve" smooth="yes"/>
      <point x="126" y="515"/>
      <point x="86" y="516"/>
      <point x="33" y="518" type="curve"/>
      <point x="23" y="487" type="line"/>
      <point x="112" y="466" type="line"/>
      <point x="116" y="399"/>
      <point x="117" y="322"/>
      <point x="117" y="249" type="curve" smooth="yes"/>
      <point x="117" y="176"/>
      <point x="116" y="106"/>
      <point x="112" y="51" type="curve"/>
    </contour>
  </outline>
</glyph>
<glyph name="eight.alt" format="2">
  <advance width="370"/>
  <outline>
    <contour>
      <point x="285" y="268"/>
      <point x="322" y="317"/>
      <point x="322" y="364" type="curve" smooth="yes"/>
      <point x="322" y="417"/>
      <point x="274" y="467"/>
      <point x="183" y="467" type="curve" smooth="yes"/>
      <point x="110" y="467"/>
      <point x="43" y="430"/>
      <point x="43" y="357" type="curve" smooth="yes"/>
      <point x="43" y="214"/>
      <point x="264" y="219"/>
      <point x="264" y="101" type="curve" smooth="yes"/>
      <point x="264" y="51"/>
      <point x="228" y="26"/>
      <point x="190" y="26" type="curve" smooth="yes"/>
      <point x="149" y="26"/>
      <point x="106" y="55"/>
      <point x="106" y="111" type="curve" smooth="yes"/>
      <point x="106" y="151"/>
      <point x="128" y="195"/>
      <point x="165" y="229" type="curve"/>
      <point x="151" y="242" type="line"/>
      <point x="54" y="206"/>
      <point x="29" y="152"/>
      <point x="29" y="106" type="curve" smooth="yes"/>
      <point x="29" y="30"/>
      <point x="103" y="-9"/>
      <point x="184" y="-9" type="curve" smooth="yes"/>
      <point x="265" y="-9"/>
      <point x="341" y="31"/>
      <point x="341" y="114" type="curve" smooth="yes"/>
      <point x="341" y="266"/>
      <point x="120" y="270"/>
      <point x="120" y="372" type="curve" smooth="yes"/>
      <point x="120" y="413"/>
      <point x="150" y="433"/>
      <point x="181" y="433" type="curve" smooth="yes"/>
      <point x="216" y="433"/>
      <point x="254" y="407"/>
      <point x="254" y="357" type="curve" smooth="yes"/>
      <point x="254" y="322"/>
      <point x="226" y="280"/>
      <point x="186" y="267" type="curve"/>
      <point x="209" y="249" type="line"/>
    </contour>
  </outline>
</glyph>
